<svg xmlns="http://www.w3.org/2000/svg" xmlns:xlink="http://www.w3.org/1999/xlink" contentStyleType="text/css" data-diagram-type="DESCRIPTION" height="786px" preserveAspectRatio="none" style="width:2091px;height:786px;background:#FFFFFF;" version="1.1" viewBox="0 0 2091 786" width="2091px" zoomAndPan="magnify"><defs/><g><!--cluster org.junit.jupiter--><g class="cluster" data-entity="org.junit.jupiter" data-source-line="6" data-uid="ent0002" id="cluster_org.junit.jupiter"><path d="M1091.5,6 L1218.582,6 A3.75,3.75 0 0 1 1221.082,8.5 L1228.082,28.2969 L1827.5,28.2969 A2.5,2.5 0 0 1 1830,30.7969 L1830,382.5 A2.5,2.5 0 0 1 1827.5,385 L1091.5,385 A2.5,2.5 0 0 1 1089,382.5 L1089,8.5 A2.5,2.5 0 0 1 1091.5,6" fill="none" style="stroke:#000000;stroke-width:1.5;"/><line style="stroke:#000000;stroke-width:1.5;" x1="1089" x2="1228.082" y1="28.2969" y2="28.2969"/><text fill="#000000" font-family="sans-serif" font-size="14" font-weight="bold" lengthAdjust="spacing" textLength="126.082" x="1093" y="20.9951">org.junit.jupiter</text></g><!--cluster org.junit.vintage--><g class="cluster" data-entity="org.junit.vintage" data-source-line="14" data-uid="ent0008" id="cluster_org.junit.vintage"><path d="M853.5,147 L987.4521,147 A3.75,3.75 0 0 1 989.9521,149.5 L996.9521,169.2969 L1062.5,169.2969 A2.5,2.5 0 0 1 1065,171.7969 L1065,241.5 A2.5,2.5 0 0 1 1062.5,244 L853.5,244 A2.5,2.5 0 0 1 851,241.5 L851,149.5 A2.5,2.5 0 0 1 853.5,147" fill="none" style="stroke:#000000;stroke-width:1.5;"/><line style="stroke:#000000;stroke-width:1.5;" x1="851" x2="996.9521" y1="169.2969" y2="169.2969"/><text fill="#000000" font-family="sans-serif" font-size="14" font-weight="bold" lengthAdjust="spacing" textLength="132.9521" x="855" y="161.9951">org.junit.vintage</text></g><!--cluster org.junit.platform--><g class="cluster" data-entity="org.junit.platform" data-source-line="18" data-uid="ent0010" id="cluster_org.junit.platform"><path d="M33.5,6 L176.0654,6 A3.75,3.75 0 0 1 178.5654,8.5 L185.5654,28.2969 L824.5,28.2969 A2.5,2.5 0 0 1 827,30.7969 L827,609.5 A2.5,2.5 0 0 1 824.5,612 L33.5,612 A2.5,2.5 0 0 1 31,609.5 L31,8.5 A2.5,2.5 0 0 1 33.5,6" fill="none" style="stroke:#000000;stroke-width:1.5;"/><line style="stroke:#000000;stroke-width:1.5;" x1="31" x2="185.5654" y1="28.2969" y2="28.2969"/><text fill="#000000" font-family="sans-serif" font-size="14" font-weight="bold" lengthAdjust="spacing" textLength="141.5654" x="35" y="20.9951">org.junit.platform</text></g><!--cluster JUnit 4--><g class="cluster" data-entity="JUnit 4" data-source-line="30" data-uid="ent0020" id="cluster_JUnit 4"><path d="M938.5,409 L992.1504,409 A3.75,3.75 0 0 1 994.6504,411.5 L1001.6504,431.2969 L1071.5,431.2969 A2.5,2.5 0 0 1 1074,433.7969 L1074,503.5 A2.5,2.5 0 0 1 1071.5,506 L938.5,506 A2.5,2.5 0 0 1 936,503.5 L936,411.5 A2.5,2.5 0 0 1 938.5,409" fill="none" style="stroke:#000000;stroke-width:1.5;"/><line style="stroke:#000000;stroke-width:1.5;" x1="936" x2="1001.6504" y1="431.2969" y2="431.2969"/><text fill="#000000" font-family="sans-serif" font-size="14" font-weight="bold" lengthAdjust="spacing" textLength="52.6504" x="940" y="423.9951">JUnit 4</text></g><!--cluster org.opentest4j--><g class="cluster" data-entity="org.opentest4j" data-source-line="34" data-uid="ent0022" id="cluster_org.opentest4j"><path d="M476.5,682 L594.2168,682 A3.75,3.75 0 0 1 596.7168,684.5 L603.7168,704.2969 L619.5,704.2969 A2.5,2.5 0 0 1 622,706.7969 L622,776.5 A2.5,2.5 0 0 1 619.5,779 L476.5,779 A2.5,2.5 0 0 1 474,776.5 L474,684.5 A2.5,2.5 0 0 1 476.5,682" fill="none" style="stroke:#000000;stroke-width:1.5;"/><line style="stroke:#000000;stroke-width:1.5;" x1="474" x2="603.7168" y1="704.2969" y2="704.2969"/><text fill="#000000" font-family="sans-serif" font-size="14" font-weight="bold" lengthAdjust="spacing" textLength="116.7168" x="478" y="696.9951">org.opentest4j</text></g><!--cluster org.opentest4j.reporting--><g class="cluster" data-entity="org.opentest4j.reporting" data-source-line="38" data-uid="ent0024" id="cluster_org.opentest4j.reporting"><path d="M8.5,682 L205.958,682 A3.75,3.75 0 0 1 208.458,684.5 L215.458,704.2969 L291.5,704.2969 A2.5,2.5 0 0 1 294,706.7969 L294,776.5 A2.5,2.5 0 0 1 291.5,779 L8.5,779 A2.5,2.5 0 0 1 6,776.5 L6,684.5 A2.5,2.5 0 0 1 8.5,682" fill="none" style="stroke:#000000;stroke-width:1.5;"/><line style="stroke:#000000;stroke-width:1.5;" x1="6" x2="215.458" y1="704.2969" y2="704.2969"/><text fill="#000000" font-family="sans-serif" font-size="14" font-weight="bold" lengthAdjust="spacing" textLength="196.458" x="10" y="696.9951">org.opentest4j.reporting</text></g><!--cluster org.apiguardian--><g class="cluster" data-entity="org.apiguardian" data-source-line="42" data-uid="ent0026" id="cluster_org.apiguardian"><path d="M1856.5,6 L1984.2041,6 A3.75,3.75 0 0 1 1986.7041,8.5 L1993.7041,28.2969 L2081.5,28.2969 A2.5,2.5 0 0 1 2084,30.7969 L2084,276.5 A2.5,2.5 0 0 1 2081.5,279 L1856.5,279 A2.5,2.5 0 0 1 1854,276.5 L1854,8.5 A2.5,2.5 0 0 1 1856.5,6" fill="none" style="stroke:#000000;stroke-width:1.5;"/><line style="stroke:#000000;stroke-width:1.5;" x1="1854" x2="1993.7041" y1="28.2969" y2="28.2969"/><text fill="#000000" font-family="sans-serif" font-size="14" font-weight="bold" lengthAdjust="spacing" textLength="126.7041" x="1858" y="20.9951">org.apiguardian</text></g><!--entity jupiter--><g class="entity" data-entity="jupiter" data-source-line="7" data-uid="ent0003" id="entity_jupiter"><rect fill="#F1F1F1" height="46.2969" rx="2.5" ry="2.5" style="stroke:#181818;stroke-width:0.5;" width="121.4639" x="1626.5" y="41"/><rect fill="#F1F1F1" height="10" style="stroke:#181818;stroke-width:0.5;" width="15" x="1727.9639" y="46"/><rect fill="#F1F1F1" height="2" style="stroke:#181818;stroke-width:0.5;" width="4" x="1725.9639" y="48"/><rect fill="#F1F1F1" height="2" style="stroke:#181818;stroke-width:0.5;" width="4" x="1725.9639" y="52"/><text fill="#000000" font-family="sans-serif" font-size="14" lengthAdjust="spacing" textLength="81.4639" x="1641.5" y="73.9951">junit-jupiter</text></g><!--entity jupiter_api--><g class="entity" data-entity="jupiter_api" data-source-line="8" data-uid="ent0004" id="entity_jupiter_api"><rect fill="#F1F1F1" height="46.2969" rx="2.5" ry="2.5" style="stroke:#181818;stroke-width:0.5;" width="147.8711" x="1350" y="323"/><rect fill="#F1F1F1" height="10" style="stroke:#181818;stroke-width:0.5;" width="15" x="1477.8711" y="328"/><rect fill="#F1F1F1" height="2" style="stroke:#181818;stroke-width:0.5;" width="4" x="1475.8711" y="330"/><rect fill="#F1F1F1" height="2" style="stroke:#181818;stroke-width:0.5;" width="4" x="1475.8711" y="334"/><text fill="#000000" font-family="sans-serif" font-size="14" lengthAdjust="spacing" textLength="107.8711" x="1365" y="355.9951">junit-jupiter-api</text></g><!--entity jupiter_engine--><g class="entity" data-entity="jupiter_engine" data-source-line="9" data-uid="ent0005" id="entity_jupiter_engine"><rect fill="#F1F1F1" height="46.2969" rx="2.5" ry="2.5" style="stroke:#181818;stroke-width:0.5;" width="174.2646" x="1105" y="182"/><rect fill="#F1F1F1" height="10" style="stroke:#181818;stroke-width:0.5;" width="15" x="1259.2646" y="187"/><rect fill="#F1F1F1" height="2" style="stroke:#181818;stroke-width:0.5;" width="4" x="1257.2646" y="189"/><rect fill="#F1F1F1" height="2" style="stroke:#181818;stroke-width:0.5;" width="4" x="1257.2646" y="193"/><text fill="#000000" font-family="sans-serif" font-size="14" lengthAdjust="spacing" textLength="134.2646" x="1120" y="214.9951">junit-jupiter-engine</text></g><!--entity jupiter_params--><g class="entity" data-entity="jupiter_params" data-source-line="10" data-uid="ent0006" id="entity_jupiter_params"><rect fill="#F1F1F1" height="46.2969" rx="2.5" ry="2.5" style="stroke:#181818;stroke-width:0.5;" width="179.248" x="1597.5" y="182"/><rect fill="#F1F1F1" height="10" style="stroke:#181818;stroke-width:0.5;" width="15" x="1756.748" y="187"/><rect fill="#F1F1F1" height="2" style="stroke:#181818;stroke-width:0.5;" width="4" x="1754.748" y="189"/><rect fill="#F1F1F1" height="2" style="stroke:#181818;stroke-width:0.5;" width="4" x="1754.748" y="193"/><text fill="#000000" font-family="sans-serif" font-size="14" lengthAdjust="spacing" textLength="139.248" x="1612.5" y="214.9951">junit-jupiter-params</text></g><!--entity jupiter_migration_support--><g class="entity" data-entity="jupiter_migration_support" data-source-line="11" data-uid="ent0007" id="entity_jupiter_migration_support"><rect fill="#F1F1F1" height="46.2969" rx="2.5" ry="2.5" style="stroke:#181818;stroke-width:0.5;" width="247.833" x="1314" y="182"/><rect fill="#F1F1F1" height="10" style="stroke:#181818;stroke-width:0.5;" width="15" x="1541.833" y="187"/><rect fill="#F1F1F1" height="2" style="stroke:#181818;stroke-width:0.5;" width="4" x="1539.833" y="189"/><rect fill="#F1F1F1" height="2" style="stroke:#181818;stroke-width:0.5;" width="4" x="1539.833" y="193"/><text fill="#000000" font-family="sans-serif" font-size="14" lengthAdjust="spacing" textLength="207.833" x="1329" y="214.9951">junit-jupiter-migrationsupport</text></g><!--entity vintage_engine--><g class="entity" data-entity="vintage_engine" data-source-line="15" data-uid="ent0009" id="entity_vintage_engine"><rect fill="#F1F1F1" height="46.2969" rx="2.5" ry="2.5" style="stroke:#181818;stroke-width:0.5;" width="181.4834" x="867.5" y="182"/><rect fill="#F1F1F1" height="10" style="stroke:#181818;stroke-width:0.5;" width="15" x="1028.9834" y="187"/><rect fill="#F1F1F1" height="2" style="stroke:#181818;stroke-width:0.5;" width="4" x="1026.9834" y="189"/><rect fill="#F1F1F1" height="2" style="stroke:#181818;stroke-width:0.5;" width="4" x="1026.9834" y="193"/><text fill="#000000" font-family="sans-serif" font-size="14" lengthAdjust="spacing" textLength="141.4834" x="882.5" y="214.9951">junit-vintage-engine</text></g><!--entity commons--><g class="entity" data-entity="commons" data-source-line="19" data-uid="ent0011" id="entity_commons"><rect fill="#F1F1F1" height="46.2969" rx="2.5" ry="2.5" style="stroke:#181818;stroke-width:0.5;" width="209.1211" x="601.5" y="550"/><rect fill="#F1F1F1" height="10" style="stroke:#181818;stroke-width:0.5;" width="15" x="790.6211" y="555"/><rect fill="#F1F1F1" height="2" style="stroke:#181818;stroke-width:0.5;" width="4" x="788.6211" y="557"/><rect fill="#F1F1F1" height="2" style="stroke:#181818;stroke-width:0.5;" width="4" x="788.6211" y="561"/><text fill="#000000" font-family="sans-serif" font-size="14" lengthAdjust="spacing" textLength="169.1211" x="616.5" y="582.9951">junit-platform-commons</text></g><!--entity console--><g class="entity" data-entity="console" data-source-line="20" data-uid="ent0012" id="entity_console"><rect fill="#F1F1F1" height="46.2969" rx="2.5" ry="2.5" style="stroke:#181818;stroke-width:0.5;" width="194.3486" x="198" y="41"/><rect fill="#F1F1F1" height="10" style="stroke:#181818;stroke-width:0.5;" width="15" x="372.3486" y="46"/><rect fill="#F1F1F1" height="2" style="stroke:#181818;stroke-width:0.5;" width="4" x="370.3486" y="48"/><rect fill="#F1F1F1" height="2" style="stroke:#181818;stroke-width:0.5;" width="4" x="370.3486" y="52"/><text fill="#000000" font-family="sans-serif" font-size="14" lengthAdjust="spacing" textLength="154.3486" x="213" y="73.9951">junit-platform-console</text></g><!--entity engine--><g class="entity" data-entity="engine" data-source-line="21" data-uid="ent0013" id="entity_engine"><rect fill="#F1F1F1" height="46.2969" rx="2.5" ry="2.5" style="stroke:#181818;stroke-width:0.5;" width="188.5996" x="611.5" y="444"/><rect fill="#F1F1F1" height="10" style="stroke:#181818;stroke-width:0.5;" width="15" x="780.0996" y="449"/><rect fill="#F1F1F1" height="2" style="stroke:#181818;stroke-width:0.5;" width="4" x="778.0996" y="451"/><rect fill="#F1F1F1" height="2" style="stroke:#181818;stroke-width:0.5;" width="4" x="778.0996" y="455"/><text fill="#000000" font-family="sans-serif" font-size="14" lengthAdjust="spacing" textLength="148.5996" x="626.5" y="476.9951">junit-platform-engine</text></g><!--entity launcher--><g class="entity" data-entity="launcher" data-source-line="22" data-uid="ent0014" id="entity_launcher"><rect fill="#F1F1F1" height="46.2969" rx="2.5" ry="2.5" style="stroke:#181818;stroke-width:0.5;" width="202.0049" x="372" y="323"/><rect fill="#F1F1F1" height="10" style="stroke:#181818;stroke-width:0.5;" width="15" x="554.0049" y="328"/><rect fill="#F1F1F1" height="2" style="stroke:#181818;stroke-width:0.5;" width="4" x="552.0049" y="330"/><rect fill="#F1F1F1" height="2" style="stroke:#181818;stroke-width:0.5;" width="4" x="552.0049" y="334"/><text fill="#000000" font-family="sans-serif" font-size="14" lengthAdjust="spacing" textLength="162.0049" x="387" y="355.9951">junit-platform-launcher</text></g><!--entity reporting--><g class="entity" data-entity="reporting" data-source-line="23" data-uid="ent0015" id="entity_reporting"><rect fill="#F1F1F1" height="46.2969" rx="2.5" ry="2.5" style="stroke:#181818;stroke-width:0.5;" width="205.5664" x="47" y="182"/><rect fill="#F1F1F1" height="10" style="stroke:#181818;stroke-width:0.5;" width="15" x="232.5664" y="187"/><rect fill="#F1F1F1" height="2" style="stroke:#181818;stroke-width:0.5;" width="4" x="230.5664" y="189"/><rect fill="#F1F1F1" height="2" style="stroke:#181818;stroke-width:0.5;" width="4" x="230.5664" y="193"/><text fill="#000000" font-family="sans-serif" font-size="14" lengthAdjust="spacing" textLength="165.5664" x="62" y="214.9951">junit-platform-reporting</text></g><!--entity suite--><g class="entity" data-entity="suite" data-source-line="24" data-uid="ent0016" id="entity_suite"><rect fill="#F1F1F1" height="46.2969" rx="2.5" ry="2.5" style="stroke:#181818;stroke-width:0.5;" width="175.0098" x="603.5" y="41"/><rect fill="#F1F1F1" height="10" style="stroke:#181818;stroke-width:0.5;" width="15" x="758.5098" y="46"/><rect fill="#F1F1F1" height="2" style="stroke:#181818;stroke-width:0.5;" width="4" x="756.5098" y="48"/><rect fill="#F1F1F1" height="2" style="stroke:#181818;stroke-width:0.5;" width="4" x="756.5098" y="52"/><text fill="#000000" font-family="sans-serif" font-size="14" lengthAdjust="spacing" textLength="135.0098" x="618.5" y="73.9951">junit-platform-suite</text></g><!--entity suite_api--><g class="entity" data-entity="suite_api" data-source-line="25" data-uid="ent0017" id="entity_suite_api"><rect fill="#F1F1F1" height="46.2969" rx="2.5" ry="2.5" style="stroke:#181818;stroke-width:0.5;" width="201.417" x="609.5" y="323"/><rect fill="#F1F1F1" height="10" style="stroke:#181818;stroke-width:0.5;" width="15" x="790.917" y="328"/><rect fill="#F1F1F1" height="2" style="stroke:#181818;stroke-width:0.5;" width="4" x="788.917" y="330"/><rect fill="#F1F1F1" height="2" style="stroke:#181818;stroke-width:0.5;" width="4" x="788.917" y="334"/><text fill="#000000" font-family="sans-serif" font-size="14" lengthAdjust="spacing" textLength="161.417" x="624.5" y="355.9951">junit-platform-suite-api</text></g><!--entity suite_engine--><g class="entity" data-entity="suite_engine" data-source-line="26" data-uid="ent0018" id="entity_suite_engine"><rect fill="#F1F1F1" height="46.2969" rx="2.5" ry="2.5" style="stroke:#181818;stroke-width:0.5;" width="227.8105" x="546" y="182"/><rect fill="#F1F1F1" height="10" style="stroke:#181818;stroke-width:0.5;" width="15" x="753.8105" y="187"/><rect fill="#F1F1F1" height="2" style="stroke:#181818;stroke-width:0.5;" width="4" x="751.8105" y="189"/><rect fill="#F1F1F1" height="2" style="stroke:#181818;stroke-width:0.5;" width="4" x="751.8105" y="193"/><text fill="#000000" font-family="sans-serif" font-size="14" lengthAdjust="spacing" textLength="187.8105" x="561" y="214.9951">junit-platform-suite-engine</text></g><!--entity testkit--><g class="entity" data-entity="testkit" data-source-line="27" data-uid="ent0019" id="entity_testkit"><rect fill="#F1F1F1" height="46.2969" rx="2.5" ry="2.5" style="stroke:#181818;stroke-width:0.5;" width="185.2227" x="288.5" y="182"/><rect fill="#F1F1F1" height="10" style="stroke:#181818;stroke-width:0.5;" width="15" x="453.7227" y="187"/><rect fill="#F1F1F1" height="2" style="stroke:#181818;stroke-width:0.5;" width="4" x="451.7227" y="189"/><rect fill="#F1F1F1" height="2" style="stroke:#181818;stroke-width:0.5;" width="4" x="451.7227" y="193"/><text fill="#000000" font-family="sans-serif" font-size="14" lengthAdjust="spacing" textLength="145.2227" x="303.5" y="214.9951">junit-platform-testkit</text></g><!--entity junit4--><g class="entity" data-entity="junit4" data-source-line="31" data-uid="ent0021" id="entity_junit4"><rect fill="#F1F1F1" height="46.2969" rx="2.5" ry="2.5" style="stroke:#181818;stroke-width:0.5;" width="106.7461" x="951.5" y="444"/><rect fill="#F1F1F1" height="10" style="stroke:#181818;stroke-width:0.5;" width="15" x="1038.2461" y="449"/><rect fill="#F1F1F1" height="2" style="stroke:#181818;stroke-width:0.5;" width="4" x="1036.2461" y="451"/><rect fill="#F1F1F1" height="2" style="stroke:#181818;stroke-width:0.5;" width="4" x="1036.2461" y="455"/><text fill="#000000" font-family="sans-serif" font-size="14" lengthAdjust="spacing" textLength="66.7461" x="966.5" y="476.9951">junit:junit</text></g><!--entity opentest4j--><g class="entity" data-entity="opentest4j" data-source-line="35" data-uid="ent0023" id="entity_opentest4j"><rect fill="#F1F1F1" height="46.2969" rx="2.5" ry="2.5" style="stroke:#181818;stroke-width:0.5;" width="114.6211" x="490.5" y="717"/><rect fill="#F1F1F1" height="10" style="stroke:#181818;stroke-width:0.5;" width="15" x="585.1211" y="722"/><rect fill="#F1F1F1" height="2" style="stroke:#181818;stroke-width:0.5;" width="4" x="583.1211" y="724"/><rect fill="#F1F1F1" height="2" style="stroke:#181818;stroke-width:0.5;" width="4" x="583.1211" y="728"/><text fill="#000000" font-family="sans-serif" font-size="14" lengthAdjust="spacing" textLength="74.6211" x="505.5" y="749.9951">opentest4j</text></g><!--entity otr_tooling_spi--><g class="entity" data-entity="otr_tooling_spi" data-source-line="39" data-uid="ent0025" id="entity_otr_tooling_spi"><rect fill="#F1F1F1" height="46.2969" rx="2.5" ry="2.5" style="stroke:#181818;stroke-width:0.5;" width="254.9766" x="22.5" y="717"/><rect fill="#F1F1F1" height="10" style="stroke:#181818;stroke-width:0.5;" width="15" x="257.4766" y="722"/><rect fill="#F1F1F1" height="2" style="stroke:#181818;stroke-width:0.5;" width="4" x="255.4766" y="724"/><rect fill="#F1F1F1" height="2" style="stroke:#181818;stroke-width:0.5;" width="4" x="255.4766" y="728"/><text fill="#000000" font-family="sans-serif" font-size="14" lengthAdjust="spacing" textLength="214.9766" x="37.5" y="749.9951">open-test-reporting-tooling-spi</text></g><!--entity apiguardian--><g class="entity" data-entity="apiguardian" data-source-line="43" data-uid="ent0027" id="entity_apiguardian"><rect fill="#F1F1F1" height="46.2969" rx="2.5" ry="2.5" style="stroke:#181818;stroke-width:0.5;" width="150.0859" x="1894" y="41"/><rect fill="#F1F1F1" height="10" style="stroke:#181818;stroke-width:0.5;" width="15" x="2024.0859" y="46"/><rect fill="#F1F1F1" height="2" style="stroke:#181818;stroke-width:0.5;" width="4" x="2022.0859" y="48"/><rect fill="#F1F1F1" height="2" style="stroke:#181818;stroke-width:0.5;" width="4" x="2022.0859" y="52"/><text fill="#000000" font-family="sans-serif" font-size="14" lengthAdjust="spacing" textLength="110.0859" x="1909" y="73.9951">apiguardian-api</text></g><g class="entity" data-entity="GMN28" data-source-line="45" data-uid="ent0029" id="entity_GMN28"><path d="M1870.5,147 L1870.5,262.9297 A0,0 0 0 0 1870.5,262.9297 L2067.876,262.9297 A0,0 0 0 0 2067.876,262.9297 L2067.876,157 L2057.876,147 L1973,147 L1969,87.02 L1965,147 L1870.5,147 A0,0 0 0 0 1870.5,147" fill="#FFFFFF" style="stroke:#181818;stroke-width:0.5;"/><path d="M2057.876,147 L2057.876,157 L2067.876,157 L2057.876,147" fill="#FFFFFF" style="stroke:#181818;stroke-width:0.5;"/><text fill="#000000" font-family="sans-serif" font-size="13" lengthAdjust="spacing" textLength="122.1479" x="1876.5" y="164.0669">All artifacts except</text><text fill="#000000" font-family="sans-serif" font-size="13" lengthAdjust="spacing" textLength="163.9917" x="1876.5" y="179.1997">opentest4j and junit:junit</text><text fill="#000000" font-family="sans-serif" font-size="13" lengthAdjust="spacing" textLength="176.376" x="1876.5" y="194.3325">have a dependency on this</text><text fill="#000000" font-family="sans-serif" font-size="13" lengthAdjust="spacing" textLength="158.6851" x="1876.5" y="209.4653">artifact. The edges have</text><text fill="#000000" font-family="sans-serif" font-size="13" lengthAdjust="spacing" textLength="149.8174" x="1876.5" y="224.5981">been omitted from this</text><text fill="#000000" font-family="sans-serif" font-size="13" lengthAdjust="spacing" textLength="152.5913" x="1876.5" y="239.731">diagram for the sake of</text><text fill="#000000" font-family="sans-serif" font-size="13" lengthAdjust="spacing" textLength="73.5376" x="1876.5" y="254.8638">readability.</text></g><!--link jupiter to jupiter_api--><g class="link" data-entity-1="jupiter" data-entity-2="jupiter_api" data-source-line="55" data-uid="lnk31" id="link_jupiter_jupiter_api"><path d="M1738.49,87.16 C1759.72,99.18 1782.1,116.3 1794,139 C1824.54,197.26 1836.76,237.02 1794,287 C1756.7,330.6 1600.9577,341.4853 1504.0877,344.1453" fill="none" id="jupiter-to-jupiter_api" style="stroke:#181818;stroke-width:1;stroke-dasharray:7.0,7.0;"/><polygon fill="#181818" points="1498.09,344.31,1507.1964,348.0615,1503.0881,344.1728,1506.9768,340.0645,1498.09,344.31" style="stroke:#181818;stroke-width:1;"/></g><!--link jupiter to jupiter_params--><g class="link" data-entity-1="jupiter" data-entity-2="jupiter_params" data-source-line="56" data-uid="lnk32" id="link_jupiter_jupiter_params"><path d="M1687,87.02 C1687,112.9 1687,149.59 1687,175.62" fill="none" id="jupiter-to-jupiter_params" style="stroke:#181818;stroke-width:1;stroke-dasharray:7.0,7.0;"/><polygon fill="#181818" points="1687,181.62,1691,172.62,1687,176.62,1683,172.62,1687,181.62" style="stroke:#181818;stroke-width:1;"/></g><!--link jupiter to jupiter_engine--><g class="link" data-entity-1="jupiter" data-entity-2="jupiter_engine" data-source-line="57" data-uid="lnk33" id="link_jupiter_jupiter_engine"><path d="M1626.32,69.6 C1547.96,77.08 1408.44,95.66 1297,139 C1269.63,149.65 1246.38,164.0473 1226.13,178.3573" fill="none" id="jupiter-to-jupiter_engine" style="stroke:#181818;stroke-width:1;stroke-dasharray:7.0,7.0;"/><polygon fill="#181818" points="1221.23,181.82,1230.8884,179.8927,1225.3133,178.9344,1226.2716,173.3593,1221.23,181.82" style="stroke:#181818;stroke-width:1;"/></g><!--link jupiter_api to opentest4j--><g class="link" data-entity-1="jupiter_api" data-entity-2="opentest4j" data-source-line="59" data-uid="lnk34" id="link_jupiter_api_opentest4j"><path d="M1403.51,369.03 C1369.66,404.24 1298.58,473.35 1226,514 C1013.11,633.24 732.8413,700.864 611.8013,726.344" fill="none" id="jupiter_api-to-opentest4j" style="stroke:#181818;stroke-width:1;stroke-dasharray:7.0,7.0;"/><polygon fill="#181818" points="605.93,727.58,615.561,729.6403,610.8228,726.55,613.913,721.8118,605.93,727.58" style="stroke:#181818;stroke-width:1;"/></g><!--link jupiter_api to commons--><g class="link" data-entity-1="jupiter_api" data-entity-2="commons" data-source-line="60" data-uid="lnk35" id="link_jupiter_api_commons"><path d="M1387.13,369.02 C1324.87,405.17 1193.93,476.8 1074,514 C987.36,540.87 891.1665,555.0771 816.4965,562.9971" fill="none" id="jupiter_api-to-commons" style="stroke:#181818;stroke-width:1;stroke-dasharray:7.0,7.0;"/><polygon fill="#181818" points="810.53,563.63,819.9017,566.6584,815.5021,563.1026,819.0579,558.703,810.53,563.63" style="stroke:#181818;stroke-width:1;"/></g><!--link jupiter_engine to engine--><g class="link" data-entity-1="jupiter_engine" data-entity-2="engine" data-source-line="62" data-uid="lnk36" id="link_jupiter_engine_engine"><path d="M1158.27,228.03 C1132.81,244.54 1096.93,267.53 1065,287 C985.08,335.73 966.91,351.5 883,393 C844.56,412.01 805.5114,428.2238 770.6714,441.7838" fill="none" id="jupiter_engine-to-engine" style="stroke:#181818;stroke-width:1;stroke-dasharray:7.0,7.0;"/><polygon fill="#181818" points="765.08,443.96,774.918,444.4233,769.7395,442.1465,772.0163,436.968,765.08,443.96" style="stroke:#181818;stroke-width:1;"/></g><!--link jupiter_engine to jupiter_api--><g class="link" data-entity-1="jupiter_engine" data-entity-2="jupiter_api" data-source-line="63" data-uid="lnk37" id="link_jupiter_engine_jupiter_api"><path d="M1217.13,228.04 C1237.7,245.41 1268.02,269.52 1297,287 C1319.52,300.58 1340.2558,310.6817 1363.0258,320.5617" fill="none" id="jupiter_engine-to-jupiter_api" style="stroke:#181818;stroke-width:1;stroke-dasharray:7.0,7.0;"/><polygon fill="#181818" points="1368.53,322.95,1361.8659,315.6981,1363.9432,320.9598,1358.6815,323.037,1368.53,322.95" style="stroke:#181818;stroke-width:1;"/></g><!--link jupiter_params to jupiter_api--><g class="link" data-entity-1="jupiter_params" data-entity-2="jupiter_api" data-source-line="65" data-uid="lnk38" id="link_jupiter_params_jupiter_api"><path d="M1662.08,228.23 C1641.27,245.93 1610.23,270.41 1580,287 C1553.91,301.32 1529.2222,311.5253 1502.2622,320.9753" fill="none" id="jupiter_params-to-jupiter_api" style="stroke:#181818;stroke-width:1;stroke-dasharray:7.0,7.0;"/><polygon fill="#181818" points="1496.6,322.96,1506.4165,323.7577,1501.3185,321.3061,1503.7702,316.2081,1496.6,322.96" style="stroke:#181818;stroke-width:1;"/></g><!--link jupiter_migration_support to jupiter_api--><g class="link" data-entity-1="jupiter_migration_support" data-entity-2="jupiter_api" data-source-line="66" data-uid="lnk39" id="link_jupiter_migration_support_jupiter_api"><path d="M1435.78,228.02 C1433.18,253.9 1429.4832,290.6204 1426.8532,316.6504" fill="none" id="jupiter_migration_support-to-jupiter_api" style="stroke:#181818;stroke-width:1;stroke-dasharray:7.0,7.0;"/><polygon fill="#181818" points="1426.25,322.62,1431.1345,314.0677,1426.7526,317.6453,1423.175,313.2635,1426.25,322.62" style="stroke:#181818;stroke-width:1;"/></g><!--link jupiter_migration_support to junit4--><g class="link" data-entity-1="jupiter_migration_support" data-entity-2="junit4" data-source-line="67" data-uid="lnk40" id="link_jupiter_migration_support_junit4"><path d="M1401.08,228.17 C1319.28,277.29 1128.6839,391.7313 1046.9639,440.8013" fill="none" id="jupiter_migration_support-to-junit4" style="stroke:#181818;stroke-width:1;stroke-dasharray:7.0,7.0;"/><polygon fill="#181818" points="1041.82,443.89,1051.595,442.6862,1046.1066,441.3161,1047.4767,435.8276,1041.82,443.89" style="stroke:#181818;stroke-width:1;"/></g><!--link console to launcher--><g class="link" data-entity-1="console" data-entity-2="launcher" data-source-line="69" data-uid="lnk41" id="link_console_launcher"><path d="M392.1,77.85 C429.4,88.05 468.4,106.31 491,139 C529.99,195.4 503.1427,276.7948 485.7927,317.2948" fill="none" id="console-to-launcher" style="stroke:#181818;stroke-width:1;stroke-dasharray:7.0,7.0;"/><polygon fill="#181818" points="483.43,322.81,490.6509,316.1123,485.3989,318.214,483.2972,312.962,483.43,322.81" style="stroke:#181818;stroke-width:1;"/></g><!--link console to reporting--><g class="link" data-entity-1="console" data-entity-2="reporting" data-source-line="70" data-uid="lnk42" id="link_console_reporting"><path d="M272.02,87.02 C245.03,112.9 204.831,151.4376 177.681,177.4676" fill="none" id="console-to-reporting" style="stroke:#181818;stroke-width:1;stroke-dasharray:7.0,7.0;"/><polygon fill="#181818" points="173.35,181.62,182.6148,178.2788,176.9592,178.1597,177.0783,172.5041,173.35,181.62" style="stroke:#181818;stroke-width:1;"/></g><!--link launcher to engine--><g class="link" data-entity-1="launcher" data-entity-2="engine" data-source-line="72" data-uid="lnk43" id="link_launcher_engine"><path d="M516.28,369.1 C558,390.41 615.4361,419.7518 657.2161,441.0818" fill="none" id="launcher-to-engine" style="stroke:#181818;stroke-width:1;stroke-dasharray:7.0,7.0;"/><polygon fill="#181818" points="662.56,443.81,656.363,436.1551,658.1068,441.5365,652.7254,443.2803,662.56,443.81" style="stroke:#181818;stroke-width:1;"/></g><!--link engine to opentest4j--><g class="link" data-entity-1="engine" data-entity-2="opentest4j" data-source-line="74" data-uid="lnk44" id="link_engine_opentest4j"><path d="M655.74,490.02 C630.37,503.69 601.37,523.7 584,550 C549.49,602.26 546.1049,673.3611 546.8249,710.8711" fill="none" id="engine-to-opentest4j" style="stroke:#181818;stroke-width:1;stroke-dasharray:7.0,7.0;"/><polygon fill="#181818" points="546.94,716.87,550.7665,707.7949,546.844,711.8709,542.768,707.9484,546.94,716.87" style="stroke:#181818;stroke-width:1;"/></g><!--link engine to commons--><g class="link" data-entity-1="engine" data-entity-2="commons" data-source-line="75" data-uid="lnk45" id="link_engine_commons"><path d="M706,490.06 C706,507.7 706,526.34 706,543.98" fill="none" id="engine-to-commons" style="stroke:#181818;stroke-width:1;stroke-dasharray:7.0,7.0;"/><polygon fill="#181818" points="706,549.98,710,540.98,706,544.98,702,540.98,706,549.98" style="stroke:#181818;stroke-width:1;"/></g><!--link reporting to launcher--><g class="link" data-entity-1="reporting" data-entity-2="launcher" data-source-line="77" data-uid="lnk46" id="link_reporting_launcher"><path d="M177.84,228.31 C201.45,246.3 236.84,271.14 271,287 C303.18,301.95 334.2705,312.3347 367.6405,321.4147" fill="none" id="reporting-to-launcher" style="stroke:#181818;stroke-width:1;stroke-dasharray:7.0,7.0;"/><polygon fill="#181818" points="373.43,322.99,365.796,316.7673,368.6054,321.6772,363.6955,324.4867,373.43,322.99" style="stroke:#181818;stroke-width:1;"/></g><!--link reporting to otr_tooling_spi--><g class="link" data-entity-1="reporting" data-entity-2="otr_tooling_spi" data-source-line="78" data-uid="lnk47" id="link_reporting_otr_tooling_spi"><path d="M150,228.26 C150,273.2 150,377.98 150,466 C150,466 150,466 150,574 C150,625.13 150,679.18 150,710.85" fill="none" id="reporting-to-otr_tooling_spi" style="stroke:#181818;stroke-width:1;stroke-dasharray:7.0,7.0;"/><polygon fill="#181818" points="150,716.85,154,707.85,150,711.85,146,707.85,150,716.85" style="stroke:#181818;stroke-width:1;"/></g><!--link suite to suite_api--><g class="link" data-entity-1="suite" data-entity-2="suite_api" data-source-line="80" data-uid="lnk48" id="link_suite_suite_api"><path d="M737.89,87.12 C758.13,99.34 779.72,116.63 791,139 C820.61,197.74 821.06,228.49 791,287 C783.33,301.92 774.8623,310.562 761.0623,319.642" fill="none" id="suite-to-suite_api" style="stroke:#181818;stroke-width:1;stroke-dasharray:7.0,7.0;"/><polygon fill="#181818" points="756.05,322.94,765.7671,321.3346,760.2269,320.1917,761.3698,314.6515,756.05,322.94" style="stroke:#181818;stroke-width:1;"/></g><!--link suite to suite_engine--><g class="link" data-entity-1="suite" data-entity-2="suite_engine" data-source-line="81" data-uid="lnk49" id="link_suite_suite_engine"><path d="M686.09,87.02 C680.32,112.9 672.1071,149.7341 666.2971,175.7641" fill="none" id="suite-to-suite_engine" style="stroke:#181818;stroke-width:1;stroke-dasharray:7.0,7.0;"/><polygon fill="#181818" points="664.99,181.62,670.8545,173.7075,666.0792,176.7401,663.0467,171.9648,664.99,181.62" style="stroke:#181818;stroke-width:1;"/></g><!--link suite_engine to launcher--><g class="link" data-entity-1="suite_engine" data-entity-2="launcher" data-source-line="83" data-uid="lnk50" id="link_suite_engine_launcher"><path d="M630.37,228.02 C595.46,253.98 542.6053,293.2605 507.6153,319.2705" fill="none" id="suite_engine-to-launcher" style="stroke:#181818;stroke-width:1;stroke-dasharray:7.0,7.0;"/><polygon fill="#181818" points="502.8,322.85,512.4093,320.691,506.8128,319.8671,507.6366,314.2706,502.8,322.85" style="stroke:#181818;stroke-width:1;"/></g><!--link suite_engine to suite_api--><g class="link" data-entity-1="suite_engine" data-entity-2="suite_api" data-source-line="84" data-uid="lnk51" id="link_suite_engine_suite_api"><path d="M667.92,228.02 C677.23,253.9 690.5598,290.9439 699.9198,316.9739" fill="none" id="suite_engine-to-suite_api" style="stroke:#181818;stroke-width:1;stroke-dasharray:7.0,7.0;"/><polygon fill="#181818" points="701.95,322.62,702.6687,312.7974,700.2581,317.9149,695.1406,315.5044,701.95,322.62" style="stroke:#181818;stroke-width:1;"/></g><!--link testkit to opentest4j--><g class="link" data-entity-1="testkit" data-entity-2="opentest4j" data-source-line="86" data-uid="lnk52" id="link_testkit_opentest4j"><path d="M371.98,228.18 C354.79,272.55 319,375.74 319,466 C319,466 319,466 319,574 C319,658.28 416.6336,702.0312 484.4736,722.8312" fill="none" id="testkit-to-opentest4j" style="stroke:#181818;stroke-width:1;stroke-dasharray:7.0,7.0;"/><polygon fill="#181818" points="490.21,724.59,482.7779,718.1275,485.4296,723.1243,480.4328,725.7761,490.21,724.59" style="stroke:#181818;stroke-width:1;"/></g><!--link testkit to launcher--><g class="link" data-entity-1="testkit" data-entity-2="launcher" data-source-line="87" data-uid="lnk53" id="link_testkit_launcher"><path d="M395.58,228.02 C412.7,253.9 437.6482,291.5868 454.8782,317.6168" fill="none" id="testkit-to-launcher" style="stroke:#181818;stroke-width:1;stroke-dasharray:7.0,7.0;"/><polygon fill="#181818" points="458.19,322.62,456.5578,312.9073,455.4302,318.4507,449.8869,317.323,458.19,322.62" style="stroke:#181818;stroke-width:1;"/></g><!--link vintage_engine to engine--><g class="link" data-entity-1="vintage_engine" data-entity-2="engine" data-source-line="89" data-uid="lnk54" id="link_vintage_engine_engine"><path d="M946.7,228.13 C926.73,265.61 882.18,342.4 828,393 C805.9,413.64 782.3245,428.436 758.2045,441.186" fill="none" id="vintage_engine-to-engine" style="stroke:#181818;stroke-width:1;stroke-dasharray:7.0,7.0;"/><polygon fill="#181818" points="752.9,443.99,762.7261,443.3203,757.3204,441.6533,758.9874,436.2477,752.9,443.99" style="stroke:#181818;stroke-width:1;"/></g><!--link vintage_engine to junit4--><g class="link" data-entity-1="vintage_engine" data-entity-2="junit4" data-source-line="90" data-uid="lnk55" id="link_vintage_engine_junit4"><path d="M962.01,228.17 C970.89,277.29 991.0627,388.9157 999.9327,437.9857" fill="none" id="vintage_engine-to-junit4" style="stroke:#181818;stroke-width:1;stroke-dasharray:7.0,7.0;"/><polygon fill="#181818" points="1001,443.89,1003.3353,434.322,1000.1106,438.9697,995.4629,435.745,1001,443.89" style="stroke:#181818;stroke-width:1;"/></g><!--SRC=[bLMnZfmm4Etz5TQbXcgh52UbIP4YLL95fzKi3E1Ri94zN7AAykynnZOsU2E5WhNVl1bctjYpvYxa31ec_fjn-xJOmJBIPoNfAqp83KXJ6TIYOtyOcw6vGuzSwRv-NQGW-vu5eVRUFnnOUV25W-5-NJ1NC8kKShNx4WrbBoHcp0qgaLqj9YDlK8ayYLu32INDCizAK-OMZLTlBGlm9YIjI2Q01zFKFHHIByQQHw1EwIaF5j2gKTDaStNX_Fe1JnerekUvTP6NP7SMDB96M6Gp-6w6JP6fSPL9oDvHuwx8DOiLsV7SwZ4ddXAtEvwH0pUfQAF_eov2GtUnzTolqwuyVVbkwVpob3NZetlxSs9NbsCZrOnoZNPv3NuxylAON4UrKZUNuovhHKgDww_naYZILuzTBNOCRxNg5z2j01cY9b0KDi4SIIf2VbD4QkAgIytymyyXD6jzFeqZ1vjQ1mtPC_IhmPcYCL42PCiJ-I9bW3VaO6UEfROectUk9AT1cCW8qMl-RK2ERO_6UKN23L5oDGaYR7cdRSgPlyswNuURxRWrhEFiRhNfebqZj70Jew3tse4saRN-LSemskhwEHjH9TpFc9B97q6MXB3sbR4hT3G-n_lDyZ2RqOSycV8yMPxSephEW-w_c8xgRWBpiyQvnq6HWlj8OC7EathONcEkJb9Wr6M_CDddKjZ7ELmIvYQ3yzf7oX4B6QMx_4CdonwC-N5oBcGt995O_jUGjVXaYch_1G00]--></g></svg>