<svg xmlns="http://www.w3.org/2000/svg" xmlns:xlink="http://www.w3.org/1999/xlink" contentStyleType="text/css" data-diagram-type="DESCRIPTION" height="913px" preserveAspectRatio="none" style="width:2179px;height:913px;background:#FFFFFF;" version="1.1" viewBox="0 0 2179 913" width="2179px" zoomAndPan="magnify"><defs/><g><!--cluster org.junit.jupiter--><g class="cluster" data-entity="org.junit.jupiter" data-source-line="6" data-uid="ent0002" id="cluster_org.junit.jupiter"><path d="M1179.5,147 L1306.582,147 A3.75,3.75 0 0 1 1309.082,149.5 L1316.082,169.2969 L1915.5,169.2969 A2.5,2.5 0 0 1 1918,171.7969 L1918,509.5 A2.5,2.5 0 0 1 1915.5,512 L1179.5,512 A2.5,2.5 0 0 1 1177,509.5 L1177,149.5 A2.5,2.5 0 0 1 1179.5,147" fill="none" style="stroke:#000000;stroke-width:1.5;"/><line style="stroke:#000000;stroke-width:1.5;" x1="1177" x2="1316.082" y1="169.2969" y2="169.2969"/><text fill="#000000" font-family="sans-serif" font-size="14" font-weight="bold" lengthAdjust="spacing" textLength="126.082" x="1181" y="161.9951">org.junit.jupiter</text></g><!--cluster org.junit.vintage--><g class="cluster" data-entity="org.junit.vintage" data-source-line="14" data-uid="ent0008" id="cluster_org.junit.vintage"><path d="M941.5,303 L1075.4521,303 A3.75,3.75 0 0 1 1077.9521,305.5 L1084.9521,325.2969 L1150.5,325.2969 A2.5,2.5 0 0 1 1153,327.7969 L1153,397.5 A2.5,2.5 0 0 1 1150.5,400 L941.5,400 A2.5,2.5 0 0 1 939,397.5 L939,305.5 A2.5,2.5 0 0 1 941.5,303" fill="none" style="stroke:#000000;stroke-width:1.5;"/><line style="stroke:#000000;stroke-width:1.5;" x1="939" x2="1084.9521" y1="325.2969" y2="325.2969"/><text fill="#000000" font-family="sans-serif" font-size="14" font-weight="bold" lengthAdjust="spacing" textLength="132.9521" x="943" y="317.9951">org.junit.vintage</text></g><!--cluster org.junit.platform--><g class="cluster" data-entity="org.junit.platform" data-source-line="18" data-uid="ent0010" id="cluster_org.junit.platform"><path d="M33.5,6 L176.0654,6 A3.75,3.75 0 0 1 178.5654,8.5 L185.5654,28.2969 L844.5,28.2969 A2.5,2.5 0 0 1 847,30.7969 L847,736.5 A2.5,2.5 0 0 1 844.5,739 L33.5,739 A2.5,2.5 0 0 1 31,736.5 L31,8.5 A2.5,2.5 0 0 1 33.5,6" fill="none" style="stroke:#000000;stroke-width:1.5;"/><line style="stroke:#000000;stroke-width:1.5;" x1="31" x2="185.5654" y1="28.2969" y2="28.2969"/><text fill="#000000" font-family="sans-serif" font-size="14" font-weight="bold" lengthAdjust="spacing" textLength="141.5654" x="35" y="20.9951">org.junit.platform</text></g><!--cluster JUnit 4--><g class="cluster" data-entity="JUnit 4" data-source-line="31" data-uid="ent0021" id="cluster_JUnit 4"><path d="M1041.5,536 L1095.1504,536 A3.75,3.75 0 0 1 1097.6504,538.5 L1104.6504,558.2969 L1174.5,558.2969 A2.5,2.5 0 0 1 1177,560.7969 L1177,630.5 A2.5,2.5 0 0 1 1174.5,633 L1041.5,633 A2.5,2.5 0 0 1 1039,630.5 L1039,538.5 A2.5,2.5 0 0 1 1041.5,536" fill="none" style="stroke:#000000;stroke-width:1.5;"/><line style="stroke:#000000;stroke-width:1.5;" x1="1039" x2="1104.6504" y1="558.2969" y2="558.2969"/><text fill="#000000" font-family="sans-serif" font-size="14" font-weight="bold" lengthAdjust="spacing" textLength="52.6504" x="1043" y="550.9951">JUnit 4</text></g><!--cluster org.opentest4j--><g class="cluster" data-entity="org.opentest4j" data-source-line="35" data-uid="ent0023" id="cluster_org.opentest4j"><path d="M496.5,809 L614.2168,809 A3.75,3.75 0 0 1 616.7168,811.5 L623.7168,831.2969 L639.5,831.2969 A2.5,2.5 0 0 1 642,833.7969 L642,903.5 A2.5,2.5 0 0 1 639.5,906 L496.5,906 A2.5,2.5 0 0 1 494,903.5 L494,811.5 A2.5,2.5 0 0 1 496.5,809" fill="none" style="stroke:#000000;stroke-width:1.5;"/><line style="stroke:#000000;stroke-width:1.5;" x1="494" x2="623.7168" y1="831.2969" y2="831.2969"/><text fill="#000000" font-family="sans-serif" font-size="14" font-weight="bold" lengthAdjust="spacing" textLength="116.7168" x="498" y="823.9951">org.opentest4j</text></g><!--cluster org.opentest4j.reporting--><g class="cluster" data-entity="org.opentest4j.reporting" data-source-line="39" data-uid="ent0025" id="cluster_org.opentest4j.reporting"><path d="M8.5,809 L205.958,809 A3.75,3.75 0 0 1 208.458,811.5 L215.458,831.2969 L291.5,831.2969 A2.5,2.5 0 0 1 294,833.7969 L294,903.5 A2.5,2.5 0 0 1 291.5,906 L8.5,906 A2.5,2.5 0 0 1 6,903.5 L6,811.5 A2.5,2.5 0 0 1 8.5,809" fill="none" style="stroke:#000000;stroke-width:1.5;"/><line style="stroke:#000000;stroke-width:1.5;" x1="6" x2="215.458" y1="831.2969" y2="831.2969"/><text fill="#000000" font-family="sans-serif" font-size="14" font-weight="bold" lengthAdjust="spacing" textLength="196.458" x="10" y="823.9951">org.opentest4j.reporting</text></g><!--cluster org.apiguardian--><g class="cluster" data-entity="org.apiguardian" data-source-line="43" data-uid="ent0027" id="cluster_org.apiguardian"><path d="M1944.5,6 L2072.2041,6 A3.75,3.75 0 0 1 2074.7041,8.5 L2081.7041,28.2969 L2169.5,28.2969 A2.5,2.5 0 0 1 2172,30.7969 L2172,276.5 A2.5,2.5 0 0 1 2169.5,279 L1944.5,279 A2.5,2.5 0 0 1 1942,276.5 L1942,8.5 A2.5,2.5 0 0 1 1944.5,6" fill="none" style="stroke:#000000;stroke-width:1.5;"/><line style="stroke:#000000;stroke-width:1.5;" x1="1942" x2="2081.7041" y1="28.2969" y2="28.2969"/><text fill="#000000" font-family="sans-serif" font-size="14" font-weight="bold" lengthAdjust="spacing" textLength="126.7041" x="1946" y="20.9951">org.apiguardian</text></g><!--entity jupiter--><g class="entity" data-entity="jupiter" data-source-line="7" data-uid="ent0003" id="entity_jupiter"><rect fill="#F1F1F1" height="46.2969" rx="2.5" ry="2.5" style="stroke:#181818;stroke-width:0.5;" width="121.4639" x="1714.5" y="182"/><rect fill="#F1F1F1" height="10" style="stroke:#181818;stroke-width:0.5;" width="15" x="1815.9639" y="187"/><rect fill="#F1F1F1" height="2" style="stroke:#181818;stroke-width:0.5;" width="4" x="1813.9639" y="189"/><rect fill="#F1F1F1" height="2" style="stroke:#181818;stroke-width:0.5;" width="4" x="1813.9639" y="193"/><text fill="#000000" font-family="sans-serif" font-size="14" lengthAdjust="spacing" textLength="81.4639" x="1729.5" y="214.9951">junit-jupiter</text></g><!--entity jupiter_api--><g class="entity" data-entity="jupiter_api" data-source-line="8" data-uid="ent0004" id="entity_jupiter_api"><rect fill="#F1F1F1" height="46.2969" rx="2.5" ry="2.5" style="stroke:#181818;stroke-width:0.5;" width="147.8711" x="1435" y="450"/><rect fill="#F1F1F1" height="10" style="stroke:#181818;stroke-width:0.5;" width="15" x="1562.8711" y="455"/><rect fill="#F1F1F1" height="2" style="stroke:#181818;stroke-width:0.5;" width="4" x="1560.8711" y="457"/><rect fill="#F1F1F1" height="2" style="stroke:#181818;stroke-width:0.5;" width="4" x="1560.8711" y="461"/><text fill="#000000" font-family="sans-serif" font-size="14" lengthAdjust="spacing" textLength="107.8711" x="1450" y="482.9951">junit-jupiter-api</text></g><!--entity jupiter_engine--><g class="entity" data-entity="jupiter_engine" data-source-line="9" data-uid="ent0005" id="entity_jupiter_engine"><rect fill="#F1F1F1" height="46.2969" rx="2.5" ry="2.5" style="stroke:#181818;stroke-width:0.5;" width="174.2646" x="1193" y="338"/><rect fill="#F1F1F1" height="10" style="stroke:#181818;stroke-width:0.5;" width="15" x="1347.2646" y="343"/><rect fill="#F1F1F1" height="2" style="stroke:#181818;stroke-width:0.5;" width="4" x="1345.2646" y="345"/><rect fill="#F1F1F1" height="2" style="stroke:#181818;stroke-width:0.5;" width="4" x="1345.2646" y="349"/><text fill="#000000" font-family="sans-serif" font-size="14" lengthAdjust="spacing" textLength="134.2646" x="1208" y="370.9951">junit-jupiter-engine</text></g><!--entity jupiter_params--><g class="entity" data-entity="jupiter_params" data-source-line="10" data-uid="ent0006" id="entity_jupiter_params"><rect fill="#F1F1F1" height="46.2969" rx="2.5" ry="2.5" style="stroke:#181818;stroke-width:0.5;" width="179.248" x="1685.5" y="338"/><rect fill="#F1F1F1" height="10" style="stroke:#181818;stroke-width:0.5;" width="15" x="1844.748" y="343"/><rect fill="#F1F1F1" height="2" style="stroke:#181818;stroke-width:0.5;" width="4" x="1842.748" y="345"/><rect fill="#F1F1F1" height="2" style="stroke:#181818;stroke-width:0.5;" width="4" x="1842.748" y="349"/><text fill="#000000" font-family="sans-serif" font-size="14" lengthAdjust="spacing" textLength="139.248" x="1700.5" y="370.9951">junit-jupiter-params</text></g><!--entity jupiter_migration_support--><g class="entity" data-entity="jupiter_migration_support" data-source-line="11" data-uid="ent0007" id="entity_jupiter_migration_support"><rect fill="#F1F1F1" height="46.2969" rx="2.5" ry="2.5" style="stroke:#181818;stroke-width:0.5;" width="247.833" x="1402" y="338"/><rect fill="#F1F1F1" height="10" style="stroke:#181818;stroke-width:0.5;" width="15" x="1629.833" y="343"/><rect fill="#F1F1F1" height="2" style="stroke:#181818;stroke-width:0.5;" width="4" x="1627.833" y="345"/><rect fill="#F1F1F1" height="2" style="stroke:#181818;stroke-width:0.5;" width="4" x="1627.833" y="349"/><text fill="#000000" font-family="sans-serif" font-size="14" lengthAdjust="spacing" textLength="207.833" x="1417" y="370.9951">junit-jupiter-migrationsupport</text></g><!--entity vintage_engine--><g class="entity" data-entity="vintage_engine" data-source-line="15" data-uid="ent0009" id="entity_vintage_engine"><rect fill="#F1F1F1" height="46.2969" rx="2.5" ry="2.5" style="stroke:#181818;stroke-width:0.5;" width="181.4834" x="955.5" y="338"/><rect fill="#F1F1F1" height="10" style="stroke:#181818;stroke-width:0.5;" width="15" x="1116.9834" y="343"/><rect fill="#F1F1F1" height="2" style="stroke:#181818;stroke-width:0.5;" width="4" x="1114.9834" y="345"/><rect fill="#F1F1F1" height="2" style="stroke:#181818;stroke-width:0.5;" width="4" x="1114.9834" y="349"/><text fill="#000000" font-family="sans-serif" font-size="14" lengthAdjust="spacing" textLength="141.4834" x="970.5" y="370.9951">junit-vintage-engine</text></g><!--entity commons--><g class="entity" data-entity="commons" data-source-line="19" data-uid="ent0011" id="entity_commons"><rect fill="#F1F1F1" height="46.2969" rx="2.5" ry="2.5" style="stroke:#181818;stroke-width:0.5;" width="209.1211" x="621.5" y="677"/><rect fill="#F1F1F1" height="10" style="stroke:#181818;stroke-width:0.5;" width="15" x="810.6211" y="682"/><rect fill="#F1F1F1" height="2" style="stroke:#181818;stroke-width:0.5;" width="4" x="808.6211" y="684"/><rect fill="#F1F1F1" height="2" style="stroke:#181818;stroke-width:0.5;" width="4" x="808.6211" y="688"/><text fill="#000000" font-family="sans-serif" font-size="14" lengthAdjust="spacing" textLength="169.1211" x="636.5" y="709.9951">junit-platform-commons</text></g><!--entity console--><g class="entity" data-entity="console" data-source-line="20" data-uid="ent0012" id="entity_console"><rect fill="#F1F1F1" height="46.2969" rx="2.5" ry="2.5" style="stroke:#181818;stroke-width:0.5;" width="194.3486" x="190" y="182"/><rect fill="#F1F1F1" height="10" style="stroke:#181818;stroke-width:0.5;" width="15" x="364.3486" y="187"/><rect fill="#F1F1F1" height="2" style="stroke:#181818;stroke-width:0.5;" width="4" x="362.3486" y="189"/><rect fill="#F1F1F1" height="2" style="stroke:#181818;stroke-width:0.5;" width="4" x="362.3486" y="193"/><text fill="#000000" font-family="sans-serif" font-size="14" lengthAdjust="spacing" textLength="154.3486" x="205" y="214.9951">junit-platform-console</text></g><!--entity engine--><g class="entity" data-entity="engine" data-source-line="21" data-uid="ent0013" id="entity_engine"><rect fill="#F1F1F1" height="46.2969" rx="2.5" ry="2.5" style="stroke:#181818;stroke-width:0.5;" width="188.5996" x="631.5" y="571"/><rect fill="#F1F1F1" height="10" style="stroke:#181818;stroke-width:0.5;" width="15" x="800.0996" y="576"/><rect fill="#F1F1F1" height="2" style="stroke:#181818;stroke-width:0.5;" width="4" x="798.0996" y="578"/><rect fill="#F1F1F1" height="2" style="stroke:#181818;stroke-width:0.5;" width="4" x="798.0996" y="582"/><text fill="#000000" font-family="sans-serif" font-size="14" lengthAdjust="spacing" textLength="148.5996" x="646.5" y="603.9951">junit-platform-engine</text></g><!--entity launcher--><g class="entity" data-entity="launcher" data-source-line="22" data-uid="ent0014" id="entity_launcher"><rect fill="#F1F1F1" height="46.2969" rx="2.5" ry="2.5" style="stroke:#181818;stroke-width:0.5;" width="202.0049" x="392" y="450"/><rect fill="#F1F1F1" height="10" style="stroke:#181818;stroke-width:0.5;" width="15" x="574.0049" y="455"/><rect fill="#F1F1F1" height="2" style="stroke:#181818;stroke-width:0.5;" width="4" x="572.0049" y="457"/><rect fill="#F1F1F1" height="2" style="stroke:#181818;stroke-width:0.5;" width="4" x="572.0049" y="461"/><text fill="#000000" font-family="sans-serif" font-size="14" lengthAdjust="spacing" textLength="162.0049" x="407" y="482.9951">junit-platform-launcher</text></g><!--entity reporting--><g class="entity" data-entity="reporting" data-source-line="23" data-uid="ent0015" id="entity_reporting"><rect fill="#F1F1F1" height="46.2969" rx="2.5" ry="2.5" style="stroke:#181818;stroke-width:0.5;" width="205.5664" x="47" y="338"/><rect fill="#F1F1F1" height="10" style="stroke:#181818;stroke-width:0.5;" width="15" x="232.5664" y="343"/><rect fill="#F1F1F1" height="2" style="stroke:#181818;stroke-width:0.5;" width="4" x="230.5664" y="345"/><rect fill="#F1F1F1" height="2" style="stroke:#181818;stroke-width:0.5;" width="4" x="230.5664" y="349"/><text fill="#000000" font-family="sans-serif" font-size="14" lengthAdjust="spacing" textLength="165.5664" x="62" y="370.9951">junit-platform-reporting</text></g><!--entity suite--><g class="entity" data-entity="suite" data-source-line="24" data-uid="ent0016" id="entity_suite"><rect fill="#F1F1F1" height="46.2969" rx="2.5" ry="2.5" style="stroke:#181818;stroke-width:0.5;" width="175.0098" x="621.5" y="41"/><rect fill="#F1F1F1" height="10" style="stroke:#181818;stroke-width:0.5;" width="15" x="776.5098" y="46"/><rect fill="#F1F1F1" height="2" style="stroke:#181818;stroke-width:0.5;" width="4" x="774.5098" y="48"/><rect fill="#F1F1F1" height="2" style="stroke:#181818;stroke-width:0.5;" width="4" x="774.5098" y="52"/><text fill="#000000" font-family="sans-serif" font-size="14" lengthAdjust="spacing" textLength="135.0098" x="636.5" y="73.9951">junit-platform-suite</text></g><!--entity suite_api--><g class="entity" data-entity="suite_api" data-source-line="25" data-uid="ent0017" id="entity_suite_api"><rect fill="#F1F1F1" height="46.2969" rx="2.5" ry="2.5" style="stroke:#181818;stroke-width:0.5;" width="201.417" x="629.5" y="450"/><rect fill="#F1F1F1" height="10" style="stroke:#181818;stroke-width:0.5;" width="15" x="810.917" y="455"/><rect fill="#F1F1F1" height="2" style="stroke:#181818;stroke-width:0.5;" width="4" x="808.917" y="457"/><rect fill="#F1F1F1" height="2" style="stroke:#181818;stroke-width:0.5;" width="4" x="808.917" y="461"/><text fill="#000000" font-family="sans-serif" font-size="14" lengthAdjust="spacing" textLength="161.417" x="644.5" y="482.9951">junit-platform-suite-api</text></g><!--entity suite_commons--><g class="entity" data-entity="suite_commons" data-source-line="26" data-uid="ent0018" id="entity_suite_commons"><rect fill="#F1F1F1" height="46.2969" rx="2.5" ry="2.5" style="stroke:#181818;stroke-width:0.5;" width="248.332" x="546" y="338"/><rect fill="#F1F1F1" height="10" style="stroke:#181818;stroke-width:0.5;" width="15" x="774.332" y="343"/><rect fill="#F1F1F1" height="2" style="stroke:#181818;stroke-width:0.5;" width="4" x="772.332" y="345"/><rect fill="#F1F1F1" height="2" style="stroke:#181818;stroke-width:0.5;" width="4" x="772.332" y="349"/><text fill="#000000" font-family="sans-serif" font-size="14" lengthAdjust="spacing" textLength="208.332" x="561" y="370.9951">junit-platform-suite-commons</text></g><!--entity suite_engine--><g class="entity" data-entity="suite_engine" data-source-line="27" data-uid="ent0019" id="entity_suite_engine"><rect fill="#F1F1F1" height="46.2969" rx="2.5" ry="2.5" style="stroke:#181818;stroke-width:0.5;" width="227.8105" x="561" y="182"/><rect fill="#F1F1F1" height="10" style="stroke:#181818;stroke-width:0.5;" width="15" x="768.8105" y="187"/><rect fill="#F1F1F1" height="2" style="stroke:#181818;stroke-width:0.5;" width="4" x="766.8105" y="189"/><rect fill="#F1F1F1" height="2" style="stroke:#181818;stroke-width:0.5;" width="4" x="766.8105" y="193"/><text fill="#000000" font-family="sans-serif" font-size="14" lengthAdjust="spacing" textLength="187.8105" x="576" y="214.9951">junit-platform-suite-engine</text></g><!--entity testkit--><g class="entity" data-entity="testkit" data-source-line="28" data-uid="ent0020" id="entity_testkit"><rect fill="#F1F1F1" height="46.2969" rx="2.5" ry="2.5" style="stroke:#181818;stroke-width:0.5;" width="185.2227" x="288.5" y="338"/><rect fill="#F1F1F1" height="10" style="stroke:#181818;stroke-width:0.5;" width="15" x="453.7227" y="343"/><rect fill="#F1F1F1" height="2" style="stroke:#181818;stroke-width:0.5;" width="4" x="451.7227" y="345"/><rect fill="#F1F1F1" height="2" style="stroke:#181818;stroke-width:0.5;" width="4" x="451.7227" y="349"/><text fill="#000000" font-family="sans-serif" font-size="14" lengthAdjust="spacing" textLength="145.2227" x="303.5" y="370.9951">junit-platform-testkit</text></g><!--entity junit4--><g class="entity" data-entity="junit4" data-source-line="32" data-uid="ent0022" id="entity_junit4"><rect fill="#F1F1F1" height="46.2969" rx="2.5" ry="2.5" style="stroke:#181818;stroke-width:0.5;" width="106.7461" x="1054.5" y="571"/><rect fill="#F1F1F1" height="10" style="stroke:#181818;stroke-width:0.5;" width="15" x="1141.2461" y="576"/><rect fill="#F1F1F1" height="2" style="stroke:#181818;stroke-width:0.5;" width="4" x="1139.2461" y="578"/><rect fill="#F1F1F1" height="2" style="stroke:#181818;stroke-width:0.5;" width="4" x="1139.2461" y="582"/><text fill="#000000" font-family="sans-serif" font-size="14" lengthAdjust="spacing" textLength="66.7461" x="1069.5" y="603.9951">junit:junit</text></g><!--entity opentest4j--><g class="entity" data-entity="opentest4j" data-source-line="36" data-uid="ent0024" id="entity_opentest4j"><rect fill="#F1F1F1" height="46.2969" rx="2.5" ry="2.5" style="stroke:#181818;stroke-width:0.5;" width="114.6211" x="510.5" y="844"/><rect fill="#F1F1F1" height="10" style="stroke:#181818;stroke-width:0.5;" width="15" x="605.1211" y="849"/><rect fill="#F1F1F1" height="2" style="stroke:#181818;stroke-width:0.5;" width="4" x="603.1211" y="851"/><rect fill="#F1F1F1" height="2" style="stroke:#181818;stroke-width:0.5;" width="4" x="603.1211" y="855"/><text fill="#000000" font-family="sans-serif" font-size="14" lengthAdjust="spacing" textLength="74.6211" x="525.5" y="876.9951">opentest4j</text></g><!--entity otr_tooling_spi--><g class="entity" data-entity="otr_tooling_spi" data-source-line="40" data-uid="ent0026" id="entity_otr_tooling_spi"><rect fill="#F1F1F1" height="46.2969" rx="2.5" ry="2.5" style="stroke:#181818;stroke-width:0.5;" width="254.9766" x="22.5" y="844"/><rect fill="#F1F1F1" height="10" style="stroke:#181818;stroke-width:0.5;" width="15" x="257.4766" y="849"/><rect fill="#F1F1F1" height="2" style="stroke:#181818;stroke-width:0.5;" width="4" x="255.4766" y="851"/><rect fill="#F1F1F1" height="2" style="stroke:#181818;stroke-width:0.5;" width="4" x="255.4766" y="855"/><text fill="#000000" font-family="sans-serif" font-size="14" lengthAdjust="spacing" textLength="214.9766" x="37.5" y="876.9951">open-test-reporting-tooling-spi</text></g><!--entity apiguardian--><g class="entity" data-entity="apiguardian" data-source-line="44" data-uid="ent0028" id="entity_apiguardian"><rect fill="#F1F1F1" height="46.2969" rx="2.5" ry="2.5" style="stroke:#181818;stroke-width:0.5;" width="150.0859" x="1982" y="41"/><rect fill="#F1F1F1" height="10" style="stroke:#181818;stroke-width:0.5;" width="15" x="2112.0859" y="46"/><rect fill="#F1F1F1" height="2" style="stroke:#181818;stroke-width:0.5;" width="4" x="2110.0859" y="48"/><rect fill="#F1F1F1" height="2" style="stroke:#181818;stroke-width:0.5;" width="4" x="2110.0859" y="52"/><text fill="#000000" font-family="sans-serif" font-size="14" lengthAdjust="spacing" textLength="110.0859" x="1997" y="73.9951">apiguardian-api</text></g><g class="entity" data-entity="GMN29" data-source-line="46" data-uid="ent0030" id="entity_GMN29"><path d="M1958.5,147 L1958.5,262.9297 A0,0 0 0 0 1958.5,262.9297 L2155.876,262.9297 A0,0 0 0 0 2155.876,262.9297 L2155.876,157 L2145.876,147 L2061,147 L2057,87.02 L2053,147 L1958.5,147 A0,0 0 0 0 1958.5,147" fill="#FFFFFF" style="stroke:#181818;stroke-width:0.5;"/><path d="M2145.876,147 L2145.876,157 L2155.876,157 L2145.876,147" fill="#FFFFFF" style="stroke:#181818;stroke-width:0.5;"/><text fill="#000000" font-family="sans-serif" font-size="13" lengthAdjust="spacing" textLength="122.1479" x="1964.5" y="164.0669">All artifacts except</text><text fill="#000000" font-family="sans-serif" font-size="13" lengthAdjust="spacing" textLength="163.9917" x="1964.5" y="179.1997">opentest4j and junit:junit</text><text fill="#000000" font-family="sans-serif" font-size="13" lengthAdjust="spacing" textLength="176.376" x="1964.5" y="194.3325">have a dependency on this</text><text fill="#000000" font-family="sans-serif" font-size="13" lengthAdjust="spacing" textLength="158.6851" x="1964.5" y="209.4653">artifact. The edges have</text><text fill="#000000" font-family="sans-serif" font-size="13" lengthAdjust="spacing" textLength="149.8174" x="1964.5" y="224.5981">been omitted from this</text><text fill="#000000" font-family="sans-serif" font-size="13" lengthAdjust="spacing" textLength="152.5913" x="1964.5" y="239.731">diagram for the sake of</text><text fill="#000000" font-family="sans-serif" font-size="13" lengthAdjust="spacing" textLength="73.5376" x="1964.5" y="254.8638">readability.</text></g><!--entity jfr--><g class="entity" data-entity="jfr" data-source-line="75" data-uid="ent0045" id="entity_jfr"><ellipse cx="893" cy="361" fill="#F1F1F1" rx="8" ry="8" style="stroke:#181818;stroke-width:0.5;"/><text fill="#000000" font-family="sans-serif" font-size="14" lengthAdjust="spacing" textLength="14.5742" x="885.7129" y="390.9951">jfr</text></g><!--link jupiter to jupiter_api--><g class="link" data-entity-1="jupiter" data-entity-2="jupiter_api" data-source-line="56" data-uid="lnk32" id="link_jupiter_jupiter_api"><path d="M1816.46,228.09 C1840.43,243.36 1868.46,266.12 1882,295 C1903.32,340.47 1914.37,369.6 1882,408 C1844.57,452.39 1687.0145,465.7341 1589.3445,469.9041" fill="none" id="jupiter-to-jupiter_api" style="stroke:#181818;stroke-width:1;stroke-dasharray:7.0,7.0;"/><polygon fill="#181818" points="1583.35,470.16,1592.5124,473.7725,1588.3454,469.9467,1592.1712,465.7797,1583.35,470.16" style="stroke:#181818;stroke-width:1;"/></g><!--link jupiter to jupiter_params--><g class="link" data-entity-1="jupiter" data-entity-2="jupiter_params" data-source-line="57" data-uid="lnk33" id="link_jupiter_jupiter_params"><path d="M1775,228.06 C1775,257.34 1775,302.72 1775,331.98" fill="none" id="jupiter-to-jupiter_params" style="stroke:#181818;stroke-width:1;stroke-dasharray:7.0,7.0;"/><polygon fill="#181818" points="1775,337.98,1779,328.98,1775,332.98,1771,328.98,1775,337.98" style="stroke:#181818;stroke-width:1;"/></g><!--link jupiter to jupiter_engine--><g class="link" data-entity-1="jupiter" data-entity-2="jupiter_engine" data-source-line="58" data-uid="lnk34" id="link_jupiter_jupiter_engine"><path d="M1714.33,213.52 C1635.99,224.64 1496.48,249.26 1385,295 C1358.02,306.07 1335.004,320.2916 1314.724,334.4116" fill="none" id="jupiter-to-jupiter_engine" style="stroke:#181818;stroke-width:1;stroke-dasharray:7.0,7.0;"/><polygon fill="#181818" points="1309.8,337.84,1319.4717,335.9801,1313.9034,334.983,1314.9005,329.4147,1309.8,337.84" style="stroke:#181818;stroke-width:1;"/></g><!--link jupiter_api to opentest4j--><g class="link" data-entity-1="jupiter_api" data-entity-2="opentest4j" data-source-line="60" data-uid="lnk35" id="link_jupiter_api_opentest4j"><path d="M1490.43,496.07 C1459.34,531.65 1393.23,601.66 1323,641 C1084.05,774.86 762.8865,836.034 631.7565,856.744" fill="none" id="jupiter_api-to-opentest4j" style="stroke:#181818;stroke-width:1;stroke-dasharray:7.0,7.0;"/><polygon fill="#181818" points="625.83,857.68,635.3438,860.227,630.7688,856.9,634.0958,852.325,625.83,857.68" style="stroke:#181818;stroke-width:1;"/></g><!--link jupiter_api to commons--><g class="link" data-entity-1="jupiter_api" data-entity-2="commons" data-source-line="61" data-uid="lnk36" id="link_jupiter_api_commons"><path d="M1474.79,496.16 C1416.34,532.86 1292.37,605.69 1177,641 C1061.69,676.29 929.4098,689.7601 836.6298,695.1801" fill="none" id="jupiter_api-to-commons" style="stroke:#181818;stroke-width:1;stroke-dasharray:7.0,7.0;"/><polygon fill="#181818" points="830.64,695.53,839.858,698.9983,835.6315,695.2384,839.3914,691.0119,830.64,695.53" style="stroke:#181818;stroke-width:1;"/></g><!--link jupiter_engine to engine--><g class="link" data-entity-1="jupiter_engine" data-entity-2="engine" data-source-line="63" data-uid="lnk37" id="link_jupiter_engine_engine"><path d="M1231.43,384.09 C1162.25,415.35 1031.17,473.82 918,520 C874.25,537.85 829.974,554.6895 792.014,568.7995" fill="none" id="jupiter_engine-to-engine" style="stroke:#181818;stroke-width:1;stroke-dasharray:7.0,7.0;"/><polygon fill="#181818" points="786.39,570.89,796.2197,571.5036,791.0767,569.1479,793.4324,564.0049,786.39,570.89" style="stroke:#181818;stroke-width:1;"/></g><!--link jupiter_engine to jupiter_api--><g class="link" data-entity-1="jupiter_engine" data-entity-2="jupiter_api" data-source-line="64" data-uid="lnk38" id="link_jupiter_engine_jupiter_api"><path d="M1326.07,384.13 C1365.9,403.26 1417.7817,428.1818 1457.6017,447.3118" fill="none" id="jupiter_engine-to-jupiter_api" style="stroke:#181818;stroke-width:1;stroke-dasharray:7.0,7.0;"/><polygon fill="#181818" points="1463.01,449.91,1456.6297,442.4072,1458.5031,447.7448,1453.1655,449.6182,1463.01,449.91" style="stroke:#181818;stroke-width:1;"/></g><!--link jupiter_params to jupiter_api--><g class="link" data-entity-1="jupiter_params" data-entity-2="jupiter_api" data-source-line="66" data-uid="lnk39" id="link_jupiter_params_jupiter_api"><path d="M1724.48,384 C1706.67,391.69 1686.48,400.31 1668,408 C1633.8,422.23 1600.8332,435.5376 1570.2632,447.7276" fill="none" id="jupiter_params-to-jupiter_api" style="stroke:#181818;stroke-width:1;stroke-dasharray:7.0,7.0;"/><polygon fill="#181818" points="1564.69,449.95,1574.5314,450.3319,1569.3344,448.098,1571.5683,442.9009,1564.69,449.95" style="stroke:#181818;stroke-width:1;"/></g><!--link jupiter_migration_support to jupiter_api--><g class="link" data-entity-1="jupiter_migration_support" data-entity-2="jupiter_api" data-source-line="67" data-uid="lnk40" id="link_jupiter_migration_support_jupiter_api"><path d="M1522.56,384.26 C1519.61,403.34 1516.2942,424.7701 1513.3542,443.8401" fill="none" id="jupiter_migration_support-to-jupiter_api" style="stroke:#181818;stroke-width:1;stroke-dasharray:7.0,7.0;"/><polygon fill="#181818" points="1512.44,449.77,1517.7646,441.4846,1513.2018,444.8284,1509.858,440.2656,1512.44,449.77" style="stroke:#181818;stroke-width:1;"/></g><!--link jupiter_migration_support to junit4--><g class="link" data-entity-1="jupiter_migration_support" data-entity-2="junit4" data-source-line="68" data-uid="lnk41" id="link_jupiter_migration_support_junit4"><path d="M1485.92,384.15 C1406.02,428.3 1233.0114,523.9179 1153.2114,568.0179" fill="none" id="jupiter_migration_support-to-junit4" style="stroke:#181818;stroke-width:1;stroke-dasharray:7.0,7.0;"/><polygon fill="#181818" points="1147.96,570.92,1157.7719,570.0678,1152.3362,568.5016,1153.9024,563.0659,1147.96,570.92" style="stroke:#181818;stroke-width:1;"/></g><!--link console to launcher--><g class="link" data-entity-1="console" data-entity-2="launcher" data-source-line="70" data-uid="lnk42" id="link_console_launcher"><path d="M384.27,224.22 C424.3,237 466.88,258.61 491,295 C522.5,342.52 510.9547,408.3149 501.3447,444.1349" fill="none" id="console-to-launcher" style="stroke:#181818;stroke-width:1;stroke-dasharray:7.0,7.0;"/><polygon fill="#181818" points="499.79,449.93,505.9855,442.2739,501.0856,445.1008,498.2587,440.2009,499.79,449.93" style="stroke:#181818;stroke-width:1;"/></g><!--link console to reporting--><g class="link" data-entity-1="console" data-entity-2="reporting" data-source-line="71" data-uid="lnk43" id="link_console_reporting"><path d="M267.37,228.06 C241.33,257.34 199.608,304.2372 173.578,333.4972" fill="none" id="console-to-reporting" style="stroke:#181818;stroke-width:1;stroke-dasharray:7.0,7.0;"/><polygon fill="#181818" points="169.59,337.98,178.5606,333.9144,172.9133,334.2443,172.5834,328.5971,169.59,337.98" style="stroke:#181818;stroke-width:1;"/></g><!--link launcher to engine--><g class="link" data-entity-1="launcher" data-entity-2="engine" data-source-line="73" data-uid="lnk44" id="link_launcher_engine"><path d="M536.28,496.1 C578,517.41 635.4361,546.7518 677.2161,568.0818" fill="none" id="launcher-to-engine" style="stroke:#181818;stroke-width:1;stroke-dasharray:7.0,7.0;"/><polygon fill="#181818" points="682.56,570.81,676.363,563.1551,678.1068,568.5365,672.7254,570.2803,682.56,570.81" style="stroke:#181818;stroke-width:1;"/></g><!--link jfr to launcher--><g class="link" data-entity-1="jfr" data-entity-2="launcher" data-source-line="75" data-uid="lnk46" id="link_jfr_launcher"><path d="M887.23,370.34 C879.41,380.92 864.42,398.91 847,408 C752.95,457.1 716.39,431.02 612,450 C606.21,451.05 606.1716,451.058 600.1716,452.158" fill="none" id="jfr-to-launcher" style="stroke:#181818;stroke-width:1;stroke-dasharray:7.0,7.0;"/><polygon fill="#181818" points="594.27,453.24,603.8438,455.5515,599.188,452.3384,602.4011,447.6826,594.27,453.24" style="stroke:#181818;stroke-width:1;"/></g><!--link engine to opentest4j--><g class="link" data-entity-1="engine" data-entity-2="opentest4j" data-source-line="77" data-uid="lnk47" id="link_engine_opentest4j"><path d="M675.74,617.02 C650.37,630.69 621.37,650.7 604,677 C569.49,729.26 566.1049,800.3611 566.8249,837.8711" fill="none" id="engine-to-opentest4j" style="stroke:#181818;stroke-width:1;stroke-dasharray:7.0,7.0;"/><polygon fill="#181818" points="566.94,843.87,570.7665,834.7949,566.844,838.8709,562.768,834.9484,566.94,843.87" style="stroke:#181818;stroke-width:1;"/></g><!--link engine to commons--><g class="link" data-entity-1="engine" data-entity-2="commons" data-source-line="78" data-uid="lnk48" id="link_engine_commons"><path d="M726,617.06 C726,634.7 726,653.34 726,670.98" fill="none" id="engine-to-commons" style="stroke:#181818;stroke-width:1;stroke-dasharray:7.0,7.0;"/><polygon fill="#181818" points="726,676.98,730,667.98,726,671.98,722,667.98,726,676.98" style="stroke:#181818;stroke-width:1;"/></g><!--link reporting to launcher--><g class="link" data-entity-1="reporting" data-entity-2="launcher" data-source-line="80" data-uid="lnk49" id="link_reporting_launcher"><path d="M205.07,384.04 C225.63,391.97 249.25,400.75 271,408 C316.76,423.26 362.7285,436.7057 404.7485,448.3657" fill="none" id="reporting-to-launcher" style="stroke:#181818;stroke-width:1;stroke-dasharray:7.0,7.0;"/><polygon fill="#181818" points="410.53,449.97,402.9272,443.7092,405.712,448.6331,400.7882,451.4179,410.53,449.97" style="stroke:#181818;stroke-width:1;"/></g><!--link reporting to otr_tooling_spi--><g class="link" data-entity-1="reporting" data-entity-2="otr_tooling_spi" data-source-line="81" data-uid="lnk50" id="link_reporting_otr_tooling_spi"><path d="M150,384.3 C150,425.51 150,516.4 150,593 C150,593 150,593 150,701 C150,752.13 150,806.18 150,837.85" fill="none" id="reporting-to-otr_tooling_spi" style="stroke:#181818;stroke-width:1;stroke-dasharray:7.0,7.0;"/><polygon fill="#181818" points="150,843.85,154,834.85,150,838.85,146,834.85,150,843.85" style="stroke:#181818;stroke-width:1;"/></g><!--link suite to suite_api--><g class="link" data-entity-1="suite" data-entity-2="suite_api" data-source-line="83" data-uid="lnk51" id="link_suite_suite_api"><path d="M753.9,87.01 C773.89,99.34 795.48,116.76 807,139 C862.01,245.17 864.45,300.54 812,408 C803.53,425.37 792.7769,436.024 777.3569,446.474" fill="none" id="suite-to-suite_api" style="stroke:#181818;stroke-width:1;stroke-dasharray:7.0,7.0;"/><polygon fill="#181818" points="772.39,449.84,782.0843,448.1022,776.5291,447.035,777.5963,441.4797,772.39,449.84" style="stroke:#181818;stroke-width:1;"/></g><!--link suite to suite_engine--><g class="link" data-entity-1="suite" data-entity-2="suite_engine" data-source-line="84" data-uid="lnk52" id="link_suite_suite_engine"><path d="M703.61,87.02 C697.28,112.9 688.2662,149.762 681.8962,175.792" fill="none" id="suite-to-suite_engine" style="stroke:#181818;stroke-width:1;stroke-dasharray:7.0,7.0;"/><polygon fill="#181818" points="680.47,181.62,686.4947,173.8288,681.6585,176.7633,678.724,171.9271,680.47,181.62" style="stroke:#181818;stroke-width:1;"/></g><!--link suite_engine to suite_commons--><g class="link" data-entity-1="suite_engine" data-entity-2="suite_commons" data-source-line="86" data-uid="lnk53" id="link_suite_engine_suite_commons"><path d="M674.28,228.06 C673.33,257.34 671.8527,302.7231 670.9127,331.9831" fill="none" id="suite_engine-to-suite_commons" style="stroke:#181818;stroke-width:1;stroke-dasharray:7.0,7.0;"/><polygon fill="#181818" points="670.72,337.98,675.0069,329.1131,670.8805,332.9826,667.011,328.8562,670.72,337.98" style="stroke:#181818;stroke-width:1;"/></g><!--link suite_commons to launcher--><g class="link" data-entity-1="suite_commons" data-entity-2="launcher" data-source-line="88" data-uid="lnk54" id="link_suite_commons_launcher"><path d="M634.18,384.26 C603.37,403.41 564.2665,427.7136 533.5565,446.7936" fill="none" id="suite_commons-to-launcher" style="stroke:#181818;stroke-width:1;stroke-dasharray:7.0,7.0;"/><polygon fill="#181818" points="528.46,449.96,538.2156,448.608,532.707,447.3213,533.9937,441.8128,528.46,449.96" style="stroke:#181818;stroke-width:1;"/></g><!--link suite_commons to suite_api--><g class="link" data-entity-1="suite_commons" data-entity-2="suite_api" data-source-line="89" data-uid="lnk55" id="link_suite_commons_suite_api"><path d="M682.14,384.26 C692.55,403.34 704.5951,425.4336 715.0051,444.5036" fill="none" id="suite_commons-to-suite_api" style="stroke:#181818;stroke-width:1;stroke-dasharray:7.0,7.0;"/><polygon fill="#181818" points="717.88,449.77,717.0787,439.9538,715.4843,445.3813,710.0568,443.7869,717.88,449.77" style="stroke:#181818;stroke-width:1;"/></g><!--link testkit to opentest4j--><g class="link" data-entity-1="testkit" data-entity-2="opentest4j" data-source-line="91" data-uid="lnk56" id="link_testkit_opentest4j"><path d="M374.25,384.06 C362.38,424.88 339,515.15 339,593 C339,593 339,593 339,701 C339,785.28 436.6336,829.0312 504.4736,849.8312" fill="none" id="testkit-to-opentest4j" style="stroke:#181818;stroke-width:1;stroke-dasharray:7.0,7.0;"/><polygon fill="#181818" points="510.21,851.59,502.7779,845.1275,505.4296,850.1243,500.4328,852.7761,510.21,851.59" style="stroke:#181818;stroke-width:1;"/></g><!--link testkit to launcher--><g class="link" data-entity-1="testkit" data-entity-2="launcher" data-source-line="92" data-uid="lnk57" id="link_testkit_launcher"><path d="M403.66,384.26 C423.1,403.34 446.669,426.4961 466.089,445.5661" fill="none" id="testkit-to-launcher" style="stroke:#181818;stroke-width:1;stroke-dasharray:7.0,7.0;"/><polygon fill="#181818" points="470.37,449.77,466.751,440.6101,466.8025,446.2668,461.1458,446.3182,470.37,449.77" style="stroke:#181818;stroke-width:1;"/></g><!--link vintage_engine to engine--><g class="link" data-entity-1="vintage_engine" data-entity-2="engine" data-source-line="94" data-uid="lnk58" id="link_vintage_engine_engine"><path d="M1020.59,384.11 C983.72,415.77 912.69,475.14 848,520 C821.43,538.43 795.3206,554.1352 771.0606,567.9852" fill="none" id="vintage_engine-to-engine" style="stroke:#181818;stroke-width:1;stroke-dasharray:7.0,7.0;"/><polygon fill="#181818" points="765.85,570.96,775.6491,569.9716,770.1922,568.481,771.6828,563.0241,765.85,570.96" style="stroke:#181818;stroke-width:1;"/></g><!--link vintage_engine to junit4--><g class="link" data-entity-1="vintage_engine" data-entity-2="junit4" data-source-line="95" data-uid="lnk59" id="link_vintage_engine_junit4"><path d="M1051.94,384.15 C1063.8,428.3 1088.6854,521.0249 1100.5154,565.1249" fill="none" id="vintage_engine-to-junit4" style="stroke:#181818;stroke-width:1;stroke-dasharray:7.0,7.0;"/><polygon fill="#181818" points="1102.07,570.92,1103.6016,561.191,1100.7745,566.0907,1095.8747,563.2637,1102.07,570.92" style="stroke:#181818;stroke-width:1;"/></g><!--SRC=[bLMnZjim3Dtr5S9rjgTC7Gxeqg53ftOw70B6fXqbjcH8zBM7elzUIPPboLOEQ0P7Uk-HeHvbnjo5d433oFymRZyjTZ0Fz5L9-WuZSWFIL0QrwDXVnYPexj0ZLxglRxCKP9-J8DGX-iM3LG1VEHWUrWMwWacaahFTbsGeUo4nKovGIUpFOZBn0fN4e-Wra53IpDEaD6LXaJm7jcp0cv3aaCo00AQb1sWjlPXh6e0wfSSysOfMZHf7MwjF5zOFTDAe0OFEhukwfBgZeL4rm2oRQ-ZckYagDJgRXEozDEwAMZDRaxtEhnvhuYtnk_qTsMbJXnRzHpujCOaBIyW7NX0QkelbdeHrsicdRp-jd9-UiWP-zizmj-pgj6- -cb2wRAVR6hSXhu_5TNGu3VCrRgseIAd1VPjWeo9z3jZPOllqrjz-1jqAa6lM18hDI30laegGNnIH6hdgKff_-dLT6-m-NuQ1WosjWuRilVlTu4IHJ9m0sVB4lYYvmXjoi7FAIbkKpJjNajDLcAXOizVynnKvjZqQ7nK55qJ9rIY8iEMTjYLdyRRgtWr4st5Bk15ujzvqaTS8BLp48EYzzg0jn9tVMRcEmxf-piPQ2GzpgKI5AyYI59PtYisXFVaSPmBBqonaI7cWyZfPNjoZSno7utyflTI_2IpC9nyUXqiARcE4hJnFpiDkdSw3sNRgtA_aoD6fxHNASgHmoBDxRPYV5Jvg6qnxRAqntILqh2BRvfKSgUtdM1X1nwDkH6fC_XUKNOi35Jlq3m00]--></g></svg>