<svg xmlns="http://www.w3.org/2000/svg" xmlns:xlink="http://www.w3.org/1999/xlink" contentStyleType="text/css" data-diagram-type="DESCRIPTION" height="907px" preserveAspectRatio="none" style="width:2111px;height:907px;background:#FFFFFF;" version="1.1" viewBox="0 0 2111 907" width="2111px" zoomAndPan="magnify"><defs/><g><!--cluster org.junit.jupiter--><g class="cluster" data-entity="org.junit.jupiter" data-source-line="6" data-uid="ent0002" id="cluster_org.junit.jupiter"><path d="M1111.5,147 L1238.582,147 A3.75,3.75 0 0 1 1241.082,149.5 L1248.082,169.2969 L1847.5,169.2969 A2.5,2.5 0 0 1 1850,171.7969 L1850,503.5 A2.5,2.5 0 0 1 1847.5,506 L1111.5,506 A2.5,2.5 0 0 1 1109,503.5 L1109,149.5 A2.5,2.5 0 0 1 1111.5,147" fill="none" style="stroke:#000000;stroke-width:1.5;"/><line style="stroke:#000000;stroke-width:1.5;" x1="1109" x2="1248.082" y1="169.2969" y2="169.2969"/><text fill="#000000" font-family="sans-serif" font-size="14" font-weight="bold" lengthAdjust="spacing" textLength="126.082" x="1113" y="161.9951">org.junit.jupiter</text></g><!--cluster org.junit.vintage--><g class="cluster" data-entity="org.junit.vintage" data-source-line="14" data-uid="ent0008" id="cluster_org.junit.vintage"><path d="M873.5,303 L1007.4521,303 A3.75,3.75 0 0 1 1009.9521,305.5 L1016.9521,325.2969 L1082.5,325.2969 A2.5,2.5 0 0 1 1085,327.7969 L1085,397.5 A2.5,2.5 0 0 1 1082.5,400 L873.5,400 A2.5,2.5 0 0 1 871,397.5 L871,305.5 A2.5,2.5 0 0 1 873.5,303" fill="none" style="stroke:#000000;stroke-width:1.5;"/><line style="stroke:#000000;stroke-width:1.5;" x1="871" x2="1016.9521" y1="325.2969" y2="325.2969"/><text fill="#000000" font-family="sans-serif" font-size="14" font-weight="bold" lengthAdjust="spacing" textLength="132.9521" x="875" y="317.9951">org.junit.vintage</text></g><!--cluster org.junit.platform--><g class="cluster" data-entity="org.junit.platform" data-source-line="18" data-uid="ent0010" id="cluster_org.junit.platform"><path d="M33.5,6 L176.0654,6 A3.75,3.75 0 0 1 178.5654,8.5 L185.5654,28.2969 L844.5,28.2969 A2.5,2.5 0 0 1 847,30.7969 L847,730.5 A2.5,2.5 0 0 1 844.5,733 L33.5,733 A2.5,2.5 0 0 1 31,730.5 L31,8.5 A2.5,2.5 0 0 1 33.5,6" fill="none" style="stroke:#000000;stroke-width:1.5;"/><line style="stroke:#000000;stroke-width:1.5;" x1="31" x2="185.5654" y1="28.2969" y2="28.2969"/><text fill="#000000" font-family="sans-serif" font-size="14" font-weight="bold" lengthAdjust="spacing" textLength="141.5654" x="35" y="20.9951">org.junit.platform</text></g><!--cluster JUnit 4--><g class="cluster" data-entity="JUnit 4" data-source-line="31" data-uid="ent0021" id="cluster_JUnit 4"><path d="M957.5,530 L1011.1504,530 A3.75,3.75 0 0 1 1013.6504,532.5 L1020.6504,552.2969 L1090.5,552.2969 A2.5,2.5 0 0 1 1093,554.7969 L1093,624.5 A2.5,2.5 0 0 1 1090.5,627 L957.5,627 A2.5,2.5 0 0 1 955,624.5 L955,532.5 A2.5,2.5 0 0 1 957.5,530" fill="none" style="stroke:#000000;stroke-width:1.5;"/><line style="stroke:#000000;stroke-width:1.5;" x1="955" x2="1020.6504" y1="552.2969" y2="552.2969"/><text fill="#000000" font-family="sans-serif" font-size="14" font-weight="bold" lengthAdjust="spacing" textLength="52.6504" x="959" y="544.9951">JUnit 4</text></g><!--cluster org.opentest4j--><g class="cluster" data-entity="org.opentest4j" data-source-line="35" data-uid="ent0023" id="cluster_org.opentest4j"><path d="M496.5,803 L614.2168,803 A3.75,3.75 0 0 1 616.7168,805.5 L623.7168,825.2969 L639.5,825.2969 A2.5,2.5 0 0 1 642,827.7969 L642,897.5 A2.5,2.5 0 0 1 639.5,900 L496.5,900 A2.5,2.5 0 0 1 494,897.5 L494,805.5 A2.5,2.5 0 0 1 496.5,803" fill="none" style="stroke:#000000;stroke-width:1.5;"/><line style="stroke:#000000;stroke-width:1.5;" x1="494" x2="623.7168" y1="825.2969" y2="825.2969"/><text fill="#000000" font-family="sans-serif" font-size="14" font-weight="bold" lengthAdjust="spacing" textLength="116.7168" x="498" y="817.9951">org.opentest4j</text></g><!--cluster org.opentest4j.reporting--><g class="cluster" data-entity="org.opentest4j.reporting" data-source-line="39" data-uid="ent0025" id="cluster_org.opentest4j.reporting"><path d="M8.5,803 L205.958,803 A3.75,3.75 0 0 1 208.458,805.5 L215.458,825.2969 L291.5,825.2969 A2.5,2.5 0 0 1 294,827.7969 L294,897.5 A2.5,2.5 0 0 1 291.5,900 L8.5,900 A2.5,2.5 0 0 1 6,897.5 L6,805.5 A2.5,2.5 0 0 1 8.5,803" fill="none" style="stroke:#000000;stroke-width:1.5;"/><line style="stroke:#000000;stroke-width:1.5;" x1="6" x2="215.458" y1="825.2969" y2="825.2969"/><text fill="#000000" font-family="sans-serif" font-size="14" font-weight="bold" lengthAdjust="spacing" textLength="196.458" x="10" y="817.9951">org.opentest4j.reporting</text></g><!--cluster org.apiguardian--><g class="cluster" data-entity="org.apiguardian" data-source-line="43" data-uid="ent0027" id="cluster_org.apiguardian"><path d="M1876.5,6 L2004.2041,6 A3.75,3.75 0 0 1 2006.7041,8.5 L2013.7041,28.2969 L2101.5,28.2969 A2.5,2.5 0 0 1 2104,30.7969 L2104,276.5 A2.5,2.5 0 0 1 2101.5,279 L1876.5,279 A2.5,2.5 0 0 1 1874,276.5 L1874,8.5 A2.5,2.5 0 0 1 1876.5,6" fill="none" style="stroke:#000000;stroke-width:1.5;"/><line style="stroke:#000000;stroke-width:1.5;" x1="1874" x2="2013.7041" y1="28.2969" y2="28.2969"/><text fill="#000000" font-family="sans-serif" font-size="14" font-weight="bold" lengthAdjust="spacing" textLength="126.7041" x="1878" y="20.9951">org.apiguardian</text></g><!--entity jupiter--><g class="entity" data-entity="jupiter" data-source-line="7" data-uid="ent0003" id="entity_jupiter"><rect fill="#F1F1F1" height="46.2969" rx="2.5" ry="2.5" style="stroke:#181818;stroke-width:0.5;" width="121.4639" x="1646.5" y="182"/><rect fill="#F1F1F1" height="10" style="stroke:#181818;stroke-width:0.5;" width="15" x="1747.9639" y="187"/><rect fill="#F1F1F1" height="2" style="stroke:#181818;stroke-width:0.5;" width="4" x="1745.9639" y="189"/><rect fill="#F1F1F1" height="2" style="stroke:#181818;stroke-width:0.5;" width="4" x="1745.9639" y="193"/><text fill="#000000" font-family="sans-serif" font-size="14" lengthAdjust="spacing" textLength="81.4639" x="1661.5" y="214.9951">junit-jupiter</text></g><!--entity jupiter_api--><g class="entity" data-entity="jupiter_api" data-source-line="8" data-uid="ent0004" id="entity_jupiter_api"><rect fill="#F1F1F1" height="46.2969" rx="2.5" ry="2.5" style="stroke:#181818;stroke-width:0.5;" width="147.8711" x="1367" y="444"/><rect fill="#F1F1F1" height="10" style="stroke:#181818;stroke-width:0.5;" width="15" x="1494.8711" y="449"/><rect fill="#F1F1F1" height="2" style="stroke:#181818;stroke-width:0.5;" width="4" x="1492.8711" y="451"/><rect fill="#F1F1F1" height="2" style="stroke:#181818;stroke-width:0.5;" width="4" x="1492.8711" y="455"/><text fill="#000000" font-family="sans-serif" font-size="14" lengthAdjust="spacing" textLength="107.8711" x="1382" y="476.9951">junit-jupiter-api</text></g><!--entity jupiter_engine--><g class="entity" data-entity="jupiter_engine" data-source-line="9" data-uid="ent0005" id="entity_jupiter_engine"><rect fill="#F1F1F1" height="46.2969" rx="2.5" ry="2.5" style="stroke:#181818;stroke-width:0.5;" width="174.2646" x="1125" y="338"/><rect fill="#F1F1F1" height="10" style="stroke:#181818;stroke-width:0.5;" width="15" x="1279.2646" y="343"/><rect fill="#F1F1F1" height="2" style="stroke:#181818;stroke-width:0.5;" width="4" x="1277.2646" y="345"/><rect fill="#F1F1F1" height="2" style="stroke:#181818;stroke-width:0.5;" width="4" x="1277.2646" y="349"/><text fill="#000000" font-family="sans-serif" font-size="14" lengthAdjust="spacing" textLength="134.2646" x="1140" y="370.9951">junit-jupiter-engine</text></g><!--entity jupiter_params--><g class="entity" data-entity="jupiter_params" data-source-line="10" data-uid="ent0006" id="entity_jupiter_params"><rect fill="#F1F1F1" height="46.2969" rx="2.5" ry="2.5" style="stroke:#181818;stroke-width:0.5;" width="179.248" x="1617.5" y="338"/><rect fill="#F1F1F1" height="10" style="stroke:#181818;stroke-width:0.5;" width="15" x="1776.748" y="343"/><rect fill="#F1F1F1" height="2" style="stroke:#181818;stroke-width:0.5;" width="4" x="1774.748" y="345"/><rect fill="#F1F1F1" height="2" style="stroke:#181818;stroke-width:0.5;" width="4" x="1774.748" y="349"/><text fill="#000000" font-family="sans-serif" font-size="14" lengthAdjust="spacing" textLength="139.248" x="1632.5" y="370.9951">junit-jupiter-params</text></g><!--entity jupiter_migration_support--><g class="entity" data-entity="jupiter_migration_support" data-source-line="11" data-uid="ent0007" id="entity_jupiter_migration_support"><rect fill="#F1F1F1" height="46.2969" rx="2.5" ry="2.5" style="stroke:#181818;stroke-width:0.5;" width="247.833" x="1334" y="338"/><rect fill="#F1F1F1" height="10" style="stroke:#181818;stroke-width:0.5;" width="15" x="1561.833" y="343"/><rect fill="#F1F1F1" height="2" style="stroke:#181818;stroke-width:0.5;" width="4" x="1559.833" y="345"/><rect fill="#F1F1F1" height="2" style="stroke:#181818;stroke-width:0.5;" width="4" x="1559.833" y="349"/><text fill="#000000" font-family="sans-serif" font-size="14" lengthAdjust="spacing" textLength="207.833" x="1349" y="370.9951">junit-jupiter-migrationsupport</text></g><!--entity vintage_engine--><g class="entity" data-entity="vintage_engine" data-source-line="15" data-uid="ent0009" id="entity_vintage_engine"><rect fill="#F1F1F1" height="46.2969" rx="2.5" ry="2.5" style="stroke:#181818;stroke-width:0.5;" width="181.4834" x="887.5" y="338"/><rect fill="#F1F1F1" height="10" style="stroke:#181818;stroke-width:0.5;" width="15" x="1048.9834" y="343"/><rect fill="#F1F1F1" height="2" style="stroke:#181818;stroke-width:0.5;" width="4" x="1046.9834" y="345"/><rect fill="#F1F1F1" height="2" style="stroke:#181818;stroke-width:0.5;" width="4" x="1046.9834" y="349"/><text fill="#000000" font-family="sans-serif" font-size="14" lengthAdjust="spacing" textLength="141.4834" x="902.5" y="370.9951">junit-vintage-engine</text></g><!--entity commons--><g class="entity" data-entity="commons" data-source-line="19" data-uid="ent0011" id="entity_commons"><rect fill="#F1F1F1" height="46.2969" rx="2.5" ry="2.5" style="stroke:#181818;stroke-width:0.5;" width="209.1211" x="621.5" y="671"/><rect fill="#F1F1F1" height="10" style="stroke:#181818;stroke-width:0.5;" width="15" x="810.6211" y="676"/><rect fill="#F1F1F1" height="2" style="stroke:#181818;stroke-width:0.5;" width="4" x="808.6211" y="678"/><rect fill="#F1F1F1" height="2" style="stroke:#181818;stroke-width:0.5;" width="4" x="808.6211" y="682"/><text fill="#000000" font-family="sans-serif" font-size="14" lengthAdjust="spacing" textLength="169.1211" x="636.5" y="703.9951">junit-platform-commons</text></g><!--entity console--><g class="entity" data-entity="console" data-source-line="20" data-uid="ent0012" id="entity_console"><rect fill="#F1F1F1" height="46.2969" rx="2.5" ry="2.5" style="stroke:#181818;stroke-width:0.5;" width="194.3486" x="190" y="182"/><rect fill="#F1F1F1" height="10" style="stroke:#181818;stroke-width:0.5;" width="15" x="364.3486" y="187"/><rect fill="#F1F1F1" height="2" style="stroke:#181818;stroke-width:0.5;" width="4" x="362.3486" y="189"/><rect fill="#F1F1F1" height="2" style="stroke:#181818;stroke-width:0.5;" width="4" x="362.3486" y="193"/><text fill="#000000" font-family="sans-serif" font-size="14" lengthAdjust="spacing" textLength="154.3486" x="205" y="214.9951">junit-platform-console</text></g><!--entity engine--><g class="entity" data-entity="engine" data-source-line="21" data-uid="ent0013" id="entity_engine"><rect fill="#F1F1F1" height="46.2969" rx="2.5" ry="2.5" style="stroke:#181818;stroke-width:0.5;" width="188.5996" x="631.5" y="565"/><rect fill="#F1F1F1" height="10" style="stroke:#181818;stroke-width:0.5;" width="15" x="800.0996" y="570"/><rect fill="#F1F1F1" height="2" style="stroke:#181818;stroke-width:0.5;" width="4" x="798.0996" y="572"/><rect fill="#F1F1F1" height="2" style="stroke:#181818;stroke-width:0.5;" width="4" x="798.0996" y="576"/><text fill="#000000" font-family="sans-serif" font-size="14" lengthAdjust="spacing" textLength="148.5996" x="646.5" y="597.9951">junit-platform-engine</text></g><!--entity launcher--><g class="entity" data-entity="launcher" data-source-line="22" data-uid="ent0014" id="entity_launcher"><rect fill="#F1F1F1" height="46.2969" rx="2.5" ry="2.5" style="stroke:#181818;stroke-width:0.5;" width="202.0049" x="392" y="444"/><rect fill="#F1F1F1" height="10" style="stroke:#181818;stroke-width:0.5;" width="15" x="574.0049" y="449"/><rect fill="#F1F1F1" height="2" style="stroke:#181818;stroke-width:0.5;" width="4" x="572.0049" y="451"/><rect fill="#F1F1F1" height="2" style="stroke:#181818;stroke-width:0.5;" width="4" x="572.0049" y="455"/><text fill="#000000" font-family="sans-serif" font-size="14" lengthAdjust="spacing" textLength="162.0049" x="407" y="476.9951">junit-platform-launcher</text></g><!--entity reporting--><g class="entity" data-entity="reporting" data-source-line="23" data-uid="ent0015" id="entity_reporting"><rect fill="#F1F1F1" height="46.2969" rx="2.5" ry="2.5" style="stroke:#181818;stroke-width:0.5;" width="205.5664" x="47" y="338"/><rect fill="#F1F1F1" height="10" style="stroke:#181818;stroke-width:0.5;" width="15" x="232.5664" y="343"/><rect fill="#F1F1F1" height="2" style="stroke:#181818;stroke-width:0.5;" width="4" x="230.5664" y="345"/><rect fill="#F1F1F1" height="2" style="stroke:#181818;stroke-width:0.5;" width="4" x="230.5664" y="349"/><text fill="#000000" font-family="sans-serif" font-size="14" lengthAdjust="spacing" textLength="165.5664" x="62" y="370.9951">junit-platform-reporting</text></g><!--entity suite--><g class="entity" data-entity="suite" data-source-line="24" data-uid="ent0016" id="entity_suite"><rect fill="#F1F1F1" height="46.2969" rx="2.5" ry="2.5" style="stroke:#181818;stroke-width:0.5;" width="175.0098" x="621.5" y="41"/><rect fill="#F1F1F1" height="10" style="stroke:#181818;stroke-width:0.5;" width="15" x="776.5098" y="46"/><rect fill="#F1F1F1" height="2" style="stroke:#181818;stroke-width:0.5;" width="4" x="774.5098" y="48"/><rect fill="#F1F1F1" height="2" style="stroke:#181818;stroke-width:0.5;" width="4" x="774.5098" y="52"/><text fill="#000000" font-family="sans-serif" font-size="14" lengthAdjust="spacing" textLength="135.0098" x="636.5" y="73.9951">junit-platform-suite</text></g><!--entity suite_api--><g class="entity" data-entity="suite_api" data-source-line="25" data-uid="ent0017" id="entity_suite_api"><rect fill="#F1F1F1" height="46.2969" rx="2.5" ry="2.5" style="stroke:#181818;stroke-width:0.5;" width="201.417" x="629.5" y="444"/><rect fill="#F1F1F1" height="10" style="stroke:#181818;stroke-width:0.5;" width="15" x="810.917" y="449"/><rect fill="#F1F1F1" height="2" style="stroke:#181818;stroke-width:0.5;" width="4" x="808.917" y="451"/><rect fill="#F1F1F1" height="2" style="stroke:#181818;stroke-width:0.5;" width="4" x="808.917" y="455"/><text fill="#000000" font-family="sans-serif" font-size="14" lengthAdjust="spacing" textLength="161.417" x="644.5" y="476.9951">junit-platform-suite-api</text></g><!--entity suite_commons--><g class="entity" data-entity="suite_commons" data-source-line="26" data-uid="ent0018" id="entity_suite_commons"><rect fill="#F1F1F1" height="46.2969" rx="2.5" ry="2.5" style="stroke:#181818;stroke-width:0.5;" width="248.332" x="546" y="338"/><rect fill="#F1F1F1" height="10" style="stroke:#181818;stroke-width:0.5;" width="15" x="774.332" y="343"/><rect fill="#F1F1F1" height="2" style="stroke:#181818;stroke-width:0.5;" width="4" x="772.332" y="345"/><rect fill="#F1F1F1" height="2" style="stroke:#181818;stroke-width:0.5;" width="4" x="772.332" y="349"/><text fill="#000000" font-family="sans-serif" font-size="14" lengthAdjust="spacing" textLength="208.332" x="561" y="370.9951">junit-platform-suite-commons</text></g><!--entity suite_engine--><g class="entity" data-entity="suite_engine" data-source-line="27" data-uid="ent0019" id="entity_suite_engine"><rect fill="#F1F1F1" height="46.2969" rx="2.5" ry="2.5" style="stroke:#181818;stroke-width:0.5;" width="227.8105" x="561" y="182"/><rect fill="#F1F1F1" height="10" style="stroke:#181818;stroke-width:0.5;" width="15" x="768.8105" y="187"/><rect fill="#F1F1F1" height="2" style="stroke:#181818;stroke-width:0.5;" width="4" x="766.8105" y="189"/><rect fill="#F1F1F1" height="2" style="stroke:#181818;stroke-width:0.5;" width="4" x="766.8105" y="193"/><text fill="#000000" font-family="sans-serif" font-size="14" lengthAdjust="spacing" textLength="187.8105" x="576" y="214.9951">junit-platform-suite-engine</text></g><!--entity testkit--><g class="entity" data-entity="testkit" data-source-line="28" data-uid="ent0020" id="entity_testkit"><rect fill="#F1F1F1" height="46.2969" rx="2.5" ry="2.5" style="stroke:#181818;stroke-width:0.5;" width="185.2227" x="288.5" y="338"/><rect fill="#F1F1F1" height="10" style="stroke:#181818;stroke-width:0.5;" width="15" x="453.7227" y="343"/><rect fill="#F1F1F1" height="2" style="stroke:#181818;stroke-width:0.5;" width="4" x="451.7227" y="345"/><rect fill="#F1F1F1" height="2" style="stroke:#181818;stroke-width:0.5;" width="4" x="451.7227" y="349"/><text fill="#000000" font-family="sans-serif" font-size="14" lengthAdjust="spacing" textLength="145.2227" x="303.5" y="370.9951">junit-platform-testkit</text></g><!--entity junit4--><g class="entity" data-entity="junit4" data-source-line="32" data-uid="ent0022" id="entity_junit4"><rect fill="#F1F1F1" height="46.2969" rx="2.5" ry="2.5" style="stroke:#181818;stroke-width:0.5;" width="106.7461" x="970.5" y="565"/><rect fill="#F1F1F1" height="10" style="stroke:#181818;stroke-width:0.5;" width="15" x="1057.2461" y="570"/><rect fill="#F1F1F1" height="2" style="stroke:#181818;stroke-width:0.5;" width="4" x="1055.2461" y="572"/><rect fill="#F1F1F1" height="2" style="stroke:#181818;stroke-width:0.5;" width="4" x="1055.2461" y="576"/><text fill="#000000" font-family="sans-serif" font-size="14" lengthAdjust="spacing" textLength="66.7461" x="985.5" y="597.9951">junit:junit</text></g><!--entity opentest4j--><g class="entity" data-entity="opentest4j" data-source-line="36" data-uid="ent0024" id="entity_opentest4j"><rect fill="#F1F1F1" height="46.2969" rx="2.5" ry="2.5" style="stroke:#181818;stroke-width:0.5;" width="114.6211" x="510.5" y="838"/><rect fill="#F1F1F1" height="10" style="stroke:#181818;stroke-width:0.5;" width="15" x="605.1211" y="843"/><rect fill="#F1F1F1" height="2" style="stroke:#181818;stroke-width:0.5;" width="4" x="603.1211" y="845"/><rect fill="#F1F1F1" height="2" style="stroke:#181818;stroke-width:0.5;" width="4" x="603.1211" y="849"/><text fill="#000000" font-family="sans-serif" font-size="14" lengthAdjust="spacing" textLength="74.6211" x="525.5" y="870.9951">opentest4j</text></g><!--entity otr_tooling_spi--><g class="entity" data-entity="otr_tooling_spi" data-source-line="40" data-uid="ent0026" id="entity_otr_tooling_spi"><rect fill="#F1F1F1" height="46.2969" rx="2.5" ry="2.5" style="stroke:#181818;stroke-width:0.5;" width="254.9766" x="22.5" y="838"/><rect fill="#F1F1F1" height="10" style="stroke:#181818;stroke-width:0.5;" width="15" x="257.4766" y="843"/><rect fill="#F1F1F1" height="2" style="stroke:#181818;stroke-width:0.5;" width="4" x="255.4766" y="845"/><rect fill="#F1F1F1" height="2" style="stroke:#181818;stroke-width:0.5;" width="4" x="255.4766" y="849"/><text fill="#000000" font-family="sans-serif" font-size="14" lengthAdjust="spacing" textLength="214.9766" x="37.5" y="870.9951">open-test-reporting-tooling-spi</text></g><!--entity apiguardian--><g class="entity" data-entity="apiguardian" data-source-line="44" data-uid="ent0028" id="entity_apiguardian"><rect fill="#F1F1F1" height="46.2969" rx="2.5" ry="2.5" style="stroke:#181818;stroke-width:0.5;" width="150.0859" x="1914" y="41"/><rect fill="#F1F1F1" height="10" style="stroke:#181818;stroke-width:0.5;" width="15" x="2044.0859" y="46"/><rect fill="#F1F1F1" height="2" style="stroke:#181818;stroke-width:0.5;" width="4" x="2042.0859" y="48"/><rect fill="#F1F1F1" height="2" style="stroke:#181818;stroke-width:0.5;" width="4" x="2042.0859" y="52"/><text fill="#000000" font-family="sans-serif" font-size="14" lengthAdjust="spacing" textLength="110.0859" x="1929" y="73.9951">apiguardian-api</text></g><g class="entity" data-entity="GMN29" data-source-line="46" data-uid="ent0030" id="entity_GMN29"><path d="M1890.5,147 L1890.5,262.9297 A0,0 0 0 0 1890.5,262.9297 L2087.876,262.9297 A0,0 0 0 0 2087.876,262.9297 L2087.876,157 L2077.876,147 L1993,147 L1989,87.02 L1985,147 L1890.5,147 A0,0 0 0 0 1890.5,147" fill="#FFFFFF" style="stroke:#181818;stroke-width:0.5;"/><path d="M2077.876,147 L2077.876,157 L2087.876,157 L2077.876,147" fill="#FFFFFF" style="stroke:#181818;stroke-width:0.5;"/><text fill="#000000" font-family="sans-serif" font-size="13" lengthAdjust="spacing" textLength="122.1479" x="1896.5" y="164.0669">All artifacts except</text><text fill="#000000" font-family="sans-serif" font-size="13" lengthAdjust="spacing" textLength="163.9917" x="1896.5" y="179.1997">opentest4j and junit:junit</text><text fill="#000000" font-family="sans-serif" font-size="13" lengthAdjust="spacing" textLength="176.376" x="1896.5" y="194.3325">have a dependency on this</text><text fill="#000000" font-family="sans-serif" font-size="13" lengthAdjust="spacing" textLength="158.6851" x="1896.5" y="209.4653">artifact. The edges have</text><text fill="#000000" font-family="sans-serif" font-size="13" lengthAdjust="spacing" textLength="149.8174" x="1896.5" y="224.5981">been omitted from this</text><text fill="#000000" font-family="sans-serif" font-size="13" lengthAdjust="spacing" textLength="152.5913" x="1896.5" y="239.731">diagram for the sake of</text><text fill="#000000" font-family="sans-serif" font-size="13" lengthAdjust="spacing" textLength="73.5376" x="1896.5" y="254.8638">readability.</text></g><!--link jupiter to jupiter_api--><g class="link" data-entity-1="jupiter" data-entity-2="jupiter_api" data-source-line="56" data-uid="lnk32" id="link_jupiter_jupiter_api"><path d="M1748.46,228.09 C1772.43,243.36 1800.46,266.12 1814,295 C1835.32,340.47 1846.67,369.86 1814,408 C1776.32,451.99 1618.868,462.7245 1521.268,465.2545" fill="none" id="jupiter-to-jupiter_api" style="stroke:#181818;stroke-width:1;stroke-dasharray:7.0,7.0;"/><polygon fill="#181818" points="1515.27,465.41,1524.3706,469.1754,1520.2683,465.2804,1524.1633,461.1781,1515.27,465.41" style="stroke:#181818;stroke-width:1;"/></g><!--link jupiter to jupiter_params--><g class="link" data-entity-1="jupiter" data-entity-2="jupiter_params" data-source-line="57" data-uid="lnk33" id="link_jupiter_jupiter_params"><path d="M1707,228.06 C1707,257.34 1707,302.72 1707,331.98" fill="none" id="jupiter-to-jupiter_params" style="stroke:#181818;stroke-width:1;stroke-dasharray:7.0,7.0;"/><polygon fill="#181818" points="1707,337.98,1711,328.98,1707,332.98,1703,328.98,1707,337.98" style="stroke:#181818;stroke-width:1;"/></g><!--link jupiter to jupiter_engine--><g class="link" data-entity-1="jupiter" data-entity-2="jupiter_engine" data-source-line="58" data-uid="lnk34" id="link_jupiter_jupiter_engine"><path d="M1646.33,213.52 C1567.99,224.64 1428.48,249.26 1317,295 C1290.02,306.07 1267.004,320.2916 1246.724,334.4116" fill="none" id="jupiter-to-jupiter_engine" style="stroke:#181818;stroke-width:1;stroke-dasharray:7.0,7.0;"/><polygon fill="#181818" points="1241.8,337.84,1251.4717,335.9801,1245.9034,334.983,1246.9005,329.4147,1241.8,337.84" style="stroke:#181818;stroke-width:1;"/></g><!--link jupiter_api to opentest4j--><g class="link" data-entity-1="jupiter_api" data-entity-2="opentest4j" data-source-line="60" data-uid="lnk35" id="link_jupiter_api_opentest4j"><path d="M1420.63,490.03 C1386.98,525.24 1316.3,594.34 1244,635 C1031.87,754.28 752.3808,821.8815 631.6508,847.3515" fill="none" id="jupiter_api-to-opentest4j" style="stroke:#181818;stroke-width:1;stroke-dasharray:7.0,7.0;"/><polygon fill="#181818" points="625.78,848.59,635.4119,850.646,630.6723,847.5579,633.7605,842.8183,625.78,848.59" style="stroke:#181818;stroke-width:1;"/></g><!--link jupiter_api to commons--><g class="link" data-entity-1="jupiter_api" data-entity-2="commons" data-source-line="61" data-uid="lnk36" id="link_jupiter_api_commons"><path d="M1404.36,490.02 C1342.48,526.18 1212.32,597.82 1093,635 C1006.78,661.87 911.0663,676.0652 836.6263,683.9852" fill="none" id="jupiter_api-to-commons" style="stroke:#181818;stroke-width:1;stroke-dasharray:7.0,7.0;"/><polygon fill="#181818" points="830.66,684.62,840.0327,687.6454,835.6319,684.091,839.1863,679.6903,830.66,684.62" style="stroke:#181818;stroke-width:1;"/></g><!--link jupiter_engine to engine--><g class="link" data-entity-1="jupiter_engine" data-entity-2="engine" data-source-line="63" data-uid="lnk37" id="link_jupiter_engine_engine"><path d="M1170.07,384.21 C1111.74,414.82 1002.49,471.03 907,514 C866.37,532.28 825.3113,548.8735 789.5513,562.7935" fill="none" id="jupiter_engine-to-engine" style="stroke:#181818;stroke-width:1;stroke-dasharray:7.0,7.0;"/><polygon fill="#181818" points="783.96,564.97,793.798,565.4328,788.6194,563.1563,790.896,557.9777,783.96,564.97" style="stroke:#181818;stroke-width:1;"/></g><!--link jupiter_engine to jupiter_api--><g class="link" data-entity-1="jupiter_engine" data-entity-2="jupiter_api" data-source-line="64" data-uid="lnk38" id="link_jupiter_engine_jupiter_api"><path d="M1260.57,384.06 C1299.43,401.7 1348.197,423.8589 1387.037,441.4989" fill="none" id="jupiter_engine-to-jupiter_api" style="stroke:#181818;stroke-width:1;stroke-dasharray:7.0,7.0;"/><polygon fill="#181818" points="1392.5,443.98,1385.9596,436.6163,1387.9475,441.9124,1382.6515,443.9003,1392.5,443.98" style="stroke:#181818;stroke-width:1;"/></g><!--link jupiter_params to jupiter_api--><g class="link" data-entity-1="jupiter_params" data-entity-2="jupiter_api" data-source-line="66" data-uid="lnk39" id="link_jupiter_params_jupiter_api"><path d="M1657.16,384.12 C1639.23,391.89 1618.79,400.54 1600,408 C1568.59,420.47 1538.9689,431.4177 1509.6389,441.9177" fill="none" id="jupiter_params-to-jupiter_api" style="stroke:#181818;stroke-width:1;stroke-dasharray:7.0,7.0;"/><polygon fill="#181818" points="1503.99,443.94,1513.8116,444.6725,1508.6974,442.2548,1511.1152,437.1406,1503.99,443.94" style="stroke:#181818;stroke-width:1;"/></g><!--link jupiter_migration_support to jupiter_api--><g class="link" data-entity-1="jupiter_migration_support" data-entity-2="jupiter_api" data-source-line="67" data-uid="lnk40" id="link_jupiter_migration_support_jupiter_api"><path d="M1454.39,384.06 C1451.51,401.7 1448.4468,420.4184 1445.5668,438.0584" fill="none" id="jupiter_migration_support-to-jupiter_api" style="stroke:#181818;stroke-width:1;stroke-dasharray:7.0,7.0;"/><polygon fill="#181818" points="1444.6,443.98,1449.9979,435.7421,1445.4057,439.0453,1442.1025,434.4531,1444.6,443.98" style="stroke:#181818;stroke-width:1;"/></g><!--link jupiter_migration_support to junit4--><g class="link" data-entity-1="jupiter_migration_support" data-entity-2="junit4" data-source-line="68" data-uid="lnk41" id="link_jupiter_migration_support_junit4"><path d="M1417.47,384.04 C1362.23,413.96 1260.08,468.88 1172,514 C1137.83,531.5 1104.2735,548.0512 1074.9135,562.3612" fill="none" id="jupiter_migration_support-to-junit4" style="stroke:#181818;stroke-width:1;stroke-dasharray:7.0,7.0;"/><polygon fill="#181818" points="1069.52,564.99,1079.3627,564.6425,1074.0146,562.7994,1075.8577,557.4512,1069.52,564.99" style="stroke:#181818;stroke-width:1;"/></g><!--link console to launcher--><g class="link" data-entity-1="console" data-entity-2="launcher" data-source-line="70" data-uid="lnk42" id="link_console_launcher"><path d="M384.26,224.22 C424.29,237.01 466.87,258.61 491,295 C521.19,340.53 510.5565,403.1501 501.3165,438.0301" fill="none" id="console-to-launcher" style="stroke:#181818;stroke-width:1;stroke-dasharray:7.0,7.0;"/><polygon fill="#181818" points="499.78,443.83,505.9513,436.1544,501.0604,438.9967,498.2181,434.1058,499.78,443.83" style="stroke:#181818;stroke-width:1;"/></g><!--link console to reporting--><g class="link" data-entity-1="console" data-entity-2="reporting" data-source-line="71" data-uid="lnk43" id="link_console_reporting"><path d="M267.37,228.06 C241.33,257.34 199.608,304.2372 173.578,333.4972" fill="none" id="console-to-reporting" style="stroke:#181818;stroke-width:1;stroke-dasharray:7.0,7.0;"/><polygon fill="#181818" points="169.59,337.98,178.5606,333.9144,172.9133,334.2443,172.5834,328.5971,169.59,337.98" style="stroke:#181818;stroke-width:1;"/></g><!--link launcher to engine--><g class="link" data-entity-1="launcher" data-entity-2="engine" data-source-line="73" data-uid="lnk44" id="link_launcher_engine"><path d="M536.28,490.1 C578,511.41 635.4361,540.7518 677.2161,562.0818" fill="none" id="launcher-to-engine" style="stroke:#181818;stroke-width:1;stroke-dasharray:7.0,7.0;"/><polygon fill="#181818" points="682.56,564.81,676.363,557.1551,678.1068,562.5365,672.7254,564.2803,682.56,564.81" style="stroke:#181818;stroke-width:1;"/></g><!--link engine to opentest4j--><g class="link" data-entity-1="engine" data-entity-2="opentest4j" data-source-line="75" data-uid="lnk45" id="link_engine_opentest4j"><path d="M675.74,611.02 C650.37,624.69 621.37,644.7 604,671 C569.49,723.26 566.1049,794.3611 566.8249,831.8711" fill="none" id="engine-to-opentest4j" style="stroke:#181818;stroke-width:1;stroke-dasharray:7.0,7.0;"/><polygon fill="#181818" points="566.94,837.87,570.7665,828.7949,566.844,832.8709,562.768,828.9484,566.94,837.87" style="stroke:#181818;stroke-width:1;"/></g><!--link engine to commons--><g class="link" data-entity-1="engine" data-entity-2="commons" data-source-line="76" data-uid="lnk46" id="link_engine_commons"><path d="M726,611.06 C726,628.7 726,647.34 726,664.98" fill="none" id="engine-to-commons" style="stroke:#181818;stroke-width:1;stroke-dasharray:7.0,7.0;"/><polygon fill="#181818" points="726,670.98,730,661.98,726,665.98,722,661.98,726,670.98" style="stroke:#181818;stroke-width:1;"/></g><!--link reporting to launcher--><g class="link" data-entity-1="reporting" data-entity-2="launcher" data-source-line="78" data-uid="lnk47" id="link_reporting_launcher"><path d="M204.37,384.1 C225.06,392.13 248.95,400.95 271,408 C312.74,421.34 353.7806,432.4689 393.6506,442.4789" fill="none" id="reporting-to-launcher" style="stroke:#181818;stroke-width:1;stroke-dasharray:7.0,7.0;"/><polygon fill="#181818" points="399.47,443.94,391.7149,437.8688,394.6205,442.7225,389.7669,445.628,399.47,443.94" style="stroke:#181818;stroke-width:1;"/></g><!--link reporting to otr_tooling_spi--><g class="link" data-entity-1="reporting" data-entity-2="otr_tooling_spi" data-source-line="79" data-uid="lnk48" id="link_reporting_otr_tooling_spi"><path d="M150,384.04 C150,424.33 150,512.59 150,587 C150,587 150,587 150,695 C150,746.13 150,800.18 150,831.85" fill="none" id="reporting-to-otr_tooling_spi" style="stroke:#181818;stroke-width:1;stroke-dasharray:7.0,7.0;"/><polygon fill="#181818" points="150,837.85,154,828.85,150,832.85,146,828.85,150,837.85" style="stroke:#181818;stroke-width:1;"/></g><!--link suite to suite_api--><g class="link" data-entity-1="suite" data-entity-2="suite_api" data-source-line="81" data-uid="lnk49" id="link_suite_suite_api"><path d="M753.45,87.11 C773.24,99.47 794.61,116.87 806,139 C860.75,245.31 865.65,301.64 811,408 C803.33,422.92 794.8623,431.562 781.0623,440.642" fill="none" id="suite-to-suite_api" style="stroke:#181818;stroke-width:1;stroke-dasharray:7.0,7.0;"/><polygon fill="#181818" points="776.05,443.94,785.7671,442.3346,780.2269,441.1917,781.3698,435.6515,776.05,443.94" style="stroke:#181818;stroke-width:1;"/></g><!--link suite to suite_engine--><g class="link" data-entity-1="suite" data-entity-2="suite_engine" data-source-line="82" data-uid="lnk50" id="link_suite_suite_engine"><path d="M703.61,87.02 C697.28,112.9 688.2662,149.762 681.8962,175.792" fill="none" id="suite-to-suite_engine" style="stroke:#181818;stroke-width:1;stroke-dasharray:7.0,7.0;"/><polygon fill="#181818" points="680.47,181.62,686.4947,173.8288,681.6585,176.7633,678.724,171.9271,680.47,181.62" style="stroke:#181818;stroke-width:1;"/></g><!--link suite_engine to suite_commons--><g class="link" data-entity-1="suite_engine" data-entity-2="suite_commons" data-source-line="84" data-uid="lnk51" id="link_suite_engine_suite_commons"><path d="M674.28,228.06 C673.33,257.34 671.8527,302.7231 670.9127,331.9831" fill="none" id="suite_engine-to-suite_commons" style="stroke:#181818;stroke-width:1;stroke-dasharray:7.0,7.0;"/><polygon fill="#181818" points="670.72,337.98,675.0069,329.1131,670.8805,332.9826,667.011,328.8562,670.72,337.98" style="stroke:#181818;stroke-width:1;"/></g><!--link suite_commons to launcher--><g class="link" data-entity-1="suite_commons" data-entity-2="launcher" data-source-line="86" data-uid="lnk52" id="link_suite_commons_launcher"><path d="M632.46,384.06 C602.43,401.7 565.6835,423.301 535.6535,440.941" fill="none" id="suite_commons-to-launcher" style="stroke:#181818;stroke-width:1;stroke-dasharray:7.0,7.0;"/><polygon fill="#181818" points="530.48,443.98,540.2662,442.8705,534.7912,441.4475,536.2142,435.9726,530.48,443.98" style="stroke:#181818;stroke-width:1;"/></g><!--link suite_commons to suite_api--><g class="link" data-entity-1="suite_commons" data-entity-2="suite_api" data-source-line="87" data-uid="lnk53" id="link_suite_commons_suite_api"><path d="M682.72,384.06 C692.91,401.7 704.1232,421.142 714.2932,438.782" fill="none" id="suite_commons-to-suite_api" style="stroke:#181818;stroke-width:1;stroke-dasharray:7.0,7.0;"/><polygon fill="#181818" points="717.29,443.98,716.2601,434.1851,714.7927,439.6483,709.3295,438.1809,717.29,443.98" style="stroke:#181818;stroke-width:1;"/></g><!--link testkit to opentest4j--><g class="link" data-entity-1="testkit" data-entity-2="opentest4j" data-source-line="89" data-uid="lnk54" id="link_testkit_opentest4j"><path d="M374.06,384.1 C362.14,424.13 339,511.5 339,587 C339,587 339,587 339,695 C339,779.28 436.6336,823.0312 504.4736,843.8312" fill="none" id="testkit-to-opentest4j" style="stroke:#181818;stroke-width:1;stroke-dasharray:7.0,7.0;"/><polygon fill="#181818" points="510.21,845.59,502.7779,839.1275,505.4296,844.1243,500.4328,846.7761,510.21,845.59" style="stroke:#181818;stroke-width:1;"/></g><!--link testkit to launcher--><g class="link" data-entity-1="testkit" data-entity-2="launcher" data-source-line="90" data-uid="lnk55" id="link_testkit_launcher"><path d="M404.75,384.06 C423.76,401.7 445.8829,422.2576 464.8829,439.8976" fill="none" id="testkit-to-launcher" style="stroke:#181818;stroke-width:1;stroke-dasharray:7.0,7.0;"/><polygon fill="#181818" points="469.28,443.98,465.4059,434.9251,465.6158,440.578,459.9628,440.7879,469.28,443.98" style="stroke:#181818;stroke-width:1;"/></g><!--link vintage_engine to engine--><g class="link" data-entity-1="vintage_engine" data-entity-2="engine" data-source-line="92" data-uid="lnk56" id="link_vintage_engine_engine"><path d="M962.68,384.1 C940.13,415.56 895.49,473.9 848,514 C824.43,533.91 800.0673,548.9251 775.9073,561.9951" fill="none" id="vintage_engine-to-engine" style="stroke:#181818;stroke-width:1;stroke-dasharray:7.0,7.0;"/><polygon fill="#181818" points="770.63,564.85,780.4492,564.0859,775.0277,562.4709,776.6427,557.0495,770.63,564.85" style="stroke:#181818;stroke-width:1;"/></g><!--link vintage_engine to junit4--><g class="link" data-entity-1="vintage_engine" data-entity-2="junit4" data-source-line="93" data-uid="lnk57" id="link_vintage_engine_junit4"><path d="M982.58,384.4 C991.4,427.52 1009.4384,515.7616 1018.2384,558.8116" fill="none" id="vintage_engine-to-junit4" style="stroke:#181818;stroke-width:1;stroke-dasharray:7.0,7.0;"/><polygon fill="#181818" points="1019.44,564.69,1021.5565,555.0712,1018.4386,559.7913,1013.7186,556.6734,1019.44,564.69" style="stroke:#181818;stroke-width:1;"/></g><!--SRC=[bLKzZzmW4Etv5UXIszLMAKvAao95ggGwdLQpzjZBhGqMZEz3KVvx06CCDdjIjl32UszcXpTurjo4d433oFymRZyjTZ0Fz5r9-WaZSWFIL0QrwDXVnYPeRj0ZLxglNsOfo3udGQX3z9C7gm0-Sp0yh0jq1PD89MUxBybGza9YfboWajYVnMJY1Ig9Hz5h8A6acQT9QSh28daERDc0Lo798Pa10KnB3z1QUZ7ND01rIezviXMj6ZMEjbQVBgplwAHH0mQTNnTrINL7GwDgW5asrz3DTLDKQdGs2TbxQTmLjMQs9dkTNztNn5lYT_ixijEc3YtwptnQOX8Nbf1Fl20qT1FBFGdhj9CFFtvREJyzP0tywf_XRjdLQTzyDQ5qsKulQzo6FDyNrz7XDCpNkBMY8gK6zss2ZOhqEM1dY-tJMt_x6NGhGAvP4oWs8y6yI2f2Vb54QkIgIsd-vUswDjXzlWq31rjQ1mtPU_VUu4IHJ9m0sVB4lYYvmYjoi7FAIbkKpGTNajDLcAXOizVyrnKvjZqQ7nK55qJ9rIY8iEMTjYLdyRRgtWr4st5Bk15uizvqaTS8BLp48EYZzg0jn9tVMRcEmxf-pCPQ2GzpgKI5AyYI59PtYisXFVaOPmBBqonaI7cWyZfPNjozSno7utyflTI_2IpC9nyUXqiARcE4hJnFpiEsC-Rk90UClcmlJFPpAHpox5uIvYU3Zzh6q1vRAqft2HshoBPv9KTg-paM1ixng1kHf6Bv7qvs2GvKxCS_]--></g></svg>