<svg xmlns="http://www.w3.org/2000/svg" xmlns:xlink="http://www.w3.org/1999/xlink" contentStyleType="text/css" data-diagram-type="DESCRIPTION" height="907px" preserveAspectRatio="none" style="width:2302px;height:907px;background:#FFFFFF;" version="1.1" viewBox="0 0 2302 907" width="2302px" zoomAndPan="magnify"><defs/><g><!--cluster org.junit.jupiter--><g class="cluster" data-entity="org.junit.jupiter" data-source-line="6" data-uid="ent0002" id="cluster_org.junit.jupiter"><path d="M1302.5,147 L1429.582,147 A3.75,3.75 0 0 1 1432.082,149.5 L1439.082,169.2969 L2038.5,169.2969 A2.5,2.5 0 0 1 2041,171.7969 L2041,503.5 A2.5,2.5 0 0 1 2038.5,506 L1302.5,506 A2.5,2.5 0 0 1 1300,503.5 L1300,149.5 A2.5,2.5 0 0 1 1302.5,147" fill="none" style="stroke:#000000;stroke-width:1.5;"/><line style="stroke:#000000;stroke-width:1.5;" x1="1300" x2="1439.082" y1="169.2969" y2="169.2969"/><text fill="#000000" font-family="sans-serif" font-size="14" font-weight="bold" lengthAdjust="spacing" textLength="126.082" x="1304" y="161.9951">org.junit.jupiter</text></g><!--cluster org.junit.vintage--><g class="cluster" data-entity="org.junit.vintage" data-source-line="14" data-uid="ent0008" id="cluster_org.junit.vintage"><path d="M1064.5,303 L1198.4521,303 A3.75,3.75 0 0 1 1200.9521,305.5 L1207.9521,325.2969 L1273.5,325.2969 A2.5,2.5 0 0 1 1276,327.7969 L1276,397.5 A2.5,2.5 0 0 1 1273.5,400 L1064.5,400 A2.5,2.5 0 0 1 1062,397.5 L1062,305.5 A2.5,2.5 0 0 1 1064.5,303" fill="none" style="stroke:#000000;stroke-width:1.5;"/><line style="stroke:#000000;stroke-width:1.5;" x1="1062" x2="1207.9521" y1="325.2969" y2="325.2969"/><text fill="#000000" font-family="sans-serif" font-size="14" font-weight="bold" lengthAdjust="spacing" textLength="132.9521" x="1066" y="317.9951">org.junit.vintage</text></g><!--cluster org.junit.platform--><g class="cluster" data-entity="org.junit.platform" data-source-line="18" data-uid="ent0010" id="cluster_org.junit.platform"><path d="M33.5,6 L176.0654,6 A3.75,3.75 0 0 1 178.5654,8.5 L185.5654,28.2969 L1035.5,28.2969 A2.5,2.5 0 0 1 1038,30.7969 L1038,730.5 A2.5,2.5 0 0 1 1035.5,733 L33.5,733 A2.5,2.5 0 0 1 31,730.5 L31,8.5 A2.5,2.5 0 0 1 33.5,6" fill="none" style="stroke:#000000;stroke-width:1.5;"/><line style="stroke:#000000;stroke-width:1.5;" x1="31" x2="185.5654" y1="28.2969" y2="28.2969"/><text fill="#000000" font-family="sans-serif" font-size="14" font-weight="bold" lengthAdjust="spacing" textLength="141.5654" x="35" y="20.9951">org.junit.platform</text></g><!--cluster JUnit 4--><g class="cluster" data-entity="JUnit 4" data-source-line="32" data-uid="ent0022" id="cluster_JUnit 4"><path d="M1152.5,530 L1206.1504,530 A3.75,3.75 0 0 1 1208.6504,532.5 L1215.6504,552.2969 L1285.5,552.2969 A2.5,2.5 0 0 1 1288,554.7969 L1288,624.5 A2.5,2.5 0 0 1 1285.5,627 L1152.5,627 A2.5,2.5 0 0 1 1150,624.5 L1150,532.5 A2.5,2.5 0 0 1 1152.5,530" fill="none" style="stroke:#000000;stroke-width:1.5;"/><line style="stroke:#000000;stroke-width:1.5;" x1="1150" x2="1215.6504" y1="552.2969" y2="552.2969"/><text fill="#000000" font-family="sans-serif" font-size="14" font-weight="bold" lengthAdjust="spacing" textLength="52.6504" x="1154" y="544.9951">JUnit 4</text></g><!--cluster org.opentest4j--><g class="cluster" data-entity="org.opentest4j" data-source-line="36" data-uid="ent0024" id="cluster_org.opentest4j"><path d="M687.5,803 L805.2168,803 A3.75,3.75 0 0 1 807.7168,805.5 L814.7168,825.2969 L830.5,825.2969 A2.5,2.5 0 0 1 833,827.7969 L833,897.5 A2.5,2.5 0 0 1 830.5,900 L687.5,900 A2.5,2.5 0 0 1 685,897.5 L685,805.5 A2.5,2.5 0 0 1 687.5,803" fill="none" style="stroke:#000000;stroke-width:1.5;"/><line style="stroke:#000000;stroke-width:1.5;" x1="685" x2="814.7168" y1="825.2969" y2="825.2969"/><text fill="#000000" font-family="sans-serif" font-size="14" font-weight="bold" lengthAdjust="spacing" textLength="116.7168" x="689" y="817.9951">org.opentest4j</text></g><!--cluster org.opentest4j.reporting--><g class="cluster" data-entity="org.opentest4j.reporting" data-source-line="40" data-uid="ent0026" id="cluster_org.opentest4j.reporting"><path d="M8.5,803 L205.958,803 A3.75,3.75 0 0 1 208.458,805.5 L215.458,825.2969 L291.5,825.2969 A2.5,2.5 0 0 1 294,827.7969 L294,897.5 A2.5,2.5 0 0 1 291.5,900 L8.5,900 A2.5,2.5 0 0 1 6,897.5 L6,805.5 A2.5,2.5 0 0 1 8.5,803" fill="none" style="stroke:#000000;stroke-width:1.5;"/><line style="stroke:#000000;stroke-width:1.5;" x1="6" x2="215.458" y1="825.2969" y2="825.2969"/><text fill="#000000" font-family="sans-serif" font-size="14" font-weight="bold" lengthAdjust="spacing" textLength="196.458" x="10" y="817.9951">org.opentest4j.reporting</text></g><!--cluster org.apiguardian--><g class="cluster" data-entity="org.apiguardian" data-source-line="44" data-uid="ent0028" id="cluster_org.apiguardian"><path d="M2067.5,6 L2195.2041,6 A3.75,3.75 0 0 1 2197.7041,8.5 L2204.7041,28.2969 L2292.5,28.2969 A2.5,2.5 0 0 1 2295,30.7969 L2295,276.5 A2.5,2.5 0 0 1 2292.5,279 L2067.5,279 A2.5,2.5 0 0 1 2065,276.5 L2065,8.5 A2.5,2.5 0 0 1 2067.5,6" fill="none" style="stroke:#000000;stroke-width:1.5;"/><line style="stroke:#000000;stroke-width:1.5;" x1="2065" x2="2204.7041" y1="28.2969" y2="28.2969"/><text fill="#000000" font-family="sans-serif" font-size="14" font-weight="bold" lengthAdjust="spacing" textLength="126.7041" x="2069" y="20.9951">org.apiguardian</text></g><!--entity jupiter--><g class="entity" data-entity="jupiter" data-source-line="7" data-uid="ent0003" id="entity_jupiter"><rect fill="#F1F1F1" height="46.2969" rx="2.5" ry="2.5" style="stroke:#181818;stroke-width:0.5;" width="121.4639" x="1837.5" y="182"/><rect fill="#F1F1F1" height="10" style="stroke:#181818;stroke-width:0.5;" width="15" x="1938.9639" y="187"/><rect fill="#F1F1F1" height="2" style="stroke:#181818;stroke-width:0.5;" width="4" x="1936.9639" y="189"/><rect fill="#F1F1F1" height="2" style="stroke:#181818;stroke-width:0.5;" width="4" x="1936.9639" y="193"/><text fill="#000000" font-family="sans-serif" font-size="14" lengthAdjust="spacing" textLength="81.4639" x="1852.5" y="214.9951">junit-jupiter</text></g><!--entity jupiter_api--><g class="entity" data-entity="jupiter_api" data-source-line="8" data-uid="ent0004" id="entity_jupiter_api"><rect fill="#F1F1F1" height="46.2969" rx="2.5" ry="2.5" style="stroke:#181818;stroke-width:0.5;" width="147.8711" x="1558" y="444"/><rect fill="#F1F1F1" height="10" style="stroke:#181818;stroke-width:0.5;" width="15" x="1685.8711" y="449"/><rect fill="#F1F1F1" height="2" style="stroke:#181818;stroke-width:0.5;" width="4" x="1683.8711" y="451"/><rect fill="#F1F1F1" height="2" style="stroke:#181818;stroke-width:0.5;" width="4" x="1683.8711" y="455"/><text fill="#000000" font-family="sans-serif" font-size="14" lengthAdjust="spacing" textLength="107.8711" x="1573" y="476.9951">junit-jupiter-api</text></g><!--entity jupiter_engine--><g class="entity" data-entity="jupiter_engine" data-source-line="9" data-uid="ent0005" id="entity_jupiter_engine"><rect fill="#F1F1F1" height="46.2969" rx="2.5" ry="2.5" style="stroke:#181818;stroke-width:0.5;" width="174.2646" x="1316" y="338"/><rect fill="#F1F1F1" height="10" style="stroke:#181818;stroke-width:0.5;" width="15" x="1470.2646" y="343"/><rect fill="#F1F1F1" height="2" style="stroke:#181818;stroke-width:0.5;" width="4" x="1468.2646" y="345"/><rect fill="#F1F1F1" height="2" style="stroke:#181818;stroke-width:0.5;" width="4" x="1468.2646" y="349"/><text fill="#000000" font-family="sans-serif" font-size="14" lengthAdjust="spacing" textLength="134.2646" x="1331" y="370.9951">junit-jupiter-engine</text></g><!--entity jupiter_params--><g class="entity" data-entity="jupiter_params" data-source-line="10" data-uid="ent0006" id="entity_jupiter_params"><rect fill="#F1F1F1" height="46.2969" rx="2.5" ry="2.5" style="stroke:#181818;stroke-width:0.5;" width="179.248" x="1808.5" y="338"/><rect fill="#F1F1F1" height="10" style="stroke:#181818;stroke-width:0.5;" width="15" x="1967.748" y="343"/><rect fill="#F1F1F1" height="2" style="stroke:#181818;stroke-width:0.5;" width="4" x="1965.748" y="345"/><rect fill="#F1F1F1" height="2" style="stroke:#181818;stroke-width:0.5;" width="4" x="1965.748" y="349"/><text fill="#000000" font-family="sans-serif" font-size="14" lengthAdjust="spacing" textLength="139.248" x="1823.5" y="370.9951">junit-jupiter-params</text></g><!--entity jupiter_migration_support--><g class="entity" data-entity="jupiter_migration_support" data-source-line="11" data-uid="ent0007" id="entity_jupiter_migration_support"><rect fill="#F1F1F1" height="46.2969" rx="2.5" ry="2.5" style="stroke:#181818;stroke-width:0.5;" width="247.833" x="1525" y="338"/><rect fill="#F1F1F1" height="10" style="stroke:#181818;stroke-width:0.5;" width="15" x="1752.833" y="343"/><rect fill="#F1F1F1" height="2" style="stroke:#181818;stroke-width:0.5;" width="4" x="1750.833" y="345"/><rect fill="#F1F1F1" height="2" style="stroke:#181818;stroke-width:0.5;" width="4" x="1750.833" y="349"/><text fill="#000000" font-family="sans-serif" font-size="14" lengthAdjust="spacing" textLength="207.833" x="1540" y="370.9951">junit-jupiter-migrationsupport</text></g><!--entity vintage_engine--><g class="entity" data-entity="vintage_engine" data-source-line="15" data-uid="ent0009" id="entity_vintage_engine"><rect fill="#F1F1F1" height="46.2969" rx="2.5" ry="2.5" style="stroke:#181818;stroke-width:0.5;" width="181.4834" x="1078.5" y="338"/><rect fill="#F1F1F1" height="10" style="stroke:#181818;stroke-width:0.5;" width="15" x="1239.9834" y="343"/><rect fill="#F1F1F1" height="2" style="stroke:#181818;stroke-width:0.5;" width="4" x="1237.9834" y="345"/><rect fill="#F1F1F1" height="2" style="stroke:#181818;stroke-width:0.5;" width="4" x="1237.9834" y="349"/><text fill="#000000" font-family="sans-serif" font-size="14" lengthAdjust="spacing" textLength="141.4834" x="1093.5" y="370.9951">junit-vintage-engine</text></g><!--entity commons--><g class="entity" data-entity="commons" data-source-line="19" data-uid="ent0011" id="entity_commons"><rect fill="#F1F1F1" height="46.2969" rx="2.5" ry="2.5" style="stroke:#181818;stroke-width:0.5;" width="209.1211" x="812.5" y="671"/><rect fill="#F1F1F1" height="10" style="stroke:#181818;stroke-width:0.5;" width="15" x="1001.6211" y="676"/><rect fill="#F1F1F1" height="2" style="stroke:#181818;stroke-width:0.5;" width="4" x="999.6211" y="678"/><rect fill="#F1F1F1" height="2" style="stroke:#181818;stroke-width:0.5;" width="4" x="999.6211" y="682"/><text fill="#000000" font-family="sans-serif" font-size="14" lengthAdjust="spacing" textLength="169.1211" x="827.5" y="703.9951">junit-platform-commons</text></g><!--entity console--><g class="entity" data-entity="console" data-source-line="20" data-uid="ent0012" id="entity_console"><rect fill="#F1F1F1" height="46.2969" rx="2.5" ry="2.5" style="stroke:#181818;stroke-width:0.5;" width="194.3486" x="233" y="182"/><rect fill="#F1F1F1" height="10" style="stroke:#181818;stroke-width:0.5;" width="15" x="407.3486" y="187"/><rect fill="#F1F1F1" height="2" style="stroke:#181818;stroke-width:0.5;" width="4" x="405.3486" y="189"/><rect fill="#F1F1F1" height="2" style="stroke:#181818;stroke-width:0.5;" width="4" x="405.3486" y="193"/><text fill="#000000" font-family="sans-serif" font-size="14" lengthAdjust="spacing" textLength="154.3486" x="248" y="214.9951">junit-platform-console</text></g><!--entity engine--><g class="entity" data-entity="engine" data-source-line="21" data-uid="ent0013" id="entity_engine"><rect fill="#F1F1F1" height="46.2969" rx="2.5" ry="2.5" style="stroke:#181818;stroke-width:0.5;" width="188.5996" x="822.5" y="565"/><rect fill="#F1F1F1" height="10" style="stroke:#181818;stroke-width:0.5;" width="15" x="991.0996" y="570"/><rect fill="#F1F1F1" height="2" style="stroke:#181818;stroke-width:0.5;" width="4" x="989.0996" y="572"/><rect fill="#F1F1F1" height="2" style="stroke:#181818;stroke-width:0.5;" width="4" x="989.0996" y="576"/><text fill="#000000" font-family="sans-serif" font-size="14" lengthAdjust="spacing" textLength="148.5996" x="837.5" y="597.9951">junit-platform-engine</text></g><!--entity jfr--><g class="entity" data-entity="jfr" data-source-line="22" data-uid="ent0014" id="entity_jfr"><rect fill="#F1F1F1" height="46.2969" rx="2.5" ry="2.5" style="stroke:#181818;stroke-width:0.5;" width="155.4248" x="546.5" y="338"/><rect fill="#F1F1F1" height="10" style="stroke:#181818;stroke-width:0.5;" width="15" x="681.9248" y="343"/><rect fill="#F1F1F1" height="2" style="stroke:#181818;stroke-width:0.5;" width="4" x="679.9248" y="345"/><rect fill="#F1F1F1" height="2" style="stroke:#181818;stroke-width:0.5;" width="4" x="679.9248" y="349"/><text fill="#000000" font-family="sans-serif" font-size="14" lengthAdjust="spacing" textLength="115.4248" x="561.5" y="370.9951">junit-platform-jfr</text></g><!--entity launcher--><g class="entity" data-entity="launcher" data-source-line="23" data-uid="ent0015" id="entity_launcher"><rect fill="#F1F1F1" height="46.2969" rx="2.5" ry="2.5" style="stroke:#181818;stroke-width:0.5;" width="202.0049" x="500" y="444"/><rect fill="#F1F1F1" height="10" style="stroke:#181818;stroke-width:0.5;" width="15" x="682.0049" y="449"/><rect fill="#F1F1F1" height="2" style="stroke:#181818;stroke-width:0.5;" width="4" x="680.0049" y="451"/><rect fill="#F1F1F1" height="2" style="stroke:#181818;stroke-width:0.5;" width="4" x="680.0049" y="455"/><text fill="#000000" font-family="sans-serif" font-size="14" lengthAdjust="spacing" textLength="162.0049" x="515" y="476.9951">junit-platform-launcher</text></g><!--entity reporting--><g class="entity" data-entity="reporting" data-source-line="24" data-uid="ent0016" id="entity_reporting"><rect fill="#F1F1F1" height="46.2969" rx="2.5" ry="2.5" style="stroke:#181818;stroke-width:0.5;" width="205.5664" x="47" y="338"/><rect fill="#F1F1F1" height="10" style="stroke:#181818;stroke-width:0.5;" width="15" x="232.5664" y="343"/><rect fill="#F1F1F1" height="2" style="stroke:#181818;stroke-width:0.5;" width="4" x="230.5664" y="345"/><rect fill="#F1F1F1" height="2" style="stroke:#181818;stroke-width:0.5;" width="4" x="230.5664" y="349"/><text fill="#000000" font-family="sans-serif" font-size="14" lengthAdjust="spacing" textLength="165.5664" x="62" y="370.9951">junit-platform-reporting</text></g><!--entity suite--><g class="entity" data-entity="suite" data-source-line="25" data-uid="ent0017" id="entity_suite"><rect fill="#F1F1F1" height="46.2969" rx="2.5" ry="2.5" style="stroke:#181818;stroke-width:0.5;" width="175.0098" x="812.5" y="41"/><rect fill="#F1F1F1" height="10" style="stroke:#181818;stroke-width:0.5;" width="15" x="967.5098" y="46"/><rect fill="#F1F1F1" height="2" style="stroke:#181818;stroke-width:0.5;" width="4" x="965.5098" y="48"/><rect fill="#F1F1F1" height="2" style="stroke:#181818;stroke-width:0.5;" width="4" x="965.5098" y="52"/><text fill="#000000" font-family="sans-serif" font-size="14" lengthAdjust="spacing" textLength="135.0098" x="827.5" y="73.9951">junit-platform-suite</text></g><!--entity suite_api--><g class="entity" data-entity="suite_api" data-source-line="26" data-uid="ent0018" id="entity_suite_api"><rect fill="#F1F1F1" height="46.2969" rx="2.5" ry="2.5" style="stroke:#181818;stroke-width:0.5;" width="201.417" x="790.5" y="444"/><rect fill="#F1F1F1" height="10" style="stroke:#181818;stroke-width:0.5;" width="15" x="971.917" y="449"/><rect fill="#F1F1F1" height="2" style="stroke:#181818;stroke-width:0.5;" width="4" x="969.917" y="451"/><rect fill="#F1F1F1" height="2" style="stroke:#181818;stroke-width:0.5;" width="4" x="969.917" y="455"/><text fill="#000000" font-family="sans-serif" font-size="14" lengthAdjust="spacing" textLength="161.417" x="805.5" y="476.9951">junit-platform-suite-api</text></g><!--entity suite_commons--><g class="entity" data-entity="suite_commons" data-source-line="27" data-uid="ent0019" id="entity_suite_commons"><rect fill="#F1F1F1" height="46.2969" rx="2.5" ry="2.5" style="stroke:#181818;stroke-width:0.5;" width="248.332" x="737" y="338"/><rect fill="#F1F1F1" height="10" style="stroke:#181818;stroke-width:0.5;" width="15" x="965.332" y="343"/><rect fill="#F1F1F1" height="2" style="stroke:#181818;stroke-width:0.5;" width="4" x="963.332" y="345"/><rect fill="#F1F1F1" height="2" style="stroke:#181818;stroke-width:0.5;" width="4" x="963.332" y="349"/><text fill="#000000" font-family="sans-serif" font-size="14" lengthAdjust="spacing" textLength="208.332" x="752" y="370.9951">junit-platform-suite-commons</text></g><!--entity suite_engine--><g class="entity" data-entity="suite_engine" data-source-line="28" data-uid="ent0020" id="entity_suite_engine"><rect fill="#F1F1F1" height="46.2969" rx="2.5" ry="2.5" style="stroke:#181818;stroke-width:0.5;" width="227.8105" x="752" y="182"/><rect fill="#F1F1F1" height="10" style="stroke:#181818;stroke-width:0.5;" width="15" x="959.8105" y="187"/><rect fill="#F1F1F1" height="2" style="stroke:#181818;stroke-width:0.5;" width="4" x="957.8105" y="189"/><rect fill="#F1F1F1" height="2" style="stroke:#181818;stroke-width:0.5;" width="4" x="957.8105" y="193"/><text fill="#000000" font-family="sans-serif" font-size="14" lengthAdjust="spacing" textLength="187.8105" x="767" y="214.9951">junit-platform-suite-engine</text></g><!--entity testkit--><g class="entity" data-entity="testkit" data-source-line="29" data-uid="ent0021" id="entity_testkit"><rect fill="#F1F1F1" height="46.2969" rx="2.5" ry="2.5" style="stroke:#181818;stroke-width:0.5;" width="185.2227" x="288.5" y="338"/><rect fill="#F1F1F1" height="10" style="stroke:#181818;stroke-width:0.5;" width="15" x="453.7227" y="343"/><rect fill="#F1F1F1" height="2" style="stroke:#181818;stroke-width:0.5;" width="4" x="451.7227" y="345"/><rect fill="#F1F1F1" height="2" style="stroke:#181818;stroke-width:0.5;" width="4" x="451.7227" y="349"/><text fill="#000000" font-family="sans-serif" font-size="14" lengthAdjust="spacing" textLength="145.2227" x="303.5" y="370.9951">junit-platform-testkit</text></g><!--entity junit4--><g class="entity" data-entity="junit4" data-source-line="33" data-uid="ent0023" id="entity_junit4"><rect fill="#F1F1F1" height="46.2969" rx="2.5" ry="2.5" style="stroke:#181818;stroke-width:0.5;" width="106.7461" x="1165.5" y="565"/><rect fill="#F1F1F1" height="10" style="stroke:#181818;stroke-width:0.5;" width="15" x="1252.2461" y="570"/><rect fill="#F1F1F1" height="2" style="stroke:#181818;stroke-width:0.5;" width="4" x="1250.2461" y="572"/><rect fill="#F1F1F1" height="2" style="stroke:#181818;stroke-width:0.5;" width="4" x="1250.2461" y="576"/><text fill="#000000" font-family="sans-serif" font-size="14" lengthAdjust="spacing" textLength="66.7461" x="1180.5" y="597.9951">junit:junit</text></g><!--entity opentest4j--><g class="entity" data-entity="opentest4j" data-source-line="37" data-uid="ent0025" id="entity_opentest4j"><rect fill="#F1F1F1" height="46.2969" rx="2.5" ry="2.5" style="stroke:#181818;stroke-width:0.5;" width="114.6211" x="701.5" y="838"/><rect fill="#F1F1F1" height="10" style="stroke:#181818;stroke-width:0.5;" width="15" x="796.1211" y="843"/><rect fill="#F1F1F1" height="2" style="stroke:#181818;stroke-width:0.5;" width="4" x="794.1211" y="845"/><rect fill="#F1F1F1" height="2" style="stroke:#181818;stroke-width:0.5;" width="4" x="794.1211" y="849"/><text fill="#000000" font-family="sans-serif" font-size="14" lengthAdjust="spacing" textLength="74.6211" x="716.5" y="870.9951">opentest4j</text></g><!--entity otr_tooling_spi--><g class="entity" data-entity="otr_tooling_spi" data-source-line="41" data-uid="ent0027" id="entity_otr_tooling_spi"><rect fill="#F1F1F1" height="46.2969" rx="2.5" ry="2.5" style="stroke:#181818;stroke-width:0.5;" width="254.9766" x="22.5" y="838"/><rect fill="#F1F1F1" height="10" style="stroke:#181818;stroke-width:0.5;" width="15" x="257.4766" y="843"/><rect fill="#F1F1F1" height="2" style="stroke:#181818;stroke-width:0.5;" width="4" x="255.4766" y="845"/><rect fill="#F1F1F1" height="2" style="stroke:#181818;stroke-width:0.5;" width="4" x="255.4766" y="849"/><text fill="#000000" font-family="sans-serif" font-size="14" lengthAdjust="spacing" textLength="214.9766" x="37.5" y="870.9951">open-test-reporting-tooling-spi</text></g><!--entity apiguardian--><g class="entity" data-entity="apiguardian" data-source-line="45" data-uid="ent0029" id="entity_apiguardian"><rect fill="#F1F1F1" height="46.2969" rx="2.5" ry="2.5" style="stroke:#181818;stroke-width:0.5;" width="150.0859" x="2105" y="41"/><rect fill="#F1F1F1" height="10" style="stroke:#181818;stroke-width:0.5;" width="15" x="2235.0859" y="46"/><rect fill="#F1F1F1" height="2" style="stroke:#181818;stroke-width:0.5;" width="4" x="2233.0859" y="48"/><rect fill="#F1F1F1" height="2" style="stroke:#181818;stroke-width:0.5;" width="4" x="2233.0859" y="52"/><text fill="#000000" font-family="sans-serif" font-size="14" lengthAdjust="spacing" textLength="110.0859" x="2120" y="73.9951">apiguardian-api</text></g><g class="entity" data-entity="GMN30" data-source-line="47" data-uid="ent0031" id="entity_GMN30"><path d="M2081.5,147 L2081.5,262.9297 A0,0 0 0 0 2081.5,262.9297 L2278.876,262.9297 A0,0 0 0 0 2278.876,262.9297 L2278.876,157 L2268.876,147 L2184,147 L2180,87.02 L2176,147 L2081.5,147 A0,0 0 0 0 2081.5,147" fill="#FFFFFF" style="stroke:#181818;stroke-width:0.5;"/><path d="M2268.876,147 L2268.876,157 L2278.876,157 L2268.876,147" fill="#FFFFFF" style="stroke:#181818;stroke-width:0.5;"/><text fill="#000000" font-family="sans-serif" font-size="13" lengthAdjust="spacing" textLength="122.1479" x="2087.5" y="164.0669">All artifacts except</text><text fill="#000000" font-family="sans-serif" font-size="13" lengthAdjust="spacing" textLength="163.9917" x="2087.5" y="179.1997">opentest4j and junit:junit</text><text fill="#000000" font-family="sans-serif" font-size="13" lengthAdjust="spacing" textLength="176.376" x="2087.5" y="194.3325">have a dependency on this</text><text fill="#000000" font-family="sans-serif" font-size="13" lengthAdjust="spacing" textLength="158.6851" x="2087.5" y="209.4653">artifact. The edges have</text><text fill="#000000" font-family="sans-serif" font-size="13" lengthAdjust="spacing" textLength="149.8174" x="2087.5" y="224.5981">been omitted from this</text><text fill="#000000" font-family="sans-serif" font-size="13" lengthAdjust="spacing" textLength="152.5913" x="2087.5" y="239.731">diagram for the sake of</text><text fill="#000000" font-family="sans-serif" font-size="13" lengthAdjust="spacing" textLength="73.5376" x="2087.5" y="254.8638">readability.</text></g><!--link jupiter to jupiter_api--><g class="link" data-entity-1="jupiter" data-entity-2="jupiter_api" data-source-line="57" data-uid="lnk33" id="link_jupiter_jupiter_api"><path d="M1939.46,228.09 C1963.43,243.36 1991.46,266.12 2005,295 C2026.32,340.47 2037.67,369.86 2005,408 C1967.32,451.99 1809.868,462.7245 1712.268,465.2545" fill="none" id="jupiter-to-jupiter_api" style="stroke:#181818;stroke-width:1;stroke-dasharray:7.0,7.0;"/><polygon fill="#181818" points="1706.27,465.41,1715.3706,469.1754,1711.2683,465.2804,1715.1633,461.1781,1706.27,465.41" style="stroke:#181818;stroke-width:1;"/></g><!--link jupiter to jupiter_params--><g class="link" data-entity-1="jupiter" data-entity-2="jupiter_params" data-source-line="58" data-uid="lnk34" id="link_jupiter_jupiter_params"><path d="M1898,228.06 C1898,257.34 1898,302.72 1898,331.98" fill="none" id="jupiter-to-jupiter_params" style="stroke:#181818;stroke-width:1;stroke-dasharray:7.0,7.0;"/><polygon fill="#181818" points="1898,337.98,1902,328.98,1898,332.98,1894,328.98,1898,337.98" style="stroke:#181818;stroke-width:1;"/></g><!--link jupiter to jupiter_engine--><g class="link" data-entity-1="jupiter" data-entity-2="jupiter_engine" data-source-line="59" data-uid="lnk35" id="link_jupiter_jupiter_engine"><path d="M1837.33,213.52 C1758.99,224.64 1619.48,249.26 1508,295 C1481.02,306.07 1458.004,320.2916 1437.724,334.4116" fill="none" id="jupiter-to-jupiter_engine" style="stroke:#181818;stroke-width:1;stroke-dasharray:7.0,7.0;"/><polygon fill="#181818" points="1432.8,337.84,1442.4717,335.9801,1436.9034,334.983,1437.9005,329.4147,1432.8,337.84" style="stroke:#181818;stroke-width:1;"/></g><!--link jupiter_api to opentest4j--><g class="link" data-entity-1="jupiter_api" data-entity-2="opentest4j" data-source-line="61" data-uid="lnk36" id="link_jupiter_api_opentest4j"><path d="M1612.02,490.06 C1578.99,525.31 1509.54,594.48 1438,635 C1225.13,755.57 943.6657,822.605 822.5257,847.655" fill="none" id="jupiter_api-to-opentest4j" style="stroke:#181818;stroke-width:1;stroke-dasharray:7.0,7.0;"/><polygon fill="#181818" points="816.65,848.87,826.2735,850.9646,821.5464,847.8575,824.6535,843.1304,816.65,848.87" style="stroke:#181818;stroke-width:1;"/></g><!--link jupiter_api to commons--><g class="link" data-entity-1="jupiter_api" data-entity-2="commons" data-source-line="62" data-uid="lnk37" id="link_jupiter_api_commons"><path d="M1595.83,490.06 C1534.73,526.27 1406.15,598 1288,635 C1200.44,662.42 1102.9785,676.6156 1027.5985,684.3756" fill="none" id="jupiter_api-to-commons" style="stroke:#181818;stroke-width:1;stroke-dasharray:7.0,7.0;"/><polygon fill="#181818" points="1021.63,684.99,1030.9923,688.0473,1026.6037,684.478,1030.1731,680.0894,1021.63,684.99" style="stroke:#181818;stroke-width:1;"/></g><!--link jupiter_engine to engine--><g class="link" data-entity-1="jupiter_engine" data-entity-2="engine" data-source-line="64" data-uid="lnk38" id="link_jupiter_engine_engine"><path d="M1355.07,384.19 C1261.92,427.32 1062.8847,519.459 970.0147,562.459" fill="none" id="jupiter_engine-to-engine" style="stroke:#181818;stroke-width:1;stroke-dasharray:7.0,7.0;"/><polygon fill="#181818" points="964.57,564.98,974.4177,564.8284,969.1072,562.8792,971.0564,557.5688,964.57,564.98" style="stroke:#181818;stroke-width:1;"/></g><!--link jupiter_engine to jupiter_api--><g class="link" data-entity-1="jupiter_engine" data-entity-2="jupiter_api" data-source-line="65" data-uid="lnk39" id="link_jupiter_engine_jupiter_api"><path d="M1451.57,384.06 C1490.43,401.7 1539.197,423.8589 1578.037,441.4989" fill="none" id="jupiter_engine-to-jupiter_api" style="stroke:#181818;stroke-width:1;stroke-dasharray:7.0,7.0;"/><polygon fill="#181818" points="1583.5,443.98,1576.9596,436.6163,1578.9475,441.9124,1573.6515,443.9003,1583.5,443.98" style="stroke:#181818;stroke-width:1;"/></g><!--link jupiter_params to jupiter_api--><g class="link" data-entity-1="jupiter_params" data-entity-2="jupiter_api" data-source-line="67" data-uid="lnk40" id="link_jupiter_params_jupiter_api"><path d="M1848.16,384.12 C1830.23,391.89 1809.79,400.54 1791,408 C1759.59,420.47 1729.9689,431.4177 1700.6389,441.9177" fill="none" id="jupiter_params-to-jupiter_api" style="stroke:#181818;stroke-width:1;stroke-dasharray:7.0,7.0;"/><polygon fill="#181818" points="1694.99,443.94,1704.8116,444.6725,1699.6974,442.2548,1702.1152,437.1406,1694.99,443.94" style="stroke:#181818;stroke-width:1;"/></g><!--link jupiter_migration_support to jupiter_api--><g class="link" data-entity-1="jupiter_migration_support" data-entity-2="jupiter_api" data-source-line="68" data-uid="lnk41" id="link_jupiter_migration_support_jupiter_api"><path d="M1645.39,384.06 C1642.51,401.7 1639.4468,420.4184 1636.5668,438.0584" fill="none" id="jupiter_migration_support-to-jupiter_api" style="stroke:#181818;stroke-width:1;stroke-dasharray:7.0,7.0;"/><polygon fill="#181818" points="1635.6,443.98,1640.9979,435.7421,1636.4057,439.0453,1633.1025,434.4531,1635.6,443.98" style="stroke:#181818;stroke-width:1;"/></g><!--link jupiter_migration_support to junit4--><g class="link" data-entity-1="jupiter_migration_support" data-entity-2="junit4" data-source-line="69" data-uid="lnk42" id="link_jupiter_migration_support_junit4"><path d="M1607.93,384.15 C1552.49,413.97 1450.58,468.53 1363,514 C1329.67,531.31 1297.1298,547.8032 1268.5898,562.1632" fill="none" id="jupiter_migration_support-to-junit4" style="stroke:#181818;stroke-width:1;stroke-dasharray:7.0,7.0;"/><polygon fill="#181818" points="1263.23,564.86,1273.0675,564.388,1267.6965,562.6127,1269.4718,557.2416,1263.23,564.86" style="stroke:#181818;stroke-width:1;"/></g><!--link console to launcher--><g class="link" data-entity-1="console" data-entity-2="launcher" data-source-line="71" data-uid="lnk43" id="link_console_launcher"><path d="M393.64,228.15 C426.76,242.58 465.53,264.46 491,295 C524.94,335.69 498.71,364.53 529,408 C538.73,421.96 547.9158,430.7325 561.0058,440.4125" fill="none" id="console-to-launcher" style="stroke:#181818;stroke-width:1;stroke-dasharray:7.0,7.0;"/><polygon fill="#181818" points="565.83,443.98,560.972,435.4126,561.8098,441.0071,556.2154,441.8449,565.83,443.98" style="stroke:#181818;stroke-width:1;"/></g><!--link console to reporting--><g class="link" data-entity-1="console" data-entity-2="reporting" data-source-line="72" data-uid="lnk44" id="link_console_reporting"><path d="M304.21,228.06 C269.99,257.34 214.4991,304.8194 180.2991,334.0794" fill="none" id="console-to-reporting" style="stroke:#181818;stroke-width:1;stroke-dasharray:7.0,7.0;"/><polygon fill="#181818" points="175.74,337.98,185.1791,335.1685,179.5393,334.7295,179.9783,329.0897,175.74,337.98" style="stroke:#181818;stroke-width:1;"/></g><!--link launcher to engine--><g class="link" data-entity-1="launcher" data-entity-2="engine" data-source-line="74" data-uid="lnk45" id="link_launcher_engine"><path d="M659.7,490.1 C716.37,511.44 796.0848,541.4658 852.7348,562.7958" fill="none" id="launcher-to-engine" style="stroke:#181818;stroke-width:1;stroke-dasharray:7.0,7.0;"/><polygon fill="#181818" points="858.35,564.91,851.3368,557.9952,853.6707,563.1481,848.5178,565.4821,858.35,564.91" style="stroke:#181818;stroke-width:1;"/></g><!--link jfr to launcher--><g class="link" data-entity-1="jfr" data-entity-2="launcher" data-source-line="76" data-uid="lnk46" id="link_jfr_launcher"><path d="M619.12,384.06 C615.22,401.7 611.0653,420.4815 607.1653,438.1215" fill="none" id="jfr-to-launcher" style="stroke:#181818;stroke-width:1;stroke-dasharray:7.0,7.0;"/><polygon fill="#181818" points="605.87,443.98,611.7186,436.0557,606.9494,439.0979,603.9072,434.3287,605.87,443.98" style="stroke:#181818;stroke-width:1;"/></g><!--link engine to opentest4j--><g class="link" data-entity-1="engine" data-entity-2="opentest4j" data-source-line="78" data-uid="lnk47" id="link_engine_opentest4j"><path d="M866.74,611.02 C841.37,624.69 812.37,644.7 795,671 C760.49,723.26 757.1049,794.3611 757.8249,831.8711" fill="none" id="engine-to-opentest4j" style="stroke:#181818;stroke-width:1;stroke-dasharray:7.0,7.0;"/><polygon fill="#181818" points="757.94,837.87,761.7665,828.7949,757.844,832.8709,753.768,828.9484,757.94,837.87" style="stroke:#181818;stroke-width:1;"/></g><!--link engine to commons--><g class="link" data-entity-1="engine" data-entity-2="commons" data-source-line="79" data-uid="lnk48" id="link_engine_commons"><path d="M917,611.06 C917,628.7 917,647.34 917,664.98" fill="none" id="engine-to-commons" style="stroke:#181818;stroke-width:1;stroke-dasharray:7.0,7.0;"/><polygon fill="#181818" points="917,670.98,921,661.98,917,665.98,913,661.98,917,670.98" style="stroke:#181818;stroke-width:1;"/></g><!--link reporting to launcher--><g class="link" data-entity-1="reporting" data-entity-2="launcher" data-source-line="81" data-uid="lnk49" id="link_reporting_launcher"><path d="M201.4,384.01 C222.64,392.45 247.71,401.59 271,408 C346.57,428.8 428.0816,442.9228 493.9616,452.4328" fill="none" id="reporting-to-launcher" style="stroke:#181818;stroke-width:1;stroke-dasharray:7.0,7.0;"/><polygon fill="#181818" points="499.9,453.29,491.5638,448.0452,494.9513,452.5756,490.4208,455.9631,499.9,453.29" style="stroke:#181818;stroke-width:1;"/></g><!--link reporting to otr_tooling_spi--><g class="link" data-entity-1="reporting" data-entity-2="otr_tooling_spi" data-source-line="82" data-uid="lnk50" id="link_reporting_otr_tooling_spi"><path d="M150,384.04 C150,424.33 150,512.59 150,587 C150,587 150,587 150,695 C150,746.13 150,800.18 150,831.85" fill="none" id="reporting-to-otr_tooling_spi" style="stroke:#181818;stroke-width:1;stroke-dasharray:7.0,7.0;"/><polygon fill="#181818" points="150,837.85,154,828.85,150,832.85,146,828.85,150,837.85" style="stroke:#181818;stroke-width:1;"/></g><!--link suite to suite_api--><g class="link" data-entity-1="suite" data-entity-2="suite_api" data-source-line="84" data-uid="lnk51" id="link_suite_suite_api"><path d="M944.45,87.11 C964.24,99.47 985.61,116.87 997,139 C1051.75,245.31 1063.95,305.73 1002,408 C992.48,423.71 982.4579,432.5724 966.1979,441.1424" fill="none" id="suite-to-suite_api" style="stroke:#181818;stroke-width:1;stroke-dasharray:7.0,7.0;"/><polygon fill="#181818" points="960.89,443.94,970.7169,443.2822,965.3132,441.6087,966.9868,436.2051,960.89,443.94" style="stroke:#181818;stroke-width:1;"/></g><!--link suite to suite_engine--><g class="link" data-entity-1="suite" data-entity-2="suite_engine" data-source-line="85" data-uid="lnk52" id="link_suite_suite_engine"><path d="M894.61,87.02 C888.28,112.9 879.2662,149.762 872.8962,175.792" fill="none" id="suite-to-suite_engine" style="stroke:#181818;stroke-width:1;stroke-dasharray:7.0,7.0;"/><polygon fill="#181818" points="871.47,181.62,877.4947,173.8288,872.6585,176.7633,869.724,171.9271,871.47,181.62" style="stroke:#181818;stroke-width:1;"/></g><!--link suite_engine to suite_commons--><g class="link" data-entity-1="suite_engine" data-entity-2="suite_commons" data-source-line="87" data-uid="lnk53" id="link_suite_engine_suite_commons"><path d="M865.28,228.06 C864.33,257.34 862.8527,302.7231 861.9127,331.9831" fill="none" id="suite_engine-to-suite_commons" style="stroke:#181818;stroke-width:1;stroke-dasharray:7.0,7.0;"/><polygon fill="#181818" points="861.72,337.98,866.0069,329.1131,861.8805,332.9826,858.011,328.8562,861.72,337.98" style="stroke:#181818;stroke-width:1;"/></g><!--link suite_commons to launcher--><g class="link" data-entity-1="suite_commons" data-entity-2="launcher" data-source-line="89" data-uid="lnk54" id="link_suite_commons_launcher"><path d="M805.86,384.06 C761.74,401.7 705.7309,424.1117 661.6309,441.7517" fill="none" id="suite_commons-to-launcher" style="stroke:#181818;stroke-width:1;stroke-dasharray:7.0,7.0;"/><polygon fill="#181818" points="656.06,443.98,665.9019,444.3514,660.7024,442.123,662.9307,436.9236,656.06,443.98" style="stroke:#181818;stroke-width:1;"/></g><!--link suite_commons to suite_api--><g class="link" data-entity-1="suite_commons" data-entity-2="suite_api" data-source-line="90" data-uid="lnk55" id="link_suite_commons_suite_api"><path d="M867.36,384.06 C872.45,401.7 877.8966,420.5752 882.9866,438.2152" fill="none" id="suite_commons-to-suite_api" style="stroke:#181818;stroke-width:1;stroke-dasharray:7.0,7.0;"/><polygon fill="#181818" points="884.65,443.98,885.9981,434.2238,883.2638,439.176,878.3117,436.4417,884.65,443.98" style="stroke:#181818;stroke-width:1;"/></g><!--link testkit to opentest4j--><g class="link" data-entity-1="testkit" data-entity-2="opentest4j" data-source-line="92" data-uid="lnk56" id="link_testkit_opentest4j"><path d="M388.27,384.07 C400.76,424.07 425,511.38 425,587 C425,587 425,587 425,695 C425,816.75 599.6328,848.1473 695.2228,856.5073" fill="none" id="testkit-to-opentest4j" style="stroke:#181818;stroke-width:1;stroke-dasharray:7.0,7.0;"/><polygon fill="#181818" points="701.2,857.03,692.5827,852.2611,696.219,856.5944,691.8857,860.2307,701.2,857.03" style="stroke:#181818;stroke-width:1;"/></g><!--link testkit to launcher--><g class="link" data-entity-1="testkit" data-entity-2="launcher" data-source-line="93" data-uid="lnk57" id="link_testkit_launcher"><path d="M427.66,384.06 C464.99,401.7 511.6654,423.776 548.9854,441.416" fill="none" id="testkit-to-launcher" style="stroke:#181818;stroke-width:1;stroke-dasharray:7.0,7.0;"/><polygon fill="#181818" points="554.41,443.98,547.9825,436.5176,549.8895,441.8433,544.5638,443.7503,554.41,443.98" style="stroke:#181818;stroke-width:1;"/></g><!--link vintage_engine to engine--><g class="link" data-entity-1="vintage_engine" data-entity-2="engine" data-source-line="95" data-uid="lnk58" id="link_vintage_engine_engine"><path d="M1147.06,384.04 C1116.76,414.2 1060.05,469.65 1009,514 C988.53,531.78 969.2521,547.127 950.8821,561.287" fill="none" id="vintage_engine-to-engine" style="stroke:#181818;stroke-width:1;stroke-dasharray:7.0,7.0;"/><polygon fill="#181818" points="946.13,564.95,955.7001,562.6235,950.0901,561.8975,950.8161,556.2874,946.13,564.95" style="stroke:#181818;stroke-width:1;"/></g><!--link vintage_engine to junit4--><g class="link" data-entity-1="vintage_engine" data-entity-2="junit4" data-source-line="96" data-uid="lnk59" id="link_vintage_engine_junit4"><path d="M1173.98,384.4 C1183.56,427.52 1203.1793,515.7827 1212.7393,558.8327" fill="none" id="vintage_engine-to-junit4" style="stroke:#181818;stroke-width:1;stroke-dasharray:7.0,7.0;"/><polygon fill="#181818" points="1214.04,564.69,1215.9938,555.0369,1212.9561,559.8089,1208.184,556.7712,1214.04,564.69" style="stroke:#181818;stroke-width:1;"/></g><!--SRC=[bLMnZjim3Dtr5S9rjgTC7Gxeqg53ftOw70B5fXqbjcH8zBM7elzUIfPboLOEQ0P7Uk-HeHvbnjwbceGH8__3E7rQwCGyu5UjyBiOWLkXR6N1o8xzPMmIpLtqmBNfwzki9D9paWWcHBzui0hWAnUMXtM1hiGaKycPzYKPg5ugo9GBL1BxizXCl40byIXx8r1gPUTfqWQpi4YU0risu4qgT4XcG03JqWEqbbxCDGq2Est6FDcALeqUHwhLfmlh1pfbzG11vzT5NLBTqT2ekdMXaPqfyeEOLNCDtLutHQK1PwDKlPV6NL5hPsg2r_dLOqsyHNwtlqCxRUhWel_8noKcSMa9-S0h18jtkToZi4ux_VJj9ydvwIbhy6V_37UFLgVzvT0JA9VjT5lZDkJriRYE3gTXliQj5HLgFRXl6spKQCu1EnEsJq_-zhCmhHHgpPf0iHa9vaLA8_2BHjGZrrrAyq-_hck3tUVBC711fNMYGRgNlnkOC9A94qArFB4lIgxY3RYWEKRI5bJpphNYU9KsAjRiDVzn1Gvj3zP7HS45G74zIaHeUMUev2oUgkxTmAIE4-56v9sywI9lGBJY8WU9xxK7gH1tVcVbEYxh-ZaRUoKypAqI5QuWIr8GxnIRGtloESuCbgTPo93oGELrihouH-Su3i__KdgfVnDOc5y-F0wN5Dp625jvdfo7qTZAWzbswjolvCZHgUqLodAaSCYpUssOdnK-QXjCUsojCTqbTAmYs-QL7AdjvrWOGSUZRaHgJFuNbLsB0nKxz0y0]--></g></svg>