<svg xmlns="http://www.w3.org/2000/svg" xmlns:xlink="http://www.w3.org/1999/xlink" contentStyleType="text/css" data-diagram-type="DESCRIPTION" height="922px" preserveAspectRatio="none" style="width:2699px;height:922px;background:#FFFFFF;" version="1.1" viewBox="0 0 2699 922" width="2699px" zoomAndPan="magnify"><defs/><g><!--cluster org.junit.jupiter--><g class="cluster" data-entity="org.junit.jupiter" data-source-line="6" data-uid="ent0002" id="cluster_org.junit.jupiter"><path d="M1700.11,147 L1827.192,147 A3.75,3.75 0 0 1 1829.692,149.5 L1836.692,169.2969 L2436.11,169.2969 A2.5,2.5 0 0 1 2438.61,171.7969 L2438.61,518.5 A2.5,2.5 0 0 1 2436.11,521 L1700.11,521 A2.5,2.5 0 0 1 1697.61,518.5 L1697.61,149.5 A2.5,2.5 0 0 1 1700.11,147" fill="none" style="stroke:#000000;stroke-width:1.5;"/><line style="stroke:#000000;stroke-width:1.5;" x1="1697.61" x2="1836.692" y1="169.2969" y2="169.2969"/><text fill="#000000" font-family="sans-serif" font-size="14" font-weight="bold" lengthAdjust="spacing" textLength="126.082" x="1701.61" y="161.9951">org.junit.jupiter</text></g><!--cluster org.junit.vintage--><g class="cluster" data-entity="org.junit.vintage" data-source-line="14" data-uid="ent0008" id="cluster_org.junit.vintage"><path d="M1412.11,303 L1546.0621,303 A3.75,3.75 0 0 1 1548.5621,305.5 L1555.5621,325.2969 L1621.11,325.2969 A2.5,2.5 0 0 1 1623.61,327.7969 L1623.61,397.5 A2.5,2.5 0 0 1 1621.11,400 L1412.11,400 A2.5,2.5 0 0 1 1409.61,397.5 L1409.61,305.5 A2.5,2.5 0 0 1 1412.11,303" fill="none" style="stroke:#000000;stroke-width:1.5;"/><line style="stroke:#000000;stroke-width:1.5;" x1="1409.61" x2="1555.5621" y1="325.2969" y2="325.2969"/><text fill="#000000" font-family="sans-serif" font-size="14" font-weight="bold" lengthAdjust="spacing" textLength="132.9521" x="1413.61" y="317.9951">org.junit.vintage</text></g><!--cluster org.junit.platform--><g class="cluster" data-entity="org.junit.platform" data-source-line="18" data-uid="ent0010" id="cluster_org.junit.platform"><path d="M382.11,6 L524.6754,6 A3.75,3.75 0 0 1 527.1754,8.5 L534.1754,28.2969 L1383.11,28.2969 A2.5,2.5 0 0 1 1385.61,30.7969 L1385.61,745.5 A2.5,2.5 0 0 1 1383.11,748 L382.11,748 A2.5,2.5 0 0 1 379.61,745.5 L379.61,8.5 A2.5,2.5 0 0 1 382.11,6" fill="none" style="stroke:#000000;stroke-width:1.5;"/><line style="stroke:#000000;stroke-width:1.5;" x1="379.61" x2="534.1754" y1="28.2969" y2="28.2969"/><text fill="#000000" font-family="sans-serif" font-size="14" font-weight="bold" lengthAdjust="spacing" textLength="141.5654" x="383.61" y="20.9951">org.junit.platform</text></g><!--cluster JUnit 4--><g class="cluster" data-entity="JUnit 4" data-source-line="33" data-uid="ent0023" id="cluster_JUnit 4"><path d="M1594.11,545 L1647.7604,545 A3.75,3.75 0 0 1 1650.2604,547.5 L1657.2604,567.2969 L1727.11,567.2969 A2.5,2.5 0 0 1 1729.61,569.7969 L1729.61,639.5 A2.5,2.5 0 0 1 1727.11,642 L1594.11,642 A2.5,2.5 0 0 1 1591.61,639.5 L1591.61,547.5 A2.5,2.5 0 0 1 1594.11,545" fill="none" style="stroke:#000000;stroke-width:1.5;"/><line style="stroke:#000000;stroke-width:1.5;" x1="1591.61" x2="1657.2604" y1="567.2969" y2="567.2969"/><text fill="#000000" font-family="sans-serif" font-size="14" font-weight="bold" lengthAdjust="spacing" textLength="52.6504" x="1595.61" y="559.9951">JUnit 4</text></g><!--cluster org.opentest4j--><g class="cluster" data-entity="org.opentest4j" data-source-line="37" data-uid="ent0025" id="cluster_org.opentest4j"><path d="M1035.11,818 L1152.8268,818 A3.75,3.75 0 0 1 1155.3268,820.5 L1162.3268,840.2969 L1178.11,840.2969 A2.5,2.5 0 0 1 1180.61,842.7969 L1180.61,912.5 A2.5,2.5 0 0 1 1178.11,915 L1035.11,915 A2.5,2.5 0 0 1 1032.61,912.5 L1032.61,820.5 A2.5,2.5 0 0 1 1035.11,818" fill="none" style="stroke:#000000;stroke-width:1.5;"/><line style="stroke:#000000;stroke-width:1.5;" x1="1032.61" x2="1162.3268" y1="840.2969" y2="840.2969"/><text fill="#000000" font-family="sans-serif" font-size="14" font-weight="bold" lengthAdjust="spacing" textLength="116.7168" x="1036.61" y="832.9951">org.opentest4j</text></g><!--cluster org.opentest4j.reporting--><g class="cluster" data-entity="org.opentest4j.reporting" data-source-line="41" data-uid="ent0027" id="cluster_org.opentest4j.reporting"><path d="M70.11,424 L267.568,424 A3.75,3.75 0 0 1 270.068,426.5 L277.068,446.2969 L353.11,446.2969 A2.5,2.5 0 0 1 355.61,448.7969 L355.61,518.5 A2.5,2.5 0 0 1 353.11,521 L70.11,521 A2.5,2.5 0 0 1 67.61,518.5 L67.61,426.5 A2.5,2.5 0 0 1 70.11,424" fill="none" style="stroke:#000000;stroke-width:1.5;"/><line style="stroke:#000000;stroke-width:1.5;" x1="67.61" x2="277.068" y1="446.2969" y2="446.2969"/><text fill="#000000" font-family="sans-serif" font-size="14" font-weight="bold" lengthAdjust="spacing" textLength="196.458" x="71.61" y="438.9951">org.opentest4j.reporting</text></g><!--cluster org.apiguardian--><g class="cluster" data-entity="org.apiguardian" data-source-line="45" data-uid="ent0029" id="cluster_org.apiguardian"><path d="M2465.11,6 L2592.8141,6 A3.75,3.75 0 0 1 2595.3141,8.5 L2602.3141,28.2969 L2690.11,28.2969 A2.5,2.5 0 0 1 2692.61,30.7969 L2692.61,276.5 A2.5,2.5 0 0 1 2690.11,279 L2465.11,279 A2.5,2.5 0 0 1 2462.61,276.5 L2462.61,8.5 A2.5,2.5 0 0 1 2465.11,6" fill="none" style="stroke:#000000;stroke-width:1.5;"/><line style="stroke:#000000;stroke-width:1.5;" x1="2462.61" x2="2602.3141" y1="28.2969" y2="28.2969"/><text fill="#000000" font-family="sans-serif" font-size="14" font-weight="bold" lengthAdjust="spacing" textLength="126.7041" x="2466.61" y="20.9951">org.apiguardian</text></g><!--entity jupiter--><g class="entity" data-entity="jupiter" data-source-line="7" data-uid="ent0003" id="entity_jupiter"><rect fill="#F1F1F1" height="46.2969" rx="2.5" ry="2.5" style="stroke:#181818;stroke-width:0.5;" width="121.4639" x="2235.11" y="182"/><rect fill="#F1F1F1" height="10" style="stroke:#181818;stroke-width:0.5;" width="15" x="2336.5739" y="187"/><rect fill="#F1F1F1" height="2" style="stroke:#181818;stroke-width:0.5;" width="4" x="2334.5739" y="189"/><rect fill="#F1F1F1" height="2" style="stroke:#181818;stroke-width:0.5;" width="4" x="2334.5739" y="193"/><text fill="#000000" font-family="sans-serif" font-size="14" lengthAdjust="spacing" textLength="81.4639" x="2250.11" y="214.9951">junit-jupiter</text></g><!--entity jupiter_api--><g class="entity" data-entity="jupiter_api" data-source-line="8" data-uid="ent0004" id="entity_jupiter_api"><rect fill="#F1F1F1" height="46.2969" rx="2.5" ry="2.5" style="stroke:#181818;stroke-width:0.5;" width="147.8711" x="1925.61" y="459"/><rect fill="#F1F1F1" height="10" style="stroke:#181818;stroke-width:0.5;" width="15" x="2053.4811" y="464"/><rect fill="#F1F1F1" height="2" style="stroke:#181818;stroke-width:0.5;" width="4" x="2051.4811" y="466"/><rect fill="#F1F1F1" height="2" style="stroke:#181818;stroke-width:0.5;" width="4" x="2051.4811" y="470"/><text fill="#000000" font-family="sans-serif" font-size="14" lengthAdjust="spacing" textLength="107.8711" x="1940.61" y="491.9951">junit-jupiter-api</text></g><!--entity jupiter_engine--><g class="entity" data-entity="jupiter_engine" data-source-line="9" data-uid="ent0005" id="entity_jupiter_engine"><rect fill="#F1F1F1" height="46.2969" rx="2.5" ry="2.5" style="stroke:#181818;stroke-width:0.5;" width="174.2646" x="1713.61" y="338"/><rect fill="#F1F1F1" height="10" style="stroke:#181818;stroke-width:0.5;" width="15" x="1867.8746" y="343"/><rect fill="#F1F1F1" height="2" style="stroke:#181818;stroke-width:0.5;" width="4" x="1865.8746" y="345"/><rect fill="#F1F1F1" height="2" style="stroke:#181818;stroke-width:0.5;" width="4" x="1865.8746" y="349"/><text fill="#000000" font-family="sans-serif" font-size="14" lengthAdjust="spacing" textLength="134.2646" x="1728.61" y="370.9951">junit-jupiter-engine</text></g><!--entity jupiter_params--><g class="entity" data-entity="jupiter_params" data-source-line="10" data-uid="ent0006" id="entity_jupiter_params"><rect fill="#F1F1F1" height="46.2969" rx="2.5" ry="2.5" style="stroke:#181818;stroke-width:0.5;" width="179.248" x="2206.11" y="338"/><rect fill="#F1F1F1" height="10" style="stroke:#181818;stroke-width:0.5;" width="15" x="2365.358" y="343"/><rect fill="#F1F1F1" height="2" style="stroke:#181818;stroke-width:0.5;" width="4" x="2363.358" y="345"/><rect fill="#F1F1F1" height="2" style="stroke:#181818;stroke-width:0.5;" width="4" x="2363.358" y="349"/><text fill="#000000" font-family="sans-serif" font-size="14" lengthAdjust="spacing" textLength="139.248" x="2221.11" y="370.9951">junit-jupiter-params</text></g><!--entity jupiter_migration_support--><g class="entity" data-entity="jupiter_migration_support" data-source-line="11" data-uid="ent0007" id="entity_jupiter_migration_support"><rect fill="#F1F1F1" height="46.2969" rx="2.5" ry="2.5" style="stroke:#181818;stroke-width:0.5;" width="247.833" x="1922.61" y="338"/><rect fill="#F1F1F1" height="10" style="stroke:#181818;stroke-width:0.5;" width="15" x="2150.443" y="343"/><rect fill="#F1F1F1" height="2" style="stroke:#181818;stroke-width:0.5;" width="4" x="2148.443" y="345"/><rect fill="#F1F1F1" height="2" style="stroke:#181818;stroke-width:0.5;" width="4" x="2148.443" y="349"/><text fill="#000000" font-family="sans-serif" font-size="14" lengthAdjust="spacing" textLength="207.833" x="1937.61" y="370.9951">junit-jupiter-migrationsupport</text></g><!--entity vintage_engine--><g class="entity" data-entity="vintage_engine" data-source-line="15" data-uid="ent0009" id="entity_vintage_engine"><rect fill="#F1F1F1" height="46.2969" rx="2.5" ry="2.5" style="stroke:#181818;stroke-width:0.5;" width="181.4834" x="1426.11" y="338"/><rect fill="#F1F1F1" height="10" style="stroke:#181818;stroke-width:0.5;" width="15" x="1587.5934" y="343"/><rect fill="#F1F1F1" height="2" style="stroke:#181818;stroke-width:0.5;" width="4" x="1585.5934" y="345"/><rect fill="#F1F1F1" height="2" style="stroke:#181818;stroke-width:0.5;" width="4" x="1585.5934" y="349"/><text fill="#000000" font-family="sans-serif" font-size="14" lengthAdjust="spacing" textLength="141.4834" x="1441.11" y="370.9951">junit-vintage-engine</text></g><!--entity commons--><g class="entity" data-entity="commons" data-source-line="19" data-uid="ent0011" id="entity_commons"><rect fill="#F1F1F1" height="46.2969" rx="2.5" ry="2.5" style="stroke:#181818;stroke-width:0.5;" width="209.1211" x="1160.11" y="686"/><rect fill="#F1F1F1" height="10" style="stroke:#181818;stroke-width:0.5;" width="15" x="1349.2311" y="691"/><rect fill="#F1F1F1" height="2" style="stroke:#181818;stroke-width:0.5;" width="4" x="1347.2311" y="693"/><rect fill="#F1F1F1" height="2" style="stroke:#181818;stroke-width:0.5;" width="4" x="1347.2311" y="697"/><text fill="#000000" font-family="sans-serif" font-size="14" lengthAdjust="spacing" textLength="169.1211" x="1175.11" y="718.9951">junit-platform-commons</text></g><!--entity console--><g class="entity" data-entity="console" data-source-line="20" data-uid="ent0012" id="entity_console"><rect fill="#F1F1F1" height="46.2969" rx="2.5" ry="2.5" style="stroke:#181818;stroke-width:0.5;" width="194.3486" x="662.61" y="182"/><rect fill="#F1F1F1" height="10" style="stroke:#181818;stroke-width:0.5;" width="15" x="836.9586" y="187"/><rect fill="#F1F1F1" height="2" style="stroke:#181818;stroke-width:0.5;" width="4" x="834.9586" y="189"/><rect fill="#F1F1F1" height="2" style="stroke:#181818;stroke-width:0.5;" width="4" x="834.9586" y="193"/><text fill="#000000" font-family="sans-serif" font-size="14" lengthAdjust="spacing" textLength="154.3486" x="677.61" y="214.9951">junit-platform-console</text></g><!--entity engine--><g class="entity" data-entity="engine" data-source-line="21" data-uid="ent0013" id="entity_engine"><rect fill="#F1F1F1" height="46.2969" rx="2.5" ry="2.5" style="stroke:#181818;stroke-width:0.5;" width="188.5996" x="1170.11" y="580"/><rect fill="#F1F1F1" height="10" style="stroke:#181818;stroke-width:0.5;" width="15" x="1338.7096" y="585"/><rect fill="#F1F1F1" height="2" style="stroke:#181818;stroke-width:0.5;" width="4" x="1336.7096" y="587"/><rect fill="#F1F1F1" height="2" style="stroke:#181818;stroke-width:0.5;" width="4" x="1336.7096" y="591"/><text fill="#000000" font-family="sans-serif" font-size="14" lengthAdjust="spacing" textLength="148.5996" x="1185.11" y="612.9951">junit-platform-engine</text></g><!--entity jfr--><g class="entity" data-entity="jfr" data-source-line="22" data-uid="ent0014" id="entity_jfr"><rect fill="#F1F1F1" height="46.2969" rx="2.5" ry="2.5" style="stroke:#181818;stroke-width:0.5;" width="155.4248" x="1214.11" y="338"/><rect fill="#F1F1F1" height="10" style="stroke:#181818;stroke-width:0.5;" width="15" x="1349.5348" y="343"/><rect fill="#F1F1F1" height="2" style="stroke:#181818;stroke-width:0.5;" width="4" x="1347.5348" y="345"/><rect fill="#F1F1F1" height="2" style="stroke:#181818;stroke-width:0.5;" width="4" x="1347.5348" y="349"/><text fill="#000000" font-family="sans-serif" font-size="14" lengthAdjust="spacing" textLength="115.4248" x="1229.11" y="370.9951">junit-platform-jfr</text></g><!--entity launcher--><g class="entity" data-entity="launcher" data-source-line="23" data-uid="ent0015" id="entity_launcher"><rect fill="#F1F1F1" height="46.2969" rx="2.5" ry="2.5" style="stroke:#181818;stroke-width:0.5;" width="202.0049" x="873.61" y="459"/><rect fill="#F1F1F1" height="10" style="stroke:#181818;stroke-width:0.5;" width="15" x="1055.6149" y="464"/><rect fill="#F1F1F1" height="2" style="stroke:#181818;stroke-width:0.5;" width="4" x="1053.6149" y="466"/><rect fill="#F1F1F1" height="2" style="stroke:#181818;stroke-width:0.5;" width="4" x="1053.6149" y="470"/><text fill="#000000" font-family="sans-serif" font-size="14" lengthAdjust="spacing" textLength="162.0049" x="888.61" y="491.9951">junit-platform-launcher</text></g><!--entity reporting--><g class="entity" data-entity="reporting" data-source-line="24" data-uid="ent0016" id="entity_reporting"><rect fill="#F1F1F1" height="46.2969" rx="2.5" ry="2.5" style="stroke:#181818;stroke-width:0.5;" width="205.5664" x="652.61" y="338"/><rect fill="#F1F1F1" height="10" style="stroke:#181818;stroke-width:0.5;" width="15" x="838.1764" y="343"/><rect fill="#F1F1F1" height="2" style="stroke:#181818;stroke-width:0.5;" width="4" x="836.1764" y="345"/><rect fill="#F1F1F1" height="2" style="stroke:#181818;stroke-width:0.5;" width="4" x="836.1764" y="349"/><text fill="#000000" font-family="sans-serif" font-size="14" lengthAdjust="spacing" textLength="165.5664" x="667.61" y="370.9951">junit-platform-reporting</text></g><!--entity runner--><g class="entity" data-entity="runner" data-source-line="25" data-uid="ent0017" id="entity_runner"><rect fill="#F1F1F1" height="46.2969" rx="2.5" ry="2.5" style="stroke:#181818;stroke-width:0.5;" width="187.5947" x="1177.61" y="182"/><rect fill="#F1F1F1" height="10" style="stroke:#181818;stroke-width:0.5;" width="15" x="1345.2047" y="187"/><rect fill="#F1F1F1" height="2" style="stroke:#181818;stroke-width:0.5;" width="4" x="1343.2047" y="189"/><rect fill="#F1F1F1" height="2" style="stroke:#181818;stroke-width:0.5;" width="4" x="1343.2047" y="193"/><text fill="#000000" font-family="sans-serif" font-size="14" lengthAdjust="spacing" textLength="147.5947" x="1192.61" y="214.9951">junit-platform-runner</text></g><!--entity suite--><g class="entity" data-entity="suite" data-source-line="26" data-uid="ent0018" id="entity_suite"><rect fill="#F1F1F1" height="46.2969" rx="2.5" ry="2.5" style="stroke:#181818;stroke-width:0.5;" width="175.0098" x="731.11" y="41"/><rect fill="#F1F1F1" height="10" style="stroke:#181818;stroke-width:0.5;" width="15" x="886.1198" y="46"/><rect fill="#F1F1F1" height="2" style="stroke:#181818;stroke-width:0.5;" width="4" x="884.1198" y="48"/><rect fill="#F1F1F1" height="2" style="stroke:#181818;stroke-width:0.5;" width="4" x="884.1198" y="52"/><text fill="#000000" font-family="sans-serif" font-size="14" lengthAdjust="spacing" textLength="135.0098" x="746.11" y="73.9951">junit-platform-suite</text></g><!--entity suite_api--><g class="entity" data-entity="suite_api" data-source-line="27" data-uid="ent0019" id="entity_suite_api"><rect fill="#F1F1F1" height="46.2969" rx="2.5" ry="2.5" style="stroke:#181818;stroke-width:0.5;" width="201.417" x="576.11" y="459"/><rect fill="#F1F1F1" height="10" style="stroke:#181818;stroke-width:0.5;" width="15" x="757.527" y="464"/><rect fill="#F1F1F1" height="2" style="stroke:#181818;stroke-width:0.5;" width="4" x="755.527" y="466"/><rect fill="#F1F1F1" height="2" style="stroke:#181818;stroke-width:0.5;" width="4" x="755.527" y="470"/><text fill="#000000" font-family="sans-serif" font-size="14" lengthAdjust="spacing" textLength="161.417" x="591.11" y="491.9951">junit-platform-suite-api</text></g><!--entity suite_commons--><g class="entity" data-entity="suite_commons" data-source-line="28" data-uid="ent0020" id="entity_suite_commons"><rect fill="#F1F1F1" height="46.2969" rx="2.5" ry="2.5" style="stroke:#181818;stroke-width:0.5;" width="248.332" x="930.61" y="338"/><rect fill="#F1F1F1" height="10" style="stroke:#181818;stroke-width:0.5;" width="15" x="1158.942" y="343"/><rect fill="#F1F1F1" height="2" style="stroke:#181818;stroke-width:0.5;" width="4" x="1156.942" y="345"/><rect fill="#F1F1F1" height="2" style="stroke:#181818;stroke-width:0.5;" width="4" x="1156.942" y="349"/><text fill="#000000" font-family="sans-serif" font-size="14" lengthAdjust="spacing" textLength="208.332" x="945.61" y="370.9951">junit-platform-suite-commons</text></g><!--entity suite_engine--><g class="entity" data-entity="suite_engine" data-source-line="29" data-uid="ent0021" id="entity_suite_engine"><rect fill="#F1F1F1" height="46.2969" rx="2.5" ry="2.5" style="stroke:#181818;stroke-width:0.5;" width="227.8105" x="906.61" y="182"/><rect fill="#F1F1F1" height="10" style="stroke:#181818;stroke-width:0.5;" width="15" x="1114.4205" y="187"/><rect fill="#F1F1F1" height="2" style="stroke:#181818;stroke-width:0.5;" width="4" x="1112.4205" y="189"/><rect fill="#F1F1F1" height="2" style="stroke:#181818;stroke-width:0.5;" width="4" x="1112.4205" y="193"/><text fill="#000000" font-family="sans-serif" font-size="14" lengthAdjust="spacing" textLength="187.8105" x="921.61" y="214.9951">junit-platform-suite-engine</text></g><!--entity testkit--><g class="entity" data-entity="testkit" data-source-line="30" data-uid="ent0022" id="entity_testkit"><rect fill="#F1F1F1" height="46.2969" rx="2.5" ry="2.5" style="stroke:#181818;stroke-width:0.5;" width="185.2227" x="395.11" y="338"/><rect fill="#F1F1F1" height="10" style="stroke:#181818;stroke-width:0.5;" width="15" x="560.3327" y="343"/><rect fill="#F1F1F1" height="2" style="stroke:#181818;stroke-width:0.5;" width="4" x="558.3327" y="345"/><rect fill="#F1F1F1" height="2" style="stroke:#181818;stroke-width:0.5;" width="4" x="558.3327" y="349"/><text fill="#000000" font-family="sans-serif" font-size="14" lengthAdjust="spacing" textLength="145.2227" x="410.11" y="370.9951">junit-platform-testkit</text></g><!--entity junit4--><g class="entity" data-entity="junit4" data-source-line="34" data-uid="ent0024" id="entity_junit4"><rect fill="#F1F1F1" height="46.2969" rx="2.5" ry="2.5" style="stroke:#181818;stroke-width:0.5;" width="106.7461" x="1607.11" y="580"/><rect fill="#F1F1F1" height="10" style="stroke:#181818;stroke-width:0.5;" width="15" x="1693.8561" y="585"/><rect fill="#F1F1F1" height="2" style="stroke:#181818;stroke-width:0.5;" width="4" x="1691.8561" y="587"/><rect fill="#F1F1F1" height="2" style="stroke:#181818;stroke-width:0.5;" width="4" x="1691.8561" y="591"/><text fill="#000000" font-family="sans-serif" font-size="14" lengthAdjust="spacing" textLength="66.7461" x="1622.11" y="612.9951">junit:junit</text></g><!--entity opentest4j--><g class="entity" data-entity="opentest4j" data-source-line="38" data-uid="ent0026" id="entity_opentest4j"><rect fill="#F1F1F1" height="46.2969" rx="2.5" ry="2.5" style="stroke:#181818;stroke-width:0.5;" width="114.6211" x="1049.11" y="853"/><rect fill="#F1F1F1" height="10" style="stroke:#181818;stroke-width:0.5;" width="15" x="1143.7311" y="858"/><rect fill="#F1F1F1" height="2" style="stroke:#181818;stroke-width:0.5;" width="4" x="1141.7311" y="860"/><rect fill="#F1F1F1" height="2" style="stroke:#181818;stroke-width:0.5;" width="4" x="1141.7311" y="864"/><text fill="#000000" font-family="sans-serif" font-size="14" lengthAdjust="spacing" textLength="74.6211" x="1064.11" y="885.9951">opentest4j</text></g><!--entity otr_tooling_spi--><g class="entity" data-entity="otr_tooling_spi" data-source-line="42" data-uid="ent0028" id="entity_otr_tooling_spi"><rect fill="#F1F1F1" height="46.2969" rx="2.5" ry="2.5" style="stroke:#181818;stroke-width:0.5;" width="254.9766" x="84.11" y="459"/><rect fill="#F1F1F1" height="10" style="stroke:#181818;stroke-width:0.5;" width="15" x="319.0866" y="464"/><rect fill="#F1F1F1" height="2" style="stroke:#181818;stroke-width:0.5;" width="4" x="317.0866" y="466"/><rect fill="#F1F1F1" height="2" style="stroke:#181818;stroke-width:0.5;" width="4" x="317.0866" y="470"/><text fill="#000000" font-family="sans-serif" font-size="14" lengthAdjust="spacing" textLength="214.9766" x="99.11" y="491.9951">open-test-reporting-tooling-spi</text></g><!--entity apiguardian--><g class="entity" data-entity="apiguardian" data-source-line="46" data-uid="ent0030" id="entity_apiguardian"><rect fill="#F1F1F1" height="46.2969" rx="2.5" ry="2.5" style="stroke:#181818;stroke-width:0.5;" width="150.0859" x="2502.61" y="41"/><rect fill="#F1F1F1" height="10" style="stroke:#181818;stroke-width:0.5;" width="15" x="2632.6959" y="46"/><rect fill="#F1F1F1" height="2" style="stroke:#181818;stroke-width:0.5;" width="4" x="2630.6959" y="48"/><rect fill="#F1F1F1" height="2" style="stroke:#181818;stroke-width:0.5;" width="4" x="2630.6959" y="52"/><text fill="#000000" font-family="sans-serif" font-size="14" lengthAdjust="spacing" textLength="110.0859" x="2517.61" y="73.9951">apiguardian-api</text></g><g class="entity" data-entity="GMN31" data-source-line="48" data-uid="ent0032" id="entity_GMN31"><path d="M2479.11,147 L2479.11,262.9297 A0,0 0 0 0 2479.11,262.9297 L2676.486,262.9297 A0,0 0 0 0 2676.486,262.9297 L2676.486,157 L2666.486,147 L2581.61,147 L2577.61,87.02 L2573.61,147 L2479.11,147 A0,0 0 0 0 2479.11,147" fill="#FFFFFF" style="stroke:#181818;stroke-width:0.5;"/><path d="M2666.486,147 L2666.486,157 L2676.486,157 L2666.486,147" fill="#FFFFFF" style="stroke:#181818;stroke-width:0.5;"/><text fill="#000000" font-family="sans-serif" font-size="13" lengthAdjust="spacing" textLength="122.1479" x="2485.11" y="164.0669">All artifacts except</text><text fill="#000000" font-family="sans-serif" font-size="13" lengthAdjust="spacing" textLength="163.9917" x="2485.11" y="179.1997">opentest4j and junit:junit</text><text fill="#000000" font-family="sans-serif" font-size="13" lengthAdjust="spacing" textLength="176.376" x="2485.11" y="194.3325">have a dependency on this</text><text fill="#000000" font-family="sans-serif" font-size="13" lengthAdjust="spacing" textLength="158.6851" x="2485.11" y="209.4653">artifact. The edges have</text><text fill="#000000" font-family="sans-serif" font-size="13" lengthAdjust="spacing" textLength="149.8174" x="2485.11" y="224.5981">been omitted from this</text><text fill="#000000" font-family="sans-serif" font-size="13" lengthAdjust="spacing" textLength="152.5913" x="2485.11" y="239.731">diagram for the sake of</text><text fill="#000000" font-family="sans-serif" font-size="13" lengthAdjust="spacing" textLength="73.5376" x="2485.11" y="254.8638">readability.</text></g><!--link jupiter to jupiter_api--><g class="link" data-entity-1="jupiter" data-entity-2="jupiter_api" data-source-line="58" data-uid="lnk34" id="link_jupiter_jupiter_api"><path d="M2337.07,228.09 C2361.04,243.36 2389.07,266.12 2402.61,295 C2423.93,340.47 2434.8,369.45 2402.61,408 C2361.53,457.19 2184.5025,473.0007 2079.7825,478.2307" fill="none" id="jupiter-to-jupiter_api" style="stroke:#181818;stroke-width:1;stroke-dasharray:7.0,7.0;"/><polygon fill="#181818" points="2073.79,478.53,2082.9783,482.0761,2078.7838,478.2806,2082.5793,474.0861,2073.79,478.53" style="stroke:#181818;stroke-width:1;"/></g><!--link jupiter to jupiter_params--><g class="link" data-entity-1="jupiter" data-entity-2="jupiter_params" data-source-line="59" data-uid="lnk35" id="link_jupiter_jupiter_params"><path d="M2295.61,228.06 C2295.61,257.34 2295.61,302.72 2295.61,331.98" fill="none" id="jupiter-to-jupiter_params" style="stroke:#181818;stroke-width:1;stroke-dasharray:7.0,7.0;"/><polygon fill="#181818" points="2295.61,337.98,2299.61,328.98,2295.61,332.98,2291.61,328.98,2295.61,337.98" style="stroke:#181818;stroke-width:1;"/></g><!--link jupiter to jupiter_engine--><g class="link" data-entity-1="jupiter" data-entity-2="jupiter_engine" data-source-line="60" data-uid="lnk36" id="link_jupiter_jupiter_engine"><path d="M2234.93,213.52 C2156.59,224.64 2017.08,249.26 1905.61,295 C1878.63,306.07 1855.6033,320.2905 1835.3333,334.4105" fill="none" id="jupiter-to-jupiter_engine" style="stroke:#181818;stroke-width:1;stroke-dasharray:7.0,7.0;"/><polygon fill="#181818" points="1830.41,337.84,1840.0812,335.9779,1834.5127,334.9821,1835.5085,329.4136,1830.41,337.84" style="stroke:#181818;stroke-width:1;"/></g><!--link jupiter_api to opentest4j--><g class="link" data-entity-1="jupiter_api" data-entity-2="opentest4j" data-source-line="62" data-uid="lnk37" id="link_jupiter_api_opentest4j"><path d="M1984.31,505.13 C1958.54,540.79 1903.01,610.92 1839.61,650 C1613.24,789.51 1299.7957,847.414 1170.3757,866.514" fill="none" id="jupiter_api-to-opentest4j" style="stroke:#181818;stroke-width:1;stroke-dasharray:7.0,7.0;"/><polygon fill="#181818" points="1164.44,867.39,1173.9276,870.0331,1169.3864,866.66,1172.7596,862.1189,1164.44,867.39" style="stroke:#181818;stroke-width:1;"/></g><!--link jupiter_api to commons--><g class="link" data-entity-1="jupiter_api" data-entity-2="commons" data-source-line="63" data-uid="lnk38" id="link_jupiter_api_commons"><path d="M1955.37,505.13 C1937.23,514.54 1916.17,525.88 1897.61,537 C1820.4,583.23 1813.88,618.46 1729.61,650 C1665.65,673.93 1491.5913,690.9471 1375.2213,700.1471" fill="none" id="jupiter_api-to-commons" style="stroke:#181818;stroke-width:1;stroke-dasharray:7.0,7.0;"/><polygon fill="#181818" points="1369.24,700.62,1378.5273,703.8982,1374.2244,700.2259,1377.8968,695.9231,1369.24,700.62" style="stroke:#181818;stroke-width:1;"/></g><!--link jupiter_engine to engine--><g class="link" data-entity-1="jupiter_engine" data-entity-2="engine" data-source-line="65" data-uid="lnk39" id="link_jupiter_engine_engine"><path d="M1751.14,384.15 C1649.03,429.87 1421.436,531.7778 1319.426,577.4578" fill="none" id="jupiter_engine-to-engine" style="stroke:#181818;stroke-width:1;stroke-dasharray:7.0,7.0;"/><polygon fill="#181818" points="1313.95,579.91,1323.7988,579.8824,1318.5134,577.8665,1320.5293,572.5811,1313.95,579.91" style="stroke:#181818;stroke-width:1;"/></g><!--link jupiter_engine to jupiter_api--><g class="link" data-entity-1="jupiter_engine" data-entity-2="jupiter_api" data-source-line="66" data-uid="lnk40" id="link_jupiter_engine_jupiter_api"><path d="M1837.57,384.1 C1873.2,405.41 1921.6805,434.4007 1957.3505,455.7307" fill="none" id="jupiter_engine-to-jupiter_api" style="stroke:#181818;stroke-width:1;stroke-dasharray:7.0,7.0;"/><polygon fill="#181818" points="1962.5,458.81,1956.8286,450.758,1958.2087,456.2439,1952.7228,457.624,1962.5,458.81" style="stroke:#181818;stroke-width:1;"/></g><!--link jupiter_params to jupiter_api--><g class="link" data-entity-1="jupiter_params" data-entity-2="jupiter_api" data-source-line="68" data-uid="lnk41" id="link_jupiter_params_jupiter_api"><path d="M2245.42,384.04 C2227.55,391.76 2207.24,400.4 2188.61,408 C2145.29,425.67 2101.5798,442.5516 2064.1798,456.7416" fill="none" id="jupiter_params-to-jupiter_api" style="stroke:#181818;stroke-width:1;stroke-dasharray:7.0,7.0;"/><polygon fill="#181818" points="2058.57,458.87,2068.4036,459.4172,2063.2448,457.0963,2065.5657,451.9375,2058.57,458.87" style="stroke:#181818;stroke-width:1;"/></g><!--link jupiter_migration_support to jupiter_api--><g class="link" data-entity-1="jupiter_migration_support" data-entity-2="jupiter_api" data-source-line="69" data-uid="lnk42" id="link_jupiter_migration_support_jupiter_api"><path d="M2037.88,384.1 C2029.49,405.34 2019.0853,431.7 2010.6553,453.03" fill="none" id="jupiter_migration_support-to-jupiter_api" style="stroke:#181818;stroke-width:1;stroke-dasharray:7.0,7.0;"/><polygon fill="#181818" points="2008.45,458.61,2015.478,451.7102,2010.2878,453.96,2008.038,448.7698,2008.45,458.61" style="stroke:#181818;stroke-width:1;"/></g><!--link jupiter_migration_support to junit4--><g class="link" data-entity-1="jupiter_migration_support" data-entity-2="junit4" data-source-line="70" data-uid="lnk43" id="link_jupiter_migration_support_junit4"><path d="M1979.66,384.03 C1956.54,392.72 1930.86,403.61 1908.61,416 C1820.45,465.11 1732.9014,538.1043 1689.9514,575.7643" fill="none" id="jupiter_migration_support-to-junit4" style="stroke:#181818;stroke-width:1;stroke-dasharray:7.0,7.0;"/><polygon fill="#181818" points="1685.44,579.72,1694.8442,576.794,1689.1995,576.4236,1689.5699,570.7789,1685.44,579.72" style="stroke:#181818;stroke-width:1;"/></g><!--link console to launcher--><g class="link" data-entity-1="console" data-entity-2="launcher" data-source-line="72" data-uid="lnk44" id="link_console_launcher"><path d="M799.92,228.04 C825.19,243.71 856.63,266.93 876.61,295 C907.25,338.06 887.98,361.78 913.61,408 C923.94,426.63 935.2593,440.6307 947.9993,454.3007" fill="none" id="console-to-launcher" style="stroke:#181818;stroke-width:1;stroke-dasharray:7.0,7.0;"/><polygon fill="#181818" points="952.09,458.69,948.8802,449.3789,948.6811,455.0322,943.0277,454.8332,952.09,458.69" style="stroke:#181818;stroke-width:1;"/></g><!--link console to reporting--><g class="link" data-entity-1="console" data-entity-2="reporting" data-source-line="73" data-uid="lnk45" id="link_console_reporting"><path d="M759.03,228.06 C758.27,257.34 757.0958,302.722 756.3358,331.982" fill="none" id="console-to-reporting" style="stroke:#181818;stroke-width:1;stroke-dasharray:7.0,7.0;"/><polygon fill="#181818" points="756.18,337.98,760.4123,329.0869,756.3098,332.9817,752.415,328.8792,756.18,337.98" style="stroke:#181818;stroke-width:1;"/></g><!--link launcher to engine--><g class="link" data-entity-1="launcher" data-entity-2="engine" data-source-line="75" data-uid="lnk46" id="link_launcher_engine"><path d="M1028.47,505.1 C1080.4,526.41 1152.9889,556.203 1204.9889,577.533" fill="none" id="launcher-to-engine" style="stroke:#181818;stroke-width:1;stroke-dasharray:7.0,7.0;"/><polygon fill="#181818" points="1210.54,579.81,1203.7313,572.6937,1205.9141,577.9125,1200.6953,580.0952,1210.54,579.81" style="stroke:#181818;stroke-width:1;"/></g><!--link jfr to launcher--><g class="link" data-entity-1="jfr" data-entity-2="launcher" data-source-line="77" data-uid="lnk47" id="link_jfr_launcher"><path d="M1249.12,384.07 C1232.9,392.09 1214.1,400.92 1196.61,408 C1148.65,427.39 1099.134,443.8132 1055.744,457.1832" fill="none" id="jfr-to-launcher" style="stroke:#181818;stroke-width:1;stroke-dasharray:7.0,7.0;"/><polygon fill="#181818" points="1050.01,458.95,1059.7888,460.1224,1054.7883,457.4776,1057.433,452.4771,1050.01,458.95" style="stroke:#181818;stroke-width:1;"/></g><!--link engine to opentest4j--><g class="link" data-entity-1="engine" data-entity-2="opentest4j" data-source-line="79" data-uid="lnk48" id="link_engine_opentest4j"><path d="M1214.35,626.02 C1188.98,639.69 1159.97,659.7 1142.61,686 C1108.09,738.26 1104.7149,809.3611 1105.4349,846.8711" fill="none" id="engine-to-opentest4j" style="stroke:#181818;stroke-width:1;stroke-dasharray:7.0,7.0;"/><polygon fill="#181818" points="1105.55,852.87,1109.3765,843.7949,1105.454,847.8709,1101.378,843.9484,1105.55,852.87" style="stroke:#181818;stroke-width:1;"/></g><!--link engine to commons--><g class="link" data-entity-1="engine" data-entity-2="commons" data-source-line="80" data-uid="lnk49" id="link_engine_commons"><path d="M1264.61,626.06 C1264.61,643.7 1264.61,662.34 1264.61,679.98" fill="none" id="engine-to-commons" style="stroke:#181818;stroke-width:1;stroke-dasharray:7.0,7.0;"/><polygon fill="#181818" points="1264.61,685.98,1268.61,676.98,1264.61,680.98,1260.61,676.98,1264.61,685.98" style="stroke:#181818;stroke-width:1;"/></g><!--link reporting to launcher--><g class="link" data-entity-1="reporting" data-entity-2="launcher" data-source-line="82" data-uid="lnk50" id="link_reporting_launcher"><path d="M796.29,384.1 C835.5,405.41 889.2379,434.6156 928.4979,455.9456" fill="none" id="reporting-to-launcher" style="stroke:#181818;stroke-width:1;stroke-dasharray:7.0,7.0;"/><polygon fill="#181818" points="933.77,458.81,927.7714,450.9987,929.3766,456.423,923.9522,458.0282,933.77,458.81" style="stroke:#181818;stroke-width:1;"/></g><!--link reporting to otr_tooling_spi--><g class="link" data-entity-1="reporting" data-entity-2="otr_tooling_spi" data-source-line="83" data-uid="lnk51" id="link_reporting_otr_tooling_spi"><path d="M693,384.09 C664.3,393.21 629.62,402.83 597.61,408 C501.89,423.45 474.57,396.46 379.61,416 C336.26,424.92 294.9686,441.3494 261.8086,456.4794" fill="none" id="reporting-to-otr_tooling_spi" style="stroke:#181818;stroke-width:1;stroke-dasharray:7.0,7.0;"/><polygon fill="#181818" points="256.35,458.97,266.1984,458.8732,260.8989,456.8945,262.8775,451.595,256.35,458.97" style="stroke:#181818;stroke-width:1;"/></g><!--link runner to suite_commons--><g class="link" data-entity-1="runner" data-entity-2="suite_commons" data-source-line="85" data-uid="lnk52" id="link_runner_suite_commons"><path d="M1240.52,228.06 C1199.26,257.34 1131.7526,305.247 1090.5326,334.507" fill="none" id="runner-to-suite_commons" style="stroke:#181818;stroke-width:1;stroke-dasharray:7.0,7.0;"/><polygon fill="#181818" points="1085.64,337.98,1095.2943,336.0322,1089.7172,335.0858,1090.6636,329.5087,1085.64,337.98" style="stroke:#181818;stroke-width:1;"/></g><!--link runner to junit4--><g class="link" data-entity-1="runner" data-entity-2="junit4" data-source-line="86" data-uid="lnk53" id="link_runner_junit4"><path d="M1365.92,217.74 C1458.29,231.29 1589.93,256.73 1623.61,295 C1696.12,377.42 1677.54,518.1812 1666.67,573.8412" fill="none" id="runner-to-junit4" style="stroke:#181818;stroke-width:1;stroke-dasharray:7.0,7.0;"/><polygon fill="#181818" points="1665.52,579.73,1671.1709,571.6636,1666.4784,574.8227,1663.3192,570.1302,1665.52,579.73" style="stroke:#181818;stroke-width:1;"/></g><!--link suite to suite_api--><g class="link" data-entity-1="suite" data-entity-2="suite_api" data-source-line="88" data-uid="lnk54" id="link_suite_suite_api"><path d="M731.06,82.17 C699,93.01 665.69,110.59 645.61,139 C576.55,236.7 605.33,292.26 635.61,408 C640.43,426.42 647.7251,440.1155 656.9451,453.9655" fill="none" id="suite-to-suite_api" style="stroke:#181818;stroke-width:1;stroke-dasharray:7.0,7.0;"/><polygon fill="#181818" points="660.27,458.96,658.6124,449.2516,657.4993,454.7979,651.953,453.6848,660.27,458.96" style="stroke:#181818;stroke-width:1;"/></g><!--link suite to suite_engine--><g class="link" data-entity-1="suite" data-entity-2="suite_engine" data-source-line="89" data-uid="lnk55" id="link_suite_suite_engine"><path d="M850.61,87.02 C888.33,112.98 945.6771,152.4388 983.4771,178.4488" fill="none" id="suite-to-suite_engine" style="stroke:#181818;stroke-width:1;stroke-dasharray:7.0,7.0;"/><polygon fill="#181818" points="988.42,181.85,983.2731,173.453,984.3009,179.0157,978.7382,180.0435,988.42,181.85" style="stroke:#181818;stroke-width:1;"/></g><!--link suite_engine to suite_commons--><g class="link" data-entity-1="suite_engine" data-entity-2="suite_commons" data-source-line="91" data-uid="lnk56" id="link_suite_engine_suite_commons"><path d="M1025.48,228.06 C1031.94,257.34 1041.9984,302.8607 1048.4484,332.1207" fill="none" id="suite_engine-to-suite_commons" style="stroke:#181818;stroke-width:1;stroke-dasharray:7.0,7.0;"/><polygon fill="#181818" points="1049.74,337.98,1051.7088,328.3299,1048.6637,333.0972,1043.8964,330.0521,1049.74,337.98" style="stroke:#181818;stroke-width:1;"/></g><!--link suite_commons to launcher--><g class="link" data-entity-1="suite_commons" data-entity-2="launcher" data-source-line="93" data-uid="lnk57" id="link_suite_commons_launcher"><path d="M1039.75,384.1 C1025.47,405.34 1007.3476,432.3007 993.0076,453.6307" fill="none" id="suite_commons-to-launcher" style="stroke:#181818;stroke-width:1;stroke-dasharray:7.0,7.0;"/><polygon fill="#181818" points="989.66,458.61,998.0009,453.3727,992.4496,454.4606,991.3618,448.9093,989.66,458.61" style="stroke:#181818;stroke-width:1;"/></g><!--link suite_commons to suite_api--><g class="link" data-entity-1="suite_commons" data-entity-2="suite_api" data-source-line="94" data-uid="lnk58" id="link_suite_commons_suite_api"><path d="M967.91,384.03 C933.13,393.29 892.79,404.55 856.61,416 C815.27,429.08 774.9184,443.6043 739.7784,456.7743" fill="none" id="suite_commons-to-suite_api" style="stroke:#181818;stroke-width:1;stroke-dasharray:7.0,7.0;"/><polygon fill="#181818" points="734.16,458.88,743.9913,459.467,738.842,457.1253,741.1838,451.9759,734.16,458.88" style="stroke:#181818;stroke-width:1;"/></g><!--link testkit to opentest4j--><g class="link" data-entity-1="testkit" data-entity-2="opentest4j" data-source-line="96" data-uid="lnk59" id="link_testkit_opentest4j"><path d="M394.64,361.72 C285.51,363.42 113.55,373.1 67.61,416 C6,473.52 30.61,517.71 30.61,602 C30.61,602 30.61,602 30.61,710 C30.61,813.94 819.2675,860.7894 1042.7675,871.9994" fill="none" id="testkit-to-opentest4j" style="stroke:#181818;stroke-width:1;stroke-dasharray:7.0,7.0;"/><polygon fill="#181818" points="1048.76,872.3,1039.9717,867.8542,1043.7663,872.0495,1039.5709,875.8441,1048.76,872.3" style="stroke:#181818;stroke-width:1;"/></g><!--link testkit to launcher--><g class="link" data-entity-1="testkit" data-entity-2="launcher" data-source-line="97" data-uid="lnk60" id="link_testkit_launcher"><path d="M546.53,384.05 C573.33,393.1 605.67,402.68 635.61,408 C705.27,420.38 725.24,402.05 794.61,416 C840.37,425.2 884.5901,441.5518 920.1701,456.5318" fill="none" id="testkit-to-launcher" style="stroke:#181818;stroke-width:1;stroke-dasharray:7.0,7.0;"/><polygon fill="#181818" points="925.7,458.86,918.9573,451.6811,921.0918,456.9198,915.8531,459.0543,925.7,458.86" style="stroke:#181818;stroke-width:1;"/></g><!--link vintage_engine to engine--><g class="link" data-entity-1="vintage_engine" data-entity-2="engine" data-source-line="99" data-uid="lnk61" id="link_vintage_engine_engine"><path d="M1475.02,384.08 C1459.74,393.05 1442.74,404.12 1428.61,416 C1367.16,467.68 1311.78,537.965 1284.3,574.925" fill="none" id="vintage_engine-to-engine" style="stroke:#181818;stroke-width:1;stroke-dasharray:7.0,7.0;"/><polygon fill="#181818" points="1280.72,579.74,1289.2999,574.9042,1283.7033,575.7275,1282.88,570.1309,1280.72,579.74" style="stroke:#181818;stroke-width:1;"/></g><!--link vintage_engine to junit4--><g class="link" data-entity-1="vintage_engine" data-entity-2="junit4" data-source-line="100" data-uid="lnk62" id="link_vintage_engine_junit4"><path d="M1529.9,384.15 C1557.33,429.87 1616.8529,529.0851 1644.2629,574.7651" fill="none" id="vintage_engine-to-junit4" style="stroke:#181818;stroke-width:1;stroke-dasharray:7.0,7.0;"/><polygon fill="#181818" points="1647.35,579.91,1646.1492,570.1346,1644.7774,575.6226,1639.2894,574.2508,1647.35,579.91" style="stroke:#181818;stroke-width:1;"/></g><!--SRC=[bLMnZjim3Dtr5S9rjgTC7Gxeqg53ftOw70B6fXqbjcH8yhM7elzUIfPboLOEQ0P7Uk-HePvenjo5d433oFymJfyMEvW7-rL9-nr6v0QagGngqR6_Z4tGtA57hdHVtsOfB3qdOL67w1SFLW5yvM1uM1Ve2YQHIiwqBybGza9YfboWajYVnMJY1Ig9Hz5hi499Cq-JqZOBY-Gvi6K3teIq3iaC261QUe3MqekvfW5if_IO9rlHgb7ZIBNwT67zG2UD6Z3e_BgeIwex6XfLjovSPAUB_02pRAxXjjTDKQdHsIXaxwLnLzREKeQSoxAeCZDTbHVvrMDDx3M_stVQJflwlEW_Sdk9IRnSGZvmrAAnTx5qMrYd_V3qxIV9-UafQuFF_Xawb5QdVGkf2QNBThgjSHlo-bXSntj8mtoDsuLLLgd1VPjWexBw7B0pOVlqv6y_Wsu5o3Lh0iNBI30laieYloXhrSXLbzByqw_hUi7kysKOE51f7JIMklTtWvEDPE84o9OdzaN95TwG0qqxahOectUk9BTNOQ9YpLxp7rVasFPeV5GKN10bLwEm5blUQIevYwUgUpTMwSQ9S8FqJjvqaTS8BLp48EnxxK4gn9tVMRaErRf-pePZ2G_JhKI55cH92kATOdDeJpx7oSBoD0iPKXwel4wM5_Ve7CSH-rzAB_Ll0WjJpeV74PI2sx1XAy-Jyp0QRdamsqwT-vKSEJgrlK9PZXpUlp9icMkUowTC998JUaMYTURiiVKmwQwGdcNRlEGZjVqS2xFgwCb6f0xc_tXP_noeUD1_]--></g></svg>