<svg xmlns="http://www.w3.org/2000/svg" xmlns:xlink="http://www.w3.org/1999/xlink" contentStyleType="text/css" data-diagram-type="DESCRIPTION" height="952px" preserveAspectRatio="none" style="width:2271px;height:952px;background:#FFFFFF;" version="1.1" viewBox="0 0 2271 952" width="2271px" zoomAndPan="magnify"><defs/><g><!--cluster org.junit.jupiter--><g class="cluster" data-entity="org.junit.jupiter" data-source-line="6" data-uid="ent0002" id="cluster_org.junit.jupiter"><path d="M1310.5,158.102 L1423.6816,158.102 A3.75,3.75 0 0 1 1426.1816,160.602 L1433.1816,183.1699 L2021.5,183.1699 A2.5,2.5 0 0 1 2024,185.6699 L2024,537.102 A2.5,2.5 0 0 1 2021.5,539.602 L1310.5,539.602 A2.5,2.5 0 0 1 1308,537.102 L1308,160.602 A2.5,2.5 0 0 1 1310.5,158.102" fill="none" style="stroke:#000000;stroke-width:1.5;"/><line style="stroke:#000000;stroke-width:1.5;" x1="1308" x2="1433.1816" y1="183.1699" y2="183.1699"/><text fill="#000000" font-family="sans-serif" font-size="14" font-weight="bold" lengthAdjust="spacing" textLength="112.1816" x="1312" y="175.0679">org.junit.jupiter</text></g><!--cluster org.junit.vintage--><g class="cluster" data-entity="org.junit.vintage" data-source-line="14" data-uid="ent0008" id="cluster_org.junit.vintage"><path d="M1029.5,327.602 L1148.4776,327.602 A3.75,3.75 0 0 1 1150.9776,330.102 L1157.9776,352.6699 L1230.5,352.6699 A2.5,2.5 0 0 1 1233,355.1699 L1233,428.102 A2.5,2.5 0 0 1 1230.5,430.602 L1029.5,430.602 A2.5,2.5 0 0 1 1027,428.102 L1027,330.102 A2.5,2.5 0 0 1 1029.5,327.602" fill="none" style="stroke:#000000;stroke-width:1.5;"/><line style="stroke:#000000;stroke-width:1.5;" x1="1027" x2="1157.9776" y1="352.6699" y2="352.6699"/><text fill="#000000" font-family="sans-serif" font-size="14" font-weight="bold" lengthAdjust="spacing" textLength="117.9776" x="1031" y="344.5679">org.junit.vintage</text></g><!--cluster org.junit.platform--><g class="cluster" data-entity="org.junit.platform" data-source-line="18" data-uid="ent0010" id="cluster_org.junit.platform"><path d="M31.5,6.602 L159.2275,6.602 A3.75,3.75 0 0 1 161.7275,9.102 L168.7275,31.6699 L1000.5,31.6699 A2.5,2.5 0 0 1 1003,34.1699 L1003,773.102 A2.5,2.5 0 0 1 1000.5,775.602 L31.5,775.602 A2.5,2.5 0 0 1 29,773.102 L29,9.102 A2.5,2.5 0 0 1 31.5,6.602" fill="none" style="stroke:#000000;stroke-width:1.5;"/><line style="stroke:#000000;stroke-width:1.5;" x1="29" x2="168.7275" y1="31.6699" y2="31.6699"/><text fill="#000000" font-family="sans-serif" font-size="14" font-weight="bold" lengthAdjust="spacing" textLength="126.7275" x="33" y="23.5679">org.junit.platform</text></g><!--cluster JUnit 4--><g class="cluster" data-entity="JUnit 4" data-source-line="33" data-uid="ent0023" id="cluster_JUnit 4"><path d="M1204.5,563.602 L1251.9098,563.602 A3.75,3.75 0 0 1 1254.4098,566.102 L1261.4098,588.6699 L1335.5,588.6699 A2.5,2.5 0 0 1 1338,591.1699 L1338,664.102 A2.5,2.5 0 0 1 1335.5,666.602 L1204.5,666.602 A2.5,2.5 0 0 1 1202,664.102 L1202,566.102 A2.5,2.5 0 0 1 1204.5,563.602" fill="none" style="stroke:#000000;stroke-width:1.5;"/><line style="stroke:#000000;stroke-width:1.5;" x1="1202" x2="1261.4098" y1="588.6699" y2="588.6699"/><text fill="#000000" font-family="sans-serif" font-size="14" font-weight="bold" lengthAdjust="spacing" textLength="46.4098" x="1206" y="580.5679">JUnit 4</text></g><!--cluster org.opentest4j--><g class="cluster" data-entity="org.opentest4j" data-source-line="37" data-uid="ent0025" id="cluster_org.opentest4j"><path d="M663.5,842.602 L767.0356,842.602 A3.75,3.75 0 0 1 769.5356,845.102 L776.5356,867.6699 L800.5,867.6699 A2.5,2.5 0 0 1 803,870.1699 L803,943.102 A2.5,2.5 0 0 1 800.5,945.602 L663.5,945.602 A2.5,2.5 0 0 1 661,943.102 L661,845.102 A2.5,2.5 0 0 1 663.5,842.602" fill="none" style="stroke:#000000;stroke-width:1.5;"/><line style="stroke:#000000;stroke-width:1.5;" x1="661" x2="776.5356" y1="867.6699" y2="867.6699"/><text fill="#000000" font-family="sans-serif" font-size="14" font-weight="bold" lengthAdjust="spacing" textLength="102.5356" x="665" y="859.5679">org.opentest4j</text></g><!--cluster org.opentest4j.reporting--><g class="cluster" data-entity="org.opentest4j.reporting" data-source-line="41" data-uid="ent0027" id="cluster_org.opentest4j.reporting"><path d="M8.5,842.602 L182.9454,842.602 A3.75,3.75 0 0 1 185.4454,845.102 L192.4454,867.6699 L279.5,867.6699 A2.5,2.5 0 0 1 282,870.1699 L282,943.102 A2.5,2.5 0 0 1 279.5,945.602 L8.5,945.602 A2.5,2.5 0 0 1 6,943.102 L6,845.102 A2.5,2.5 0 0 1 8.5,842.602" fill="none" style="stroke:#000000;stroke-width:1.5;"/><line style="stroke:#000000;stroke-width:1.5;" x1="6" x2="192.4454" y1="867.6699" y2="867.6699"/><text fill="#000000" font-family="sans-serif" font-size="14" font-weight="bold" lengthAdjust="spacing" textLength="173.4454" x="10" y="859.5679">org.opentest4j.reporting</text></g><!--cluster org.apiguardian--><g class="cluster" data-entity="org.apiguardian" data-source-line="45" data-uid="ent0029" id="cluster_org.apiguardian"><path d="M2050.5,6.602 L2164.6196,6.602 A3.75,3.75 0 0 1 2167.1196,9.102 L2174.1196,31.6699 L2261.5,31.6699 A2.5,2.5 0 0 1 2264,34.1699 L2264,301.102 A2.5,2.5 0 0 1 2261.5,303.602 L2050.5,303.602 A2.5,2.5 0 0 1 2048,301.102 L2048,9.102 A2.5,2.5 0 0 1 2050.5,6.602" fill="none" style="stroke:#000000;stroke-width:1.5;"/><line style="stroke:#000000;stroke-width:1.5;" x1="2048" x2="2174.1196" y1="31.6699" y2="31.6699"/><text fill="#000000" font-family="sans-serif" font-size="14" font-weight="bold" lengthAdjust="spacing" textLength="113.1196" x="2052" y="23.5679">org.apiguardian</text></g><!--entity jupiter--><g class="entity" data-entity="jupiter" data-source-line="7" data-uid="ent0003" id="entity_jupiter"><rect fill="#F1F1F1" height="49.0679" rx="2.5" ry="2.5" style="stroke:#181818;stroke-width:0.5;" width="117.3077" x="1826.5" y="196.102"/><rect fill="#F1F1F1" height="10" style="stroke:#181818;stroke-width:0.5;" width="15" x="1923.8077" y="201.102"/><rect fill="#F1F1F1" height="2" style="stroke:#181818;stroke-width:0.5;" width="4" x="1921.8077" y="203.102"/><rect fill="#F1F1F1" height="2" style="stroke:#181818;stroke-width:0.5;" width="4" x="1921.8077" y="207.102"/><text fill="#000000" font-family="sans-serif" font-size="14" lengthAdjust="spacing" textLength="77.3077" x="1841.5" y="231.0679">junit-jupiter</text></g><!--entity jupiter_api--><g class="entity" data-entity="jupiter_api" data-source-line="8" data-uid="ent0004" id="entity_jupiter_api"><rect fill="#F1F1F1" height="49.0679" rx="2.5" ry="2.5" style="stroke:#181818;stroke-width:0.5;" width="141.8916" x="1529" y="474.602"/><rect fill="#F1F1F1" height="10" style="stroke:#181818;stroke-width:0.5;" width="15" x="1650.8916" y="479.602"/><rect fill="#F1F1F1" height="2" style="stroke:#181818;stroke-width:0.5;" width="4" x="1648.8916" y="481.602"/><rect fill="#F1F1F1" height="2" style="stroke:#181818;stroke-width:0.5;" width="4" x="1648.8916" y="485.602"/><text fill="#000000" font-family="sans-serif" font-size="14" lengthAdjust="spacing" textLength="101.8916" x="1544" y="509.5679">junit-jupiter-api</text></g><!--entity jupiter_engine--><g class="entity" data-entity="jupiter_engine" data-source-line="9" data-uid="ent0005" id="entity_jupiter_engine"><rect fill="#F1F1F1" height="49.0679" rx="2.5" ry="2.5" style="stroke:#181818;stroke-width:0.5;" width="167.1335" x="1323.5" y="365.602"/><rect fill="#F1F1F1" height="10" style="stroke:#181818;stroke-width:0.5;" width="15" x="1470.6335" y="370.602"/><rect fill="#F1F1F1" height="2" style="stroke:#181818;stroke-width:0.5;" width="4" x="1468.6335" y="372.602"/><rect fill="#F1F1F1" height="2" style="stroke:#181818;stroke-width:0.5;" width="4" x="1468.6335" y="376.602"/><text fill="#000000" font-family="sans-serif" font-size="14" lengthAdjust="spacing" textLength="127.1335" x="1338.5" y="400.5679">junit-jupiter-engine</text></g><!--entity jupiter_params--><g class="entity" data-entity="jupiter_params" data-source-line="10" data-uid="ent0006" id="entity_jupiter_params"><rect fill="#F1F1F1" height="49.0679" rx="2.5" ry="2.5" style="stroke:#181818;stroke-width:0.5;" width="171.7115" x="1799" y="365.602"/><rect fill="#F1F1F1" height="10" style="stroke:#181818;stroke-width:0.5;" width="15" x="1950.7115" y="370.602"/><rect fill="#F1F1F1" height="2" style="stroke:#181818;stroke-width:0.5;" width="4" x="1948.7115" y="372.602"/><rect fill="#F1F1F1" height="2" style="stroke:#181818;stroke-width:0.5;" width="4" x="1948.7115" y="376.602"/><text fill="#000000" font-family="sans-serif" font-size="14" lengthAdjust="spacing" textLength="131.7115" x="1814" y="400.5679">junit-jupiter-params</text></g><!--entity jupiter_migration_support--><g class="entity" data-entity="jupiter_migration_support" data-source-line="11" data-uid="ent0007" id="entity_jupiter_migration_support"><rect fill="#F1F1F1" height="49.0679" rx="2.5" ry="2.5" style="stroke:#181818;stroke-width:0.5;" width="238.4353" x="1526" y="365.602"/><rect fill="#F1F1F1" height="10" style="stroke:#181818;stroke-width:0.5;" width="15" x="1744.4353" y="370.602"/><rect fill="#F1F1F1" height="2" style="stroke:#181818;stroke-width:0.5;" width="4" x="1742.4353" y="372.602"/><rect fill="#F1F1F1" height="2" style="stroke:#181818;stroke-width:0.5;" width="4" x="1742.4353" y="376.602"/><text fill="#000000" font-family="sans-serif" font-size="14" lengthAdjust="spacing" textLength="198.4353" x="1541" y="400.5679">junit-jupiter-migrationsupport</text></g><!--entity vintage_engine--><g class="entity" data-entity="vintage_engine" data-source-line="15" data-uid="ent0009" id="entity_vintage_engine"><rect fill="#F1F1F1" height="49.0679" rx="2.5" ry="2.5" style="stroke:#181818;stroke-width:0.5;" width="172.7055" x="1043.5" y="365.602"/><rect fill="#F1F1F1" height="10" style="stroke:#181818;stroke-width:0.5;" width="15" x="1196.2055" y="370.602"/><rect fill="#F1F1F1" height="2" style="stroke:#181818;stroke-width:0.5;" width="4" x="1194.2055" y="372.602"/><rect fill="#F1F1F1" height="2" style="stroke:#181818;stroke-width:0.5;" width="4" x="1194.2055" y="376.602"/><text fill="#000000" font-family="sans-serif" font-size="14" lengthAdjust="spacing" textLength="132.7055" x="1058.5" y="400.5679">junit-vintage-engine</text></g><!--entity commons--><g class="entity" data-entity="commons" data-source-line="19" data-uid="ent0011" id="entity_commons"><rect fill="#F1F1F1" height="49.0679" rx="2.5" ry="2.5" style="stroke:#181818;stroke-width:0.5;" width="201.0834" x="785.5" y="710.602"/><rect fill="#F1F1F1" height="10" style="stroke:#181818;stroke-width:0.5;" width="15" x="966.5834" y="715.602"/><rect fill="#F1F1F1" height="2" style="stroke:#181818;stroke-width:0.5;" width="4" x="964.5834" y="717.602"/><rect fill="#F1F1F1" height="2" style="stroke:#181818;stroke-width:0.5;" width="4" x="964.5834" y="721.602"/><text fill="#000000" font-family="sans-serif" font-size="14" lengthAdjust="spacing" textLength="161.0834" x="800.5" y="745.5679">junit-platform-commons</text></g><!--entity console--><g class="entity" data-entity="console" data-source-line="20" data-uid="ent0012" id="entity_console"><rect fill="#F1F1F1" height="49.0679" rx="2.5" ry="2.5" style="stroke:#181818;stroke-width:0.5;" width="186.4114" x="172" y="196.102"/><rect fill="#F1F1F1" height="10" style="stroke:#181818;stroke-width:0.5;" width="15" x="338.4114" y="201.102"/><rect fill="#F1F1F1" height="2" style="stroke:#181818;stroke-width:0.5;" width="4" x="336.4114" y="203.102"/><rect fill="#F1F1F1" height="2" style="stroke:#181818;stroke-width:0.5;" width="4" x="336.4114" y="207.102"/><text fill="#000000" font-family="sans-serif" font-size="14" lengthAdjust="spacing" textLength="146.4114" x="187" y="231.0679">junit-platform-console</text></g><!--entity engine--><g class="entity" data-entity="engine" data-source-line="21" data-uid="ent0013" id="entity_engine"><rect fill="#F1F1F1" height="49.0679" rx="2.5" ry="2.5" style="stroke:#181818;stroke-width:0.5;" width="181.2034" x="795.5" y="601.602"/><rect fill="#F1F1F1" height="10" style="stroke:#181818;stroke-width:0.5;" width="15" x="956.7034" y="606.602"/><rect fill="#F1F1F1" height="2" style="stroke:#181818;stroke-width:0.5;" width="4" x="954.7034" y="608.602"/><rect fill="#F1F1F1" height="2" style="stroke:#181818;stroke-width:0.5;" width="4" x="954.7034" y="612.602"/><text fill="#000000" font-family="sans-serif" font-size="14" lengthAdjust="spacing" textLength="141.2034" x="810.5" y="636.5679">junit-platform-engine</text></g><!--entity jfr--><g class="entity" data-entity="jfr" data-source-line="22" data-uid="ent0014" id="entity_jfr"><rect fill="#F1F1F1" height="49.0679" rx="2.5" ry="2.5" style="stroke:#181818;stroke-width:0.5;" width="150.0956" x="527" y="365.602"/><rect fill="#F1F1F1" height="10" style="stroke:#181818;stroke-width:0.5;" width="15" x="657.0956" y="370.602"/><rect fill="#F1F1F1" height="2" style="stroke:#181818;stroke-width:0.5;" width="4" x="655.0956" y="372.602"/><rect fill="#F1F1F1" height="2" style="stroke:#181818;stroke-width:0.5;" width="4" x="655.0956" y="376.602"/><text fill="#000000" font-family="sans-serif" font-size="14" lengthAdjust="spacing" textLength="110.0956" x="542" y="400.5679">junit-platform-jfr</text></g><!--entity launcher--><g class="entity" data-entity="launcher" data-source-line="23" data-uid="ent0015" id="entity_launcher"><rect fill="#F1F1F1" height="49.0679" rx="2.5" ry="2.5" style="stroke:#181818;stroke-width:0.5;" width="193.7054" x="483" y="474.602"/><rect fill="#F1F1F1" height="10" style="stroke:#181818;stroke-width:0.5;" width="15" x="656.7054" y="479.602"/><rect fill="#F1F1F1" height="2" style="stroke:#181818;stroke-width:0.5;" width="4" x="654.7054" y="481.602"/><rect fill="#F1F1F1" height="2" style="stroke:#181818;stroke-width:0.5;" width="4" x="654.7054" y="485.602"/><text fill="#000000" font-family="sans-serif" font-size="14" lengthAdjust="spacing" textLength="153.7054" x="498" y="509.5679">junit-platform-launcher</text></g><!--entity reporting--><g class="entity" data-entity="reporting" data-source-line="24" data-uid="ent0016" id="entity_reporting"><rect fill="#F1F1F1" height="49.0679" rx="2.5" ry="2.5" style="stroke:#181818;stroke-width:0.5;" width="198.3534" x="45" y="365.602"/><rect fill="#F1F1F1" height="10" style="stroke:#181818;stroke-width:0.5;" width="15" x="223.3534" y="370.602"/><rect fill="#F1F1F1" height="2" style="stroke:#181818;stroke-width:0.5;" width="4" x="221.3534" y="372.602"/><rect fill="#F1F1F1" height="2" style="stroke:#181818;stroke-width:0.5;" width="4" x="221.3534" y="376.602"/><text fill="#000000" font-family="sans-serif" font-size="14" lengthAdjust="spacing" textLength="158.3534" x="60" y="400.5679">junit-platform-reporting</text></g><!--entity runner--><g class="entity" data-entity="runner" data-source-line="25" data-uid="ent0017" id="entity_runner"><rect fill="#F1F1F1" height="49.0679" rx="2.5" ry="2.5" style="stroke:#181818;stroke-width:0.5;" width="181.3015" x="768.5" y="196.102"/><rect fill="#F1F1F1" height="10" style="stroke:#181818;stroke-width:0.5;" width="15" x="929.8015" y="201.102"/><rect fill="#F1F1F1" height="2" style="stroke:#181818;stroke-width:0.5;" width="4" x="927.8015" y="203.102"/><rect fill="#F1F1F1" height="2" style="stroke:#181818;stroke-width:0.5;" width="4" x="927.8015" y="207.102"/><text fill="#000000" font-family="sans-serif" font-size="14" lengthAdjust="spacing" textLength="141.3015" x="783.5" y="231.0679">junit-platform-runner</text></g><!--entity suite--><g class="entity" data-entity="suite" data-source-line="26" data-uid="ent0018" id="entity_suite"><rect fill="#F1F1F1" height="49.0679" rx="2.5" ry="2.5" style="stroke:#181818;stroke-width:0.5;" width="167.8055" x="679" y="44.602"/><rect fill="#F1F1F1" height="10" style="stroke:#181818;stroke-width:0.5;" width="15" x="826.8055" y="49.602"/><rect fill="#F1F1F1" height="2" style="stroke:#181818;stroke-width:0.5;" width="4" x="824.8055" y="51.602"/><rect fill="#F1F1F1" height="2" style="stroke:#181818;stroke-width:0.5;" width="4" x="824.8055" y="55.602"/><text fill="#000000" font-family="sans-serif" font-size="14" lengthAdjust="spacing" textLength="127.8055" x="694" y="79.5679">junit-platform-suite</text></g><!--entity suite_api--><g class="entity" data-entity="suite_api" data-source-line="27" data-uid="ent0019" id="entity_suite_api"><rect fill="#F1F1F1" height="49.0679" rx="2.5" ry="2.5" style="stroke:#181818;stroke-width:0.5;" width="192.3894" x="765" y="474.602"/><rect fill="#F1F1F1" height="10" style="stroke:#181818;stroke-width:0.5;" width="15" x="937.3894" y="479.602"/><rect fill="#F1F1F1" height="2" style="stroke:#181818;stroke-width:0.5;" width="4" x="935.3894" y="481.602"/><rect fill="#F1F1F1" height="2" style="stroke:#181818;stroke-width:0.5;" width="4" x="935.3894" y="485.602"/><text fill="#000000" font-family="sans-serif" font-size="14" lengthAdjust="spacing" textLength="152.3894" x="780" y="509.5679">junit-platform-suite-api</text></g><!--entity suite_commons--><g class="entity" data-entity="suite_commons" data-source-line="28" data-uid="ent0020" id="entity_suite_commons"><rect fill="#F1F1F1" height="49.0679" rx="2.5" ry="2.5" style="stroke:#181818;stroke-width:0.5;" width="237.5112" x="712" y="365.602"/><rect fill="#F1F1F1" height="10" style="stroke:#181818;stroke-width:0.5;" width="15" x="929.5112" y="370.602"/><rect fill="#F1F1F1" height="2" style="stroke:#181818;stroke-width:0.5;" width="4" x="927.5112" y="372.602"/><rect fill="#F1F1F1" height="2" style="stroke:#181818;stroke-width:0.5;" width="4" x="927.5112" y="376.602"/><text fill="#000000" font-family="sans-serif" font-size="14" lengthAdjust="spacing" textLength="197.5112" x="727" y="400.5679">junit-platform-suite-commons</text></g><!--entity suite_engine--><g class="entity" data-entity="suite_engine" data-source-line="29" data-uid="ent0021" id="entity_suite_engine"><rect fill="#F1F1F1" height="49.0679" rx="2.5" ry="2.5" style="stroke:#181818;stroke-width:0.5;" width="217.6313" x="515" y="196.102"/><rect fill="#F1F1F1" height="10" style="stroke:#181818;stroke-width:0.5;" width="15" x="712.6313" y="201.102"/><rect fill="#F1F1F1" height="2" style="stroke:#181818;stroke-width:0.5;" width="4" x="710.6313" y="203.102"/><rect fill="#F1F1F1" height="2" style="stroke:#181818;stroke-width:0.5;" width="4" x="710.6313" y="207.102"/><text fill="#000000" font-family="sans-serif" font-size="14" lengthAdjust="spacing" textLength="177.6313" x="530" y="231.0679">junit-platform-suite-engine</text></g><!--entity testkit--><g class="entity" data-entity="testkit" data-source-line="30" data-uid="ent0022" id="entity_testkit"><rect fill="#F1F1F1" height="49.0679" rx="2.5" ry="2.5" style="stroke:#181818;stroke-width:0.5;" width="176.7375" x="278.5" y="365.602"/><rect fill="#F1F1F1" height="10" style="stroke:#181818;stroke-width:0.5;" width="15" x="435.2375" y="370.602"/><rect fill="#F1F1F1" height="2" style="stroke:#181818;stroke-width:0.5;" width="4" x="433.2375" y="372.602"/><rect fill="#F1F1F1" height="2" style="stroke:#181818;stroke-width:0.5;" width="4" x="433.2375" y="376.602"/><text fill="#000000" font-family="sans-serif" font-size="14" lengthAdjust="spacing" textLength="136.7375" x="293.5" y="400.5679">junit-platform-testkit</text></g><!--entity junit4--><g class="entity" data-entity="junit4" data-source-line="34" data-uid="ent0024" id="entity_junit4"><rect fill="#F1F1F1" height="49.0679" rx="2.5" ry="2.5" style="stroke:#181818;stroke-width:0.5;" width="102.9157" x="1218.5" y="601.602"/><rect fill="#F1F1F1" height="10" style="stroke:#181818;stroke-width:0.5;" width="15" x="1301.4157" y="606.602"/><rect fill="#F1F1F1" height="2" style="stroke:#181818;stroke-width:0.5;" width="4" x="1299.4157" y="608.602"/><rect fill="#F1F1F1" height="2" style="stroke:#181818;stroke-width:0.5;" width="4" x="1299.4157" y="612.602"/><text fill="#000000" font-family="sans-serif" font-size="14" lengthAdjust="spacing" textLength="62.9157" x="1233.5" y="636.5679">junit:junit</text></g><!--entity opentest4j--><g class="entity" data-entity="opentest4j" data-source-line="38" data-uid="ent0026" id="entity_opentest4j"><rect fill="#F1F1F1" height="49.0679" rx="2.5" ry="2.5" style="stroke:#181818;stroke-width:0.5;" width="109.9577" x="677" y="880.602"/><rect fill="#F1F1F1" height="10" style="stroke:#181818;stroke-width:0.5;" width="15" x="766.9577" y="885.602"/><rect fill="#F1F1F1" height="2" style="stroke:#181818;stroke-width:0.5;" width="4" x="764.9577" y="887.602"/><rect fill="#F1F1F1" height="2" style="stroke:#181818;stroke-width:0.5;" width="4" x="764.9577" y="891.602"/><text fill="#000000" font-family="sans-serif" font-size="14" lengthAdjust="spacing" textLength="69.9577" x="692" y="915.5679">opentest4j</text></g><!--entity otr_tooling_spi--><g class="entity" data-entity="otr_tooling_spi" data-source-line="42" data-uid="ent0028" id="entity_otr_tooling_spi"><rect fill="#F1F1F1" height="49.0679" rx="2.5" ry="2.5" style="stroke:#181818;stroke-width:0.5;" width="244.2452" x="22" y="880.602"/><rect fill="#F1F1F1" height="10" style="stroke:#181818;stroke-width:0.5;" width="15" x="246.2452" y="885.602"/><rect fill="#F1F1F1" height="2" style="stroke:#181818;stroke-width:0.5;" width="4" x="244.2452" y="887.602"/><rect fill="#F1F1F1" height="2" style="stroke:#181818;stroke-width:0.5;" width="4" x="244.2452" y="891.602"/><text fill="#000000" font-family="sans-serif" font-size="14" lengthAdjust="spacing" textLength="204.2452" x="37" y="915.5679">open-test-reporting-tooling-spi</text></g><!--entity apiguardian--><g class="entity" data-entity="apiguardian" data-source-line="46" data-uid="ent0030" id="entity_apiguardian"><rect fill="#F1F1F1" height="49.0679" rx="2.5" ry="2.5" style="stroke:#181818;stroke-width:0.5;" width="144.2856" x="2084" y="44.602"/><rect fill="#F1F1F1" height="10" style="stroke:#181818;stroke-width:0.5;" width="15" x="2208.2856" y="49.602"/><rect fill="#F1F1F1" height="2" style="stroke:#181818;stroke-width:0.5;" width="4" x="2206.2856" y="51.602"/><rect fill="#F1F1F1" height="2" style="stroke:#181818;stroke-width:0.5;" width="4" x="2206.2856" y="55.602"/><text fill="#000000" font-family="sans-serif" font-size="14" lengthAdjust="spacing" textLength="104.2856" x="2099" y="79.5679">apiguardian-api</text></g><g class="entity" data-entity="GMN31" data-source-line="48" data-uid="ent0032" id="entity_GMN31"><path d="M2064,153.602 L2064,287.5441 A0,0 0 0 0 2064,287.5441 L2248.2021,287.5441 A0,0 0 0 0 2248.2021,287.5441 L2248.2021,163.602 L2238.2021,153.602 L2160,153.602 L2156,93.792 L2152,153.602 L2064,153.602 A0,0 0 0 0 2064,153.602" fill="#FFFFFF" style="stroke:#181818;stroke-width:0.5;"/><path d="M2238.2021,153.602 L2238.2021,163.602 L2248.2021,163.602 L2238.2021,153.602" fill="#FFFFFF" style="stroke:#181818;stroke-width:0.5;"/><text fill="#000000" font-family="sans-serif" font-size="13" lengthAdjust="spacing" textLength="111.8781" x="2070" y="172.499">All artifacts except</text><text fill="#000000" font-family="sans-serif" font-size="13" lengthAdjust="spacing" textLength="153.4652" x="2070" y="190.205">opentest4j and junit:junit</text><text fill="#000000" font-family="sans-serif" font-size="13" lengthAdjust="spacing" textLength="163.2021" x="2070" y="207.911">have a dependency on this</text><text fill="#000000" font-family="sans-serif" font-size="13" lengthAdjust="spacing" textLength="145.7691" x="2070" y="225.617">artifact. The edges have</text><text fill="#000000" font-family="sans-serif" font-size="13" lengthAdjust="spacing" textLength="141.0891" x="2070" y="243.3231">been omitted from this</text><text fill="#000000" font-family="sans-serif" font-size="13" lengthAdjust="spacing" textLength="142.8701" x="2070" y="261.0291">diagram for the sake of</text><text fill="#000000" font-family="sans-serif" font-size="13" lengthAdjust="spacing" textLength="68.1461" x="2070" y="278.7351">readability.</text></g><!--link jupiter to jupiter_api--><g class="link" data-entity-1="jupiter" data-entity-2="jupiter_api" data-source-line="58" data-uid="lnk34" id="link_jupiter_jupiter_api"><path d="M1922.79,245.212 C1946.69,262.522 1975.53,288.402 1989,319.602 C2009.96,368.162 2023.46,398.472 1989,438.602 C1948.83,485.382 1777.9187,495.6494 1677.0687,497.7094" fill="none" id="jupiter-to-jupiter_api" style="stroke:#181818;stroke-width:1;stroke-dasharray:7.0,7.0;"/><polygon fill="#181818" points="1671.07,497.832,1680.1498,501.6473,1676.069,497.7299,1679.9864,493.649,1671.07,497.832" style="stroke:#181818;stroke-width:1;"/></g><!--link jupiter to jupiter_params--><g class="link" data-entity-1="jupiter" data-entity-2="jupiter_params" data-source-line="59" data-uid="lnk35" id="link_jupiter_jupiter_params"><path d="M1885,245.242 C1885,277.172 1885,327.722 1885,359.582" fill="none" id="jupiter-to-jupiter_params" style="stroke:#181818;stroke-width:1;stroke-dasharray:7.0,7.0;"/><polygon fill="#181818" points="1885,365.582,1889,356.582,1885,360.582,1881,356.582,1885,365.582" style="stroke:#181818;stroke-width:1;"/></g><!--link jupiter to jupiter_engine--><g class="link" data-entity-1="jupiter" data-entity-2="jupiter_engine" data-source-line="60" data-uid="lnk36" id="link_jupiter_jupiter_engine"><path d="M1826.22,230.492 C1750.38,243.382 1615.55,271.182 1509,319.602 C1482.47,331.662 1460.1012,346.8709 1440.5012,361.9009" fill="none" id="jupiter-to-jupiter_engine" style="stroke:#181818;stroke-width:1;stroke-dasharray:7.0,7.0;"/><polygon fill="#181818" points="1435.74,365.552,1445.3159,363.2495,1439.7077,362.5094,1440.4478,356.9012,1435.74,365.552" style="stroke:#181818;stroke-width:1;"/></g><!--link jupiter_api to opentest4j--><g class="link" data-entity-1="jupiter_api" data-entity-2="opentest4j" data-source-line="62" data-uid="lnk37" id="link_jupiter_api_opentest4j"><path d="M1585.13,523.772 C1560.49,561.152 1507.62,633.762 1445,674.602 C1226.62,817.042 918.8801,876.2289 793.1401,895.5889" fill="none" id="jupiter_api-to-opentest4j" style="stroke:#181818;stroke-width:1;stroke-dasharray:7.0,7.0;"/><polygon fill="#181818" points="787.21,896.502,796.7139,899.0858,792.1518,895.7411,795.4965,891.179,787.21,896.502" style="stroke:#181818;stroke-width:1;"/></g><!--link jupiter_api to commons--><g class="link" data-entity-1="jupiter_api" data-entity-2="commons" data-source-line="63" data-uid="lnk38" id="link_jupiter_api_commons"><path d="M1554.98,523.852 C1537.82,533.292 1518.24,544.532 1501,555.602 C1425.52,604.062 1421.27,641.272 1338,674.602 C1276.09,699.382 1105.8396,716.8277 992.5996,726.1877" fill="none" id="jupiter_api-to-commons" style="stroke:#181818;stroke-width:1;stroke-dasharray:7.0,7.0;"/><polygon fill="#181818" points="986.62,726.682,995.9189,729.927,991.603,726.2701,995.2599,721.9542,986.62,726.682" style="stroke:#181818;stroke-width:1;"/></g><!--link jupiter_engine to engine--><g class="link" data-entity-1="jupiter_engine" data-entity-2="engine" data-source-line="65" data-uid="lnk39" id="link_jupiter_engine_engine"><path d="M1354.66,414.612 C1254.93,459.402 1044.1735,554.0641 944.1635,598.9741" fill="none" id="jupiter_engine-to-engine" style="stroke:#181818;stroke-width:1;stroke-dasharray:7.0,7.0;"/><polygon fill="#181818" points="938.69,601.432,948.5388,601.3941,943.2512,599.3837,945.2616,594.0962,938.69,601.432" style="stroke:#181818;stroke-width:1;"/></g><!--link jupiter_engine to jupiter_api--><g class="link" data-entity-1="jupiter_engine" data-entity-2="jupiter_api" data-source-line="66" data-uid="lnk40" id="link_jupiter_engine_jupiter_api"><path d="M1449.83,414.852 C1481.82,432.582 1520.0826,453.7926 1552.0426,471.5126" fill="none" id="jupiter_engine-to-jupiter_api" style="stroke:#181818;stroke-width:1;stroke-dasharray:7.0,7.0;"/><polygon fill="#181818" points="1557.29,474.422,1551.3585,466.5596,1552.9171,471.9975,1547.4793,473.5562,1557.29,474.422" style="stroke:#181818;stroke-width:1;"/></g><!--link jupiter_params to jupiter_api--><g class="link" data-entity-1="jupiter_params" data-entity-2="jupiter_api" data-source-line="68" data-uid="lnk41" id="link_jupiter_params_jupiter_api"><path d="M1837.03,414.622 C1819.86,422.672 1800.24,431.442 1782,438.602 C1745.95,452.752 1710.7456,464.5483 1676.8456,475.1683" fill="none" id="jupiter_params-to-jupiter_api" style="stroke:#181818;stroke-width:1;stroke-dasharray:7.0,7.0;"/><polygon fill="#181818" points="1671.12,476.962,1680.9042,478.0885,1675.8913,475.4672,1678.5126,470.4544,1671.12,476.962" style="stroke:#181818;stroke-width:1;"/></g><!--link jupiter_migration_support to jupiter_api--><g class="link" data-entity-1="jupiter_migration_support" data-entity-2="jupiter_api" data-source-line="69" data-uid="lnk42" id="link_jupiter_migration_support_jupiter_api"><path d="M1635.01,414.852 C1627.56,432.582 1619.7354,451.1709 1612.2854,468.8909" fill="none" id="jupiter_migration_support-to-jupiter_api" style="stroke:#181818;stroke-width:1;stroke-dasharray:7.0,7.0;"/><polygon fill="#181818" points="1609.96,474.422,1617.1355,467.6757,1611.8978,469.8128,1609.7608,464.5751,1609.96,474.422" style="stroke:#181818;stroke-width:1;"/></g><!--link jupiter_migration_support to junit4--><g class="link" data-entity-1="jupiter_migration_support" data-entity-2="junit4" data-source-line="70" data-uid="lnk43" id="link_jupiter_migration_support_junit4"><path d="M1607.33,414.612 C1535.54,459.402 1385.0005,553.3459 1313.0205,598.2559" fill="none" id="jupiter_migration_support-to-junit4" style="stroke:#181818;stroke-width:1;stroke-dasharray:7.0,7.0;"/><polygon fill="#181818" points="1307.93,601.432,1317.683,600.0615,1312.172,598.7853,1313.4483,593.2743,1307.93,601.432" style="stroke:#181818;stroke-width:1;"/></g><!--link console to launcher--><g class="link" data-entity-1="console" data-entity-2="launcher" data-source-line="72" data-uid="lnk44" id="link_console_launcher"><path d="M353.69,245.162 C395.08,260.262 441.95,283.912 473,319.602 C509.35,361.392 479.47,392.392 510,438.602 C519.06,452.312 527.4516,460.903 539.8716,470.713" fill="none" id="console-to-launcher" style="stroke:#181818;stroke-width:1;stroke-dasharray:7.0,7.0;"/><polygon fill="#181818" points="544.58,474.432,539.9967,465.7146,540.6563,471.3328,535.0381,471.9925,544.58,474.432" style="stroke:#181818;stroke-width:1;"/></g><!--link console to reporting--><g class="link" data-entity-1="console" data-entity-2="reporting" data-source-line="73" data-uid="lnk45" id="link_console_reporting"><path d="M247.92,245.242 C224.86,277.172 187.5239,328.8586 164.5039,360.7186" fill="none" id="console-to-reporting" style="stroke:#181818;stroke-width:1;stroke-dasharray:7.0,7.0;"/><polygon fill="#181818" points="160.99,365.582,169.5032,360.6296,163.9183,361.5292,163.0187,355.9443,160.99,365.582" style="stroke:#181818;stroke-width:1;"/></g><!--link launcher to engine--><g class="link" data-entity-1="launcher" data-entity-2="engine" data-source-line="75" data-uid="lnk46" id="link_launcher_engine"><path d="M637.56,523.612 C692.18,545.922 768.2655,577.0132 822.8855,599.3232" fill="none" id="launcher-to-engine" style="stroke:#181818;stroke-width:1;stroke-dasharray:7.0,7.0;"/><polygon fill="#181818" points="828.44,601.592,821.6208,594.4858,823.8112,599.7013,818.5957,601.8918,828.44,601.592" style="stroke:#181818;stroke-width:1;"/></g><!--link jfr to launcher--><g class="link" data-entity-1="jfr" data-entity-2="launcher" data-source-line="77" data-uid="lnk47" id="link_jfr_launcher"><path d="M597.12,414.852 C593.47,432.582 589.7173,450.8247 586.0773,468.5447" fill="none" id="jfr-to-launcher" style="stroke:#181818;stroke-width:1;stroke-dasharray:7.0,7.0;"/><polygon fill="#181818" points="584.87,474.422,590.5991,466.4109,585.8761,469.5242,582.7628,464.8012,584.87,474.422" style="stroke:#181818;stroke-width:1;"/></g><!--link engine to opentest4j--><g class="link" data-entity-1="engine" data-entity-2="opentest4j" data-source-line="79" data-uid="lnk48" id="link_engine_opentest4j"><path d="M836.12,650.762 C811.86,664.812 784.44,684.922 768,710.602 C733.82,763.982 730.1708,835.6028 730.8108,874.3028" fill="none" id="engine-to-opentest4j" style="stroke:#181818;stroke-width:1;stroke-dasharray:7.0,7.0;"/><polygon fill="#181818" points="730.91,880.302,734.7606,871.2371,730.8273,875.3027,726.7617,871.3694,730.91,880.302" style="stroke:#181818;stroke-width:1;"/></g><!--link engine to commons--><g class="link" data-entity-1="engine" data-entity-2="commons" data-source-line="80" data-uid="lnk49" id="link_engine_commons"><path d="M886,650.852 C886,668.582 886,686.702 886,704.422" fill="none" id="engine-to-commons" style="stroke:#181818;stroke-width:1;stroke-dasharray:7.0,7.0;"/><polygon fill="#181818" points="886,710.422,890,701.422,886,705.422,882,701.422,886,710.422" style="stroke:#181818;stroke-width:1;"/></g><!--link reporting to launcher--><g class="link" data-entity-1="reporting" data-entity-2="launcher" data-source-line="82" data-uid="lnk50" id="link_reporting_launcher"><path d="M195.62,414.672 C215.71,423.152 239.12,432.192 261,438.602 C334.12,460.032 413.0888,474.5159 476.9088,484.2659" fill="none" id="reporting-to-launcher" style="stroke:#181818;stroke-width:1;stroke-dasharray:7.0,7.0;"/><polygon fill="#181818" points="482.84,485.172,474.5473,479.8587,477.8973,484.4169,473.3391,487.7669,482.84,485.172" style="stroke:#181818;stroke-width:1;"/></g><!--link reporting to otr_tooling_spi--><g class="link" data-entity-1="reporting" data-entity-2="otr_tooling_spi" data-source-line="83" data-uid="lnk51" id="link_reporting_otr_tooling_spi"><path d="M144,414.682 C144,456.882 144,548.122 144,625.102 C144,625.102 144,625.102 144,736.102 C144,787.582 144,841.932 144,874.452" fill="none" id="reporting-to-otr_tooling_spi" style="stroke:#181818;stroke-width:1;stroke-dasharray:7.0,7.0;"/><polygon fill="#181818" points="144,880.452,148,871.452,144,875.452,140,871.452,144,880.452" style="stroke:#181818;stroke-width:1;"/></g><!--link runner to suite_commons--><g class="link" data-entity-1="runner" data-entity-2="suite_commons" data-source-line="85" data-uid="lnk52" id="link_runner_suite_commons"><path d="M855.05,245.242 C849.71,277.172 841.25,327.8042 835.92,359.6642" fill="none" id="runner-to-suite_commons" style="stroke:#181818;stroke-width:1;stroke-dasharray:7.0,7.0;"/><polygon fill="#181818" points="834.93,365.582,840.3602,357.3653,835.755,360.6505,832.4698,356.0453,834.93,365.582" style="stroke:#181818;stroke-width:1;"/></g><!--link runner to junit4--><g class="link" data-entity-1="runner" data-entity-2="junit4" data-source-line="86" data-uid="lnk53" id="link_runner_junit4"><path d="M949.82,233.592 C1048.22,248.532 1196.15,277.372 1233,319.602 C1304.14,401.112 1286.9993,538.9273 1276.2693,595.4373" fill="none" id="runner-to-junit4" style="stroke:#181818;stroke-width:1;stroke-dasharray:7.0,7.0;"/><polygon fill="#181818" points="1275.15,601.332,1280.7587,593.2361,1276.0827,596.4197,1272.8991,591.7438,1275.15,601.332" style="stroke:#181818;stroke-width:1;"/></g><!--link suite to suite_api--><g class="link" data-entity-1="suite" data-entity-2="suite_api" data-source-line="88" data-uid="lnk54" id="link_suite_suite_api"><path d="M847.19,80.642 C890.63,90.822 940.04,110.812 967,150.102 C1039.56,255.822 1033,328.082 968,438.602 C958.95,453.992 949.5486,462.7488 933.9686,471.5188" fill="none" id="suite-to-suite_api" style="stroke:#181818;stroke-width:1;stroke-dasharray:7.0,7.0;"/><polygon fill="#181818" points="928.74,474.462,938.5449,473.5329,933.0971,472.0093,934.6207,466.5615,928.74,474.462" style="stroke:#181818;stroke-width:1;"/></g><!--link suite to suite_engine--><g class="link" data-entity-1="suite" data-entity-2="suite_engine" data-source-line="89" data-uid="lnk55" id="link_suite_suite_engine"><path d="M740.98,93.792 C714.95,121.782 675.9857,163.688 650.0057,191.628" fill="none" id="suite-to-suite_engine" style="stroke:#181818;stroke-width:1;stroke-dasharray:7.0,7.0;"/><polygon fill="#181818" points="645.92,196.022,654.9779,192.1549,649.3248,192.3603,649.1193,186.7072,645.92,196.022" style="stroke:#181818;stroke-width:1;"/></g><!--link suite_engine to suite_commons--><g class="link" data-entity-1="suite_engine" data-entity-2="suite_commons" data-source-line="91" data-uid="lnk56" id="link_suite_engine_suite_commons"><path d="M653.22,245.242 C692.67,277.172 757.8854,329.9482 797.2654,361.8082" fill="none" id="suite_engine-to-suite_commons" style="stroke:#181818;stroke-width:1;stroke-dasharray:7.0,7.0;"/><polygon fill="#181818" points="801.93,365.582,797.449,356.8115,798.0429,362.4371,792.4173,363.031,801.93,365.582" style="stroke:#181818;stroke-width:1;"/></g><!--link suite_commons to launcher--><g class="link" data-entity-1="suite_commons" data-entity-2="launcher" data-source-line="93" data-uid="lnk57" id="link_suite_commons_launcher"><path d="M775.61,414.712 C733.88,432.502 682.459,454.4182 640.769,472.1982" fill="none" id="suite_commons-to-launcher" style="stroke:#181818;stroke-width:1;stroke-dasharray:7.0,7.0;"/><polygon fill="#181818" points="635.25,474.552,645.0977,474.7007,639.8492,472.5905,641.9594,467.342,635.25,474.552" style="stroke:#181818;stroke-width:1;"/></g><!--link suite_commons to suite_api--><g class="link" data-entity-1="suite_commons" data-entity-2="suite_api" data-source-line="94" data-uid="lnk58" id="link_suite_commons_suite_api"><path d="M837.66,414.852 C842.63,432.582 847.7697,450.9249 852.7397,468.6449" fill="none" id="suite_commons-to-suite_api" style="stroke:#181818;stroke-width:1;stroke-dasharray:7.0,7.0;"/><polygon fill="#181818" points="854.36,474.422,855.7809,464.6762,853.0097,469.6078,848.0781,466.8366,854.36,474.422" style="stroke:#181818;stroke-width:1;"/></g><!--link testkit to opentest4j--><g class="link" data-entity-1="testkit" data-entity-2="opentest4j" data-source-line="96" data-uid="lnk59" id="link_testkit_opentest4j"><path d="M374.12,414.762 C386.11,456.722 409,547.092 409,625.102 C409,625.102 409,625.102 409,736.102 C409,855.412 578.6249,889.4654 670.8749,899.4654" fill="none" id="testkit-to-opentest4j" style="stroke:#181818;stroke-width:1;stroke-dasharray:7.0,7.0;"/><polygon fill="#181818" points="676.84,900.112,668.3235,895.1654,671.8691,899.5731,667.4613,903.1188,676.84,900.112" style="stroke:#181818;stroke-width:1;"/></g><!--link testkit to launcher--><g class="link" data-entity-1="testkit" data-entity-2="launcher" data-source-line="97" data-uid="lnk60" id="link_testkit_launcher"><path d="M414.01,414.712 C449.41,432.502 492.3792,454.0772 527.7492,471.8572" fill="none" id="testkit-to-launcher" style="stroke:#181818;stroke-width:1;stroke-dasharray:7.0,7.0;"/><polygon fill="#181818" points="533.11,474.552,526.8653,466.9359,528.6427,472.3063,523.2723,474.0837,533.11,474.552" style="stroke:#181818;stroke-width:1;"/></g><!--link vintage_engine to engine--><g class="link" data-entity-1="vintage_engine" data-entity-2="engine" data-source-line="99" data-uid="lnk61" id="link_vintage_engine_engine"><path d="M1107.67,414.712 C1078.01,445.822 1023.67,501.952 975,547.602 C955.12,566.242 936.45,582.5442 918.7,597.6442" fill="none" id="vintage_engine-to-engine" style="stroke:#181818;stroke-width:1;stroke-dasharray:7.0,7.0;"/><polygon fill="#181818" points="914.13,601.532,923.5769,598.747,917.9384,598.2922,918.3932,592.6536,914.13,601.532" style="stroke:#181818;stroke-width:1;"/></g><!--link vintage_engine to junit4--><g class="link" data-entity-1="vintage_engine" data-entity-2="junit4" data-source-line="100" data-uid="lnk62" id="link_vintage_engine_junit4"><path d="M1144.19,414.822 C1171.03,459.672 1225.8298,551.263 1252.6898,596.163" fill="none" id="vintage_engine-to-junit4" style="stroke:#181818;stroke-width:1;stroke-dasharray:7.0,7.0;"/><polygon fill="#181818" points="1255.77,601.312,1254.5823,591.535,1253.2031,597.0211,1247.717,595.642,1255.77,601.312" style="stroke:#181818;stroke-width:1;"/></g><!--SRC=[bLMnZjim3Dtr5S9rjgTC7Gxeqg53ftOw70B5fXqbjcH8zBM7elzUIfPboLOEQ0P7Uk-HePvenjwbceGH8__3E7rQwCGyu5UjyBiOWLkXR6N1o8xzPMmIpLtqmBNfwzki9D9paWWcHBzui0hWAnUMXtM1hiGaKycPzYKPg5ugo9GBL1BxizXCl40byIXx8r1gPUTfqWQpi4YU0risu4qgT4XcG03JqWEqbbxCDGq2Est6FDcALeqUHwhLfmlh1pfbzG11vzT5NLBTqT2ekdNX8ZjJv0Sng-OQRdlT59K6d8rIzLuQTsNjh5J8kIoBAZlJLNcHNptMn5xpktsdxRIfpul-8xUNcCJB9UG3Hn4itkNIRM6TziFJjvyavwUdh0q- -sVeK5gTzYsa9r0ks-csnct8wsDn7UyX3VCrRXTMeTQ3-xR1Hetc7B0pOVlqv6y_2zDAeTQi2HGl8y6yI6a4Vj68UkIwIsd-wTTrlM3t-J8CN51fdMYGklTt0nD6Cd52g9OdzaN9LRm15pJjIDg2QjwvLXolqaR5chtcFwx0eUt1-gWek00ehaU922tl39MSnLFLlHkhTED4k45w9s-wo1iGhRZ8GU9xxK4gn9tVMRaErRf-pePZ2G_JhKI55cH92kATOdDeJpx7oSBoD0iPKXwel4wM5_Ve7CSH-rzAB_Ll0WjJpeV74PI2sx1XAy-Jyp0QRdamsqwT-vKSEJgrlK9PZXGEUNQl3Ljccm_B9qqaabDwHQ9r1ksnzK3fhf2UPTkyx2Er_HmBy-heoqQaBkR_UbaF7QXuq7y0]--></g></svg>