<svg xmlns="http://www.w3.org/2000/svg" xmlns:xlink="http://www.w3.org/1999/xlink" contentStyleType="text/css" data-diagram-type="CLASS" height="388px" preserveAspectRatio="none" style="width:630px;height:388px;background:#FFFFFF;" version="1.1" viewBox="0 0 630 388" width="630px" zoomAndPan="magnify"><defs/><g><g class="entity" data-entity="IDEs" data-source-line="1" data-uid="ent0002" id="entity_IDEs"><rect fill="#F1F1F1" height="36.2969" rx="2.5" ry="2.5" style="stroke:#181818;stroke-width:0.5;" width="45.0488" x="149.5" y="7"/><text fill="#000000" font-family="sans-serif" font-size="14" lengthAdjust="spacing" textLength="31.0488" x="156.5" y="21.9951">IDEs</text><line style="stroke:#181818;stroke-width:0.5;" x1="150.5" x2="193.5488" y1="27.2969" y2="27.2969"/></g><g class="entity" data-entity="Build Tools" data-source-line="2" data-uid="ent0003" id="entity_Build Tools"><rect fill="#F1F1F1" height="36.2969" rx="2.5" ry="2.5" style="stroke:#181818;stroke-width:0.5;" width="90.46" x="230" y="7"/><text fill="#000000" font-family="sans-serif" font-size="14" lengthAdjust="spacing" textLength="76.46" x="237" y="21.9951">Build Tools</text><line style="stroke:#181818;stroke-width:0.5;" x1="231" x2="319.46" y1="27.2969" y2="27.2969"/></g><g class="entity" data-entity="Console Launcher" data-source-line="3" data-uid="ent0004" id="entity_Console Launcher"><rect fill="#F1F1F1" height="36.2969" rx="2.5" ry="2.5" style="stroke:#181818;stroke-width:0.5;" width="139.0908" x="355.5" y="7"/><text fill="#000000" font-family="sans-serif" font-size="14" lengthAdjust="spacing" textLength="125.0908" x="362.5" y="21.9951">Console Launcher</text><line style="stroke:#181818;stroke-width:0.5;" x1="356.5" x2="493.5908" y1="27.2969" y2="27.2969"/></g><g class="entity" data-entity="JUnit Platform" data-source-line="4" data-uid="ent0005" id="entity_JUnit Platform"><rect fill="#F1F1F1" height="36.2969" rx="2.5" ry="2.5" style="stroke:#181818;stroke-width:0.5;" width="110.3662" x="220" y="120"/><text fill="#000000" font-family="sans-serif" font-size="14" lengthAdjust="spacing" textLength="96.3662" x="227" y="134.9951">JUnit Platform</text><line style="stroke:#181818;stroke-width:0.5;" x1="221" x2="329.3662" y1="140.2969" y2="140.2969"/></g><g class="entity" data-entity="Jupiter Test Engine" data-source-line="5" data-uid="ent0006" id="entity_Jupiter Test Engine"><rect fill="#F1F1F1" height="36.2969" rx="2.5" ry="2.5" style="stroke:#181818;stroke-width:0.5;" width="146.4668" x="7" y="233"/><text fill="#000000" font-family="sans-serif" font-size="14" lengthAdjust="spacing" textLength="132.4668" x="14" y="247.9951">Jupiter Test Engine</text><line style="stroke:#181818;stroke-width:0.5;" x1="8" x2="152.4668" y1="253.2969" y2="253.2969"/></g><g class="entity" data-entity="Cucumber Test Engine" data-source-line="6" data-uid="ent0007" id="entity_Cucumber Test Engine"><rect fill="#F1F1F1" height="36.2969" rx="2.5" ry="2.5" style="stroke:#181818;stroke-width:0.5;" width="172.9424" x="188.5" y="233"/><text fill="#000000" font-family="sans-serif" font-size="14" lengthAdjust="spacing" textLength="158.9424" x="195.5" y="247.9951">Cucumber Test Engine</text><line style="stroke:#181818;stroke-width:0.5;" x1="189.5" x2="360.4424" y1="253.2969" y2="253.2969"/></g><g class="entity" data-entity="Spock Test Engine" data-source-line="7" data-uid="ent0008" id="entity_Spock Test Engine"><rect fill="#F1F1F1" height="36.2969" rx="2.5" ry="2.5" style="stroke:#181818;stroke-width:0.5;" width="142.9736" x="396.5" y="233"/><text fill="#000000" font-family="sans-serif" font-size="14" lengthAdjust="spacing" textLength="128.9736" x="403.5" y="247.9951">Spock Test Engine</text><line style="stroke:#181818;stroke-width:0.5;" x1="397.5" x2="538.4736" y1="253.2969" y2="253.2969"/></g><g class="entity" data-entity="Test Classes" data-source-line="8" data-uid="ent0009" id="entity_Test Classes"><rect fill="#F1F1F1" height="36.2969" rx="2.5" ry="2.5" style="stroke:#181818;stroke-width:0.5;" width="101.1377" x="29.5" y="346"/><text fill="#000000" font-family="sans-serif" font-size="14" lengthAdjust="spacing" textLength="87.1377" x="36.5" y="360.9951">Test Classes</text><line style="stroke:#181818;stroke-width:0.5;" x1="30.5" x2="129.6377" y1="366.2969" y2="366.2969"/></g><g class="entity" data-entity="Feature Files" data-source-line="9" data-uid="ent0010" id="entity_Feature Files"><rect fill="#F1F1F1" height="36.2969" rx="2.5" ry="2.5" style="stroke:#181818;stroke-width:0.5;" width="104.166" x="223" y="346"/><text fill="#000000" font-family="sans-serif" font-size="14" lengthAdjust="spacing" textLength="90.166" x="230" y="360.9951">Feature Files</text><line style="stroke:#181818;stroke-width:0.5;" x1="224" x2="326.166" y1="366.2969" y2="366.2969"/></g><g class="entity" data-entity="Specifications" data-source-line="10" data-uid="ent0011" id="entity_Specifications"><rect fill="#F1F1F1" height="36.2969" rx="2.5" ry="2.5" style="stroke:#181818;stroke-width:0.5;" width="111.1797" x="412.5" y="346"/><text fill="#000000" font-family="sans-serif" font-size="14" lengthAdjust="spacing" textLength="97.1797" x="419.5" y="360.9951">Specifications</text><line style="stroke:#181818;stroke-width:0.5;" x1="413.5" x2="522.6797" y1="366.2969" y2="366.2969"/></g><!--link IDEs to JUnit Platform--><g class="link" data-entity-1="IDEs" data-entity-2="JUnit Platform" data-source-line="12" data-uid="lnk12" id="link_IDEs_JUnit Platform"><path codeLine="12" d="M188.09,43.34 C207.44,64.2 235.6389,94.5817 254.9389,115.3817" fill="none" id="IDEs-to-JUnit Platform" style="stroke:#181818;stroke-width:1;"/><polygon fill="#181818" points="259.02,119.78,255.8306,110.4619,255.6191,116.1148,249.9662,115.9033,259.02,119.78" style="stroke:#181818;stroke-width:1;"/></g><!--link Build Tools to JUnit Platform--><g class="link" data-entity-1="Build Tools" data-entity-2="JUnit Platform" data-source-line="13" data-uid="lnk13" id="link_Build Tools_JUnit Platform"><path codeLine="13" d="M275,43.34 C275,64.2 275,92.98 275,113.78" fill="none" id="Build Tools-to-JUnit Platform" style="stroke:#181818;stroke-width:1;"/><polygon fill="#181818" points="275,119.78,279,110.78,275,114.78,271,110.78,275,119.78" style="stroke:#181818;stroke-width:1;"/></g><!--link Console Launcher to JUnit Platform--><g class="link" data-entity-1="Console Launcher" data-entity-2="JUnit Platform" data-source-line="14" data-uid="lnk14" id="link_Console Launcher_JUnit Platform"><path codeLine="14" d="M401.89,43.1 C373.79,63.9 331.4331,95.241 303.2031,116.131" fill="none" id="Console Launcher-to-JUnit Platform" style="stroke:#181818;stroke-width:1;"/><polygon fill="#181818" points="298.38,119.7,307.994,117.5618,302.3992,116.7258,303.2352,111.1311,298.38,119.7" style="stroke:#181818;stroke-width:1;"/><text fill="#000000" font-family="sans-serif" font-size="13" lengthAdjust="spacing" textLength="219.7749" x="359" y="86.0669">requests discovery and execution</text></g><!--link JUnit Platform to Jupiter Test Engine--><g class="link" data-entity-1="JUnit Platform" data-entity-2="Jupiter Test Engine" data-source-line="15" data-uid="lnk15" id="link_JUnit Platform_Jupiter Test Engine"><path codeLine="15" d="M244.96,156.1 C208.31,176.96 151.9543,209.0416 115.2943,229.9116" fill="none" id="JUnit Platform-to-Jupiter Test Engine" style="stroke:#181818;stroke-width:1;"/><polygon fill="#181818" points="110.08,232.88,119.8803,231.9036,114.4252,230.4063,115.9225,224.9512,110.08,232.88" style="stroke:#181818;stroke-width:1;"/></g><!--link Jupiter Test Engine to Test Classes--><g class="link" data-entity-1="Jupiter Test Engine" data-entity-2="Test Classes" data-source-line="16" data-uid="lnk16" id="link_Jupiter Test Engine_Test Classes"><path codeLine="16" d="M80,269.34 C80,290.2 80,318.98 80,339.78" fill="none" id="Jupiter Test Engine-to-Test Classes" style="stroke:#181818;stroke-width:1;"/><polygon fill="#181818" points="80,345.78,84,336.78,80,340.78,76,336.78,80,345.78" style="stroke:#181818;stroke-width:1;"/></g><!--link JUnit Platform to Cucumber Test Engine--><g class="link" data-entity-1="JUnit Platform" data-entity-2="Cucumber Test Engine" data-source-line="18" data-uid="lnk17" id="link_JUnit Platform_Cucumber Test Engine"><path codeLine="18" d="M275,156.34 C275,177.2 275,205.98 275,226.78" fill="none" id="JUnit Platform-to-Cucumber Test Engine" style="stroke:#181818;stroke-width:1;"/><polygon fill="#181818" points="275,232.78,279,223.78,275,227.78,271,223.78,275,232.78" style="stroke:#181818;stroke-width:1;"/></g><!--link Cucumber Test Engine to Feature Files--><g class="link" data-entity-1="Cucumber Test Engine" data-entity-2="Feature Files" data-source-line="19" data-uid="lnk18" id="link_Cucumber Test Engine_Feature Files"><path codeLine="19" d="M275,269.34 C275,290.2 275,318.98 275,339.78" fill="none" id="Cucumber Test Engine-to-Feature Files" style="stroke:#181818;stroke-width:1;"/><polygon fill="#181818" points="275,345.78,279,336.78,275,340.78,271,336.78,275,345.78" style="stroke:#181818;stroke-width:1;"/></g><!--link JUnit Platform to Spock Test Engine--><g class="link" data-entity-1="JUnit Platform" data-entity-2="Spock Test Engine" data-source-line="21" data-uid="lnk19" id="link_JUnit Platform_Spock Test Engine"><path codeLine="21" d="M304.73,156.1 C341,176.96 396.7491,209.0182 433.0291,229.8882" fill="none" id="JUnit Platform-to-Spock Test Engine" style="stroke:#181818;stroke-width:1;"/><polygon fill="#181818" points="438.23,232.88,432.4232,224.9251,433.8959,230.3868,428.4341,231.8596,438.23,232.88" style="stroke:#181818;stroke-width:1;"/><text fill="#000000" font-family="sans-serif" font-size="13" lengthAdjust="spacing" textLength="110.6777" x="384" y="199.0669">forwards request</text></g><!--link Spock Test Engine to Specifications--><g class="link" data-entity-1="Spock Test Engine" data-entity-2="Specifications" data-source-line="22" data-uid="lnk20" id="link_Spock Test Engine_Specifications"><path codeLine="22" d="M468,269.34 C468,290.2 468,318.98 468,339.78" fill="none" id="Spock Test Engine-to-Specifications" style="stroke:#181818;stroke-width:1;"/><polygon fill="#181818" points="468,345.78,472,336.78,468,340.78,464,336.78,468,345.78" style="stroke:#181818;stroke-width:1;"/><text fill="#000000" font-family="sans-serif" font-size="13" lengthAdjust="spacing" textLength="153.2134" x="469" y="312.0669">discovers and executes</text></g><!--SRC=[TP5DZi8m38NtEONLFHTWmO8_2SG22JX0ICrW2769ancu_NGerQGqNURv-Udv2nylQ08Kg_b22iNlrpIIBM7FR1DnnaxO8cnqTEQC_d-oFZWAiBKwdDZV4ZrM5D337YN0mdsHmoGkcdWx3art5PjhVlGIPrQBOD9kYJf4Zx0acygx2WsToEX0TVr2gUPI68qc_TwTkmSiFGfP7up1uptMJGLA4iFVw9-WNGduG1F_ogZUJXEKOvPL6t-Nna1eddLURZO-S0xazdzf3FNuH_jIMW0gusgtEtzJCsjHIO8AvHS0]--></g></svg>